<svg width="22" height="22" viewBox="0 0 22 22" fill="none" xmlns="http://www.w3.org/2000/svg">
<mask id="mask0_5829_458" style="mask-type:alpha" maskUnits="userSpaceOnUse" x="0" y="0" width="22" height="22">
<rect width="22" height="22" fill="#D9D9D9"/>
</mask>
<g mask="url(#mask0_5829_458)">
<path d="M18.2875 19.25C16.3167 19.25 14.3955 18.8108 12.524 17.9323C10.6524 17.0538 8.99479 15.8927 7.55104 14.449C6.10729 13.0052 4.94618 11.3476 4.06771 9.47604C3.18924 7.60451 2.75 5.68333 2.75 3.7125C2.75 3.4375 2.84167 3.20833 3.025 3.025C3.20833 2.84167 3.4375 2.75 3.7125 2.75H7.425C7.63889 2.75 7.82986 2.81875 7.99792 2.95625C8.16597 3.09375 8.26528 3.26944 8.29583 3.48333L8.89167 6.69167C8.92222 6.90556 8.9184 7.10035 8.88021 7.27604C8.84201 7.45174 8.75417 7.60833 8.61667 7.74583L6.41667 9.99167C7.05833 11.0917 7.86042 12.1229 8.82292 13.0854C9.78542 14.0479 10.8472 14.8806 12.0083 15.5833L14.1625 13.4292C14.3 13.2917 14.4795 13.1885 14.701 13.1198C14.9226 13.051 15.1403 13.0319 15.3542 13.0625L18.5167 13.7042C18.7306 13.75 18.9062 13.8531 19.0438 14.0135C19.1812 14.174 19.25 14.3611 19.25 14.575V18.2875C19.25 18.5625 19.1583 18.7917 18.975 18.975C18.7917 19.1583 18.5625 19.25 18.2875 19.25Z" fill="#1A9E75"/>
</g>
</svg>
