<svg width="110" height="110" viewBox="0 0 110 110" fill="none" xmlns="http://www.w3.org/2000/svg">
<g id="car-in-a-garage_svgrepo.com" clip-path="url(#clip0_1624_798)">
<g id="Group">
<g id="Group_2">
<path id="Vector" d="M81.254 61.3233L80.6796 66.4806C80.4657 66.3584 80.2498 66.2484 80.0217 66.1404L77.5551 55.3777C76.6487 50.2449 72.7807 46.4767 67.1366 46.6702H43.5478C38.4455 46.6702 33.9991 48.6073 33.1355 55.3777L30.6689 66.1404C30.4387 66.2484 30.2248 66.3584 30.0089 66.4806L29.4325 61.3233C29.4325 61.3233 21.2077 57.6997 19.2544 61.3233C17.2969 64.9489 19.2544 66.2545 19.2544 66.2545L29.4875 66.8065C27.5729 68.0816 26.3467 70.0206 26.3467 72.2001V82.0686C26.3467 84.521 27.9008 86.6739 30.237 87.9143V94.5463C30.237 96.793 33.0051 98.6037 36.425 98.6037C39.8449 98.6037 42.6129 96.7869 42.6129 94.5463V89.0305H67.0124V94.5443C67.0124 96.7909 69.7825 98.6017 73.2003 98.6017C76.6222 98.6017 79.3882 96.7848 79.3882 94.5443V88.391C82.3111 87.2931 84.3398 84.8713 84.3398 82.0686V72.198C84.3398 70.0186 83.1116 68.0795 81.2031 66.8045L91.4362 66.2525C91.4362 66.2525 91.8497 64.9469 91.4362 61.3213C91.0247 57.6957 81.254 61.3233 81.254 61.3233ZM43.6823 80.1478H32.5142V74.8439H43.6823V80.1478ZM65.5275 80.3251H46.3954V78.0031H65.5275V80.3251ZM65.7189 77.3268H46.5909V75.0089H65.7189V77.3268ZM33.2862 64.6454C33.1171 64.6454 32.9481 64.6637 32.7831 64.6698L35.4392 54.0375C35.9321 51.023 39.2786 48.4178 42.5702 48.4178H68.1204C71.4079 48.4178 74.4224 50.5341 75.2494 54.0375L77.9034 64.6698C77.7384 64.6637 77.5673 64.6454 77.4023 64.6454H33.2862ZM79.7162 80.1478H68.5441V74.8439H79.7162V80.1478Z" fill="#1B9E76"/>
<path id="Vector_2" d="M55.3962 8.6709L0 32.225V101.331H11.8259V40.0852H98.1741V101.331H110V32.225L55.3962 8.6709Z" fill="#1B9E76"/>
</g>
</g>
</g>
<defs>
<clipPath id="clip0_1624_798">
<rect width="110" height="110" fill="white"/>
</clipPath>
</defs>
</svg>
