<svg width="111" height="107" viewBox="0 0 111 107" fill="none" xmlns="http://www.w3.org/2000/svg">
<path fill-rule="evenodd" clip-rule="evenodd" d="M93.864 68.3343L71.4797 79.9314L69.908 76.962L85.9058 68.6874L86.1135 68.5878C86.4831 68.3936 86.8106 68.1278 87.0769 67.8057C87.3432 67.4837 87.5431 67.1119 87.665 66.7119C87.7868 66.3119 87.8282 65.8916 87.7867 65.4754C87.7452 65.0592 87.6217 64.6555 87.4233 64.2875L86.6646 62.8571H86.7188L83.0422 56.0491L68.7607 29.0795L72.1301 27.3232L93.864 68.3343ZM100.35 76.1744H110.052C110.174 76.1742 110.295 76.199 110.408 76.2473C110.521 76.2956 110.622 76.3664 110.707 76.4553C110.791 76.5443 110.857 76.6495 110.899 76.7646C110.942 76.8797 110.961 77.0023 110.955 77.125V100.718C110.953 100.962 110.859 101.197 110.691 101.375C110.524 101.553 110.295 101.661 110.052 101.677H100.35C100.097 101.675 99.8545 101.573 99.6754 101.394C99.4963 101.214 99.3947 100.971 99.3923 100.718V77.125C99.3947 76.872 99.4967 76.6302 99.676 76.4522C99.8553 76.2742 100.097 76.1744 100.35 76.1744ZM96.2849 99.595V78.2928H86.7188C82.6628 79.0261 78.5889 81.2261 74.551 83.7881H67.1257C63.7564 83.9873 61.9949 87.4094 65.2649 89.6546C67.8755 91.5648 71.3081 91.4653 74.8311 91.1393C77.261 91.0217 77.3694 94.2899 74.8311 94.2989C73.9277 94.3713 73.0244 94.1631 72.1211 94.1631C67.7219 94.1631 64.1086 93.3121 61.8955 89.8357L60.7754 87.2283L49.7639 81.7421C44.2356 79.9314 40.3062 85.7165 44.344 89.7451C52.051 95.3726 60.293 100.224 68.9504 104.23C75.0479 107.951 81.1543 107.852 87.2427 104.23L96.2759 99.5679L96.2849 99.595ZM13.0891 8.61019C13.0627 8.23293 13.1612 7.85747 13.3691 7.54191C13.9563 6.75428 15.3564 6.98061 16.2598 6.98061C17.1923 7.00776 18.125 6.93492 19.042 6.76333C20.394 6.40932 21.7216 5.9678 23.0166 5.44156C26.386 4.22843 29.4121 3.33216 32.6279 2.1643C39.8545 -0.433975 37.6865 -0.995275 45.1028 2.1643C48.3047 3.52157 51.4156 5.08501 54.416 6.84481C54.8444 7.07776 55.242 7.36366 55.5994 7.69581C55.9525 8.05181 56.2563 8.45375 56.5027 8.89084C59.3391 13.0282 61.769 17.2198 64.0996 21.4114C64.8855 22.8871 65.2107 24.2813 64.6777 25.1595C62.4827 28.7808 58.5352 23.6295 54.2896 20.2164C52.4829 18.777 50.071 17.5005 47.9663 16.0429C45.2563 14.9203 44.0278 13.852 41.1462 13.2454C36.729 12.8652 36.3677 19.2206 42.176 19.4559C46.0693 19.6098 54.1992 23.1949 56.5117 26.4903C58.6436 29.5684 57.4692 32.5922 53.1333 32.4835L49.52 31.8045C43.7478 30.7181 43.9104 30.5009 37.9033 31.6235C34.6785 32.221 31.3001 32.8457 27.9668 32.221C25.9434 31.8498 24.8774 31.035 23.0708 29.6499C22.1891 28.8771 21.2259 28.2032 20.1982 27.6401C19.3725 27.1505 18.4855 26.773 17.5605 26.5175C16.1785 26.1825 14.2273 26.6533 13.4233 25.4582C13.2001 25.1035 13.084 24.6916 13.0891 24.2723V8.61019ZM0.90332 4.68109H9.93652C10.1761 4.68109 10.4059 4.77648 10.5753 4.94626C10.7447 5.11604 10.8398 5.34631 10.8398 5.58642V27.5676C10.8398 27.8077 10.7447 28.038 10.5753 28.2078C10.4059 28.3776 10.1761 28.473 9.93652 28.473H0.90332C0.663745 28.473 0.433982 28.3776 0.264576 28.2078C0.095171 28.038 0 27.8077 0 27.5676V5.57736C0 5.33726 0.095171 5.10698 0.264576 4.9372C0.433982 4.76742 0.663745 4.67204 0.90332 4.67204V4.68109ZM62.3291 45.9547C63.543 45.9529 64.7301 46.3122 65.7401 46.9869C66.7502 47.6617 67.5377 48.6217 68.0031 49.7453C68.4684 50.8689 68.5906 52.1056 68.3543 53.2989C68.1179 54.4921 67.5335 55.5883 66.6752 56.4485C65.8169 57.3088 64.7231 57.8944 63.5325 58.1313C62.3419 58.3682 61.1079 58.2457 59.9868 57.7793C58.8656 57.3129 57.9078 56.5236 57.2345 55.5114C56.5612 54.4991 56.2028 53.3094 56.2046 52.0928C56.207 50.4656 56.853 48.9058 58.0011 47.7552C59.1491 46.6046 60.7055 45.9571 62.3291 45.9547ZM65.1475 28.7536L84.9121 66.0981L61.0645 78.4648L39.6467 38.0965L47.1714 34.1946L47.4333 34.2489L52.6274 35.2176C52.7747 35.2314 52.9229 35.2314 53.0701 35.2176C54.0201 35.2545 54.9702 35.1477 55.8884 34.9007L49.0593 38.4858C49.5442 39.4235 49.6377 40.5157 49.3192 41.5225C49.0007 42.5292 48.2964 43.3679 47.3611 43.8544L60.8296 68.8141C61.7652 68.3282 62.855 68.2345 63.8595 68.5537C64.864 68.8728 65.7009 69.5787 66.1863 70.5161L75.617 65.6183C75.3771 65.1547 75.2307 64.6482 75.1862 64.1279C75.1418 63.6076 75.2001 63.0836 75.3578 62.5858C75.5155 62.0881 75.7696 61.6264 76.1054 61.2271C76.4413 60.8278 76.8524 60.4988 77.3152 60.2588L63.8557 35.3172C63.3919 35.5575 62.8854 35.7038 62.3652 35.7478C61.8449 35.7919 61.3211 35.7328 60.8237 35.5739C60.3262 35.415 59.8649 35.1594 59.466 34.8218C59.0672 34.4841 58.7386 34.0711 58.499 33.6061L58.3726 33.6786C58.9095 33.2282 59.3543 32.6779 59.6824 32.058C60.0857 31.2762 60.3051 30.4121 60.3237 29.5322C60.3453 29.2308 60.3453 28.9282 60.3237 28.6269C62.1304 29.5322 63.7112 29.6951 65.1565 28.7627L65.1475 28.7536Z" fill="#1B9E76"/>
</svg>
