<svg width="111" height="111" viewBox="0 0 111 111" fill="none" xmlns="http://www.w3.org/2000/svg">
<path d="M97.2158 49.5157C96.8586 49.5157 96.492 49.567 96.1254 49.6676L91.9823 50.8089L87.6808 40.3289C86.4617 37.3601 82.8591 34.9443 79.6499 34.9443H39.3878C36.1783 34.9443 32.5761 37.3601 31.3574 40.3289L27.0611 50.7942L22.9694 49.6672C22.6032 49.5666 22.2366 49.5153 21.8794 49.5153C19.9211 49.5153 18.5 51.0113 18.5 53.0719V55.5141C18.5 57.9196 20.4575 59.8771 22.8631 59.8771H23.3319L22.6374 61.5686C21.5051 64.3261 20.5834 68.9963 20.5834 71.9785V92.798C20.5834 95.2035 22.5409 97.161 24.9464 97.161H30.6446C33.0502 97.161 35.0077 95.2035 35.0077 92.798V87.5991H84.0297V92.798C84.0297 95.2035 85.9872 97.161 88.3927 97.161H94.0901C96.4957 97.161 98.4532 95.2035 98.4532 92.798V71.979C98.4532 68.9971 97.5314 64.3269 96.3991 61.5691L95.7047 59.8775H96.2317C98.6373 59.8775 100.595 57.92 100.595 55.5145V53.0723C100.595 51.0117 99.1737 49.5157 97.2158 49.5157ZM30.1888 57.5078L36.6968 41.6563C37.4258 39.8805 39.5927 38.4272 41.5123 38.4272H77.5254C79.4451 38.4272 81.6119 39.8801 82.341 41.6563L88.8489 57.5078C89.5776 59.2837 88.6037 60.7369 86.6841 60.7369H32.3541C30.434 60.7365 29.4602 59.2837 30.1888 57.5078ZM44.7162 77.5582C44.7162 78.5182 43.9305 79.3031 42.9713 79.3031H30.6088C29.6488 79.3031 28.8635 78.5178 28.8635 77.5582V71.6254C28.8635 70.6658 29.6488 69.8805 30.6088 69.8805H42.9713C43.9305 69.8805 44.7162 70.6658 44.7162 71.6254V77.5582ZM90.057 77.5582C90.057 78.5182 89.2713 79.3031 88.3121 79.3031H75.9496C74.9904 79.3031 74.2047 78.5178 74.2047 77.5582V71.6254C74.2047 70.6658 74.9904 69.8805 75.9496 69.8805H88.3121C89.2713 69.8805 90.057 70.6658 90.057 71.6254V77.5582Z" fill="#1B9E76"/>
<path d="M26.1217 0H5.45707C2.4479 0 0 2.44831 0 5.45707V26.1221C0 29.1313 2.44831 31.5796 5.45707 31.5796H13.7527V77.9602C13.7527 79.0852 14.6642 79.9967 15.7892 79.9967C16.9142 79.9967 17.8257 79.0852 17.8257 77.9602V31.58H26.1217C29.1309 31.58 31.5788 29.1317 31.5788 26.1225V5.45748C31.5788 2.44831 29.1309 0 26.1217 0ZM21.4414 17.1341C20.2528 18.2041 18.5022 18.7466 16.2384 18.7466H13.246C12.8867 18.7466 12.5943 19.0395 12.5943 19.3987V24.4448C12.5943 24.9931 12.1483 25.4386 11.6 25.4386H9.3338C8.78516 25.4386 8.33957 24.9926 8.33957 24.4448V7.13639C8.33957 6.58775 8.78557 6.14175 9.3338 6.14175H15.0426C18.8244 6.14175 20.2361 6.71157 21.3961 7.69603C22.6197 8.73425 23.2396 10.3244 23.2396 12.4232C23.2392 14.474 22.6348 16.0584 21.4414 17.1341Z" fill="#1B9E76"/>
<path d="M18.2025 10.3208C17.6502 9.90369 16.6731 9.69189 15.2988 9.69189H13.2464C12.8872 9.69189 12.5947 9.98434 12.5947 10.3432V14.4904C12.5947 14.8492 12.8872 15.1416 13.2464 15.1416H14.4761C14.9278 15.1416 15.6577 15.1082 16.1028 15.0671C16.535 15.0276 17.7549 14.8508 18.2025 14.5128C18.7397 14.1063 19.0122 13.4033 19.0122 12.4237C19.0122 11.4348 18.7397 10.7273 18.2025 10.3208Z" fill="#1B9E76"/>
</svg>
