<svg width="120" height="120" viewBox="0 0 120 120" fill="none" xmlns="http://www.w3.org/2000/svg">
<g id="cctv_svgrepo.com">
<path id="Vector" d="M104.58 47.82C104.844 47.2196 104.987 46.573 105.001 45.9172C105.015 45.2614 104.9 44.6093 104.662 43.9982C104.423 43.387 104.067 42.8289 103.613 42.3556C103.159 41.8823 102.616 41.5032 102.015 41.24L36.64 12.46C31.665 10.27 25.54 12.715 23.415 17.67L12.365 43.44C11.3254 45.8776 11.2954 48.6281 12.2816 51.0878C13.2677 53.5475 15.1894 55.5156 17.625 56.56L47.815 69.5L41.615 85H20V70H10V110H20V95H41.615C45.73 95 49.375 92.53 50.895 88.71L57.005 73.44L83.03 84.59C84.242 85.1101 85.6104 85.1302 86.8372 84.6461C88.064 84.1619 89.0499 83.2126 89.58 82.005L91.14 78.455L99.645 81.855L109.645 56.855L101.965 53.79L104.58 47.82ZM82.41 73.45L21.565 47.375L32.605 21.615L93.415 48.385L82.41 73.45Z" fill="#1B9E76"/>
</g>
</svg>
