<svg width="22" height="22" viewBox="0 0 22 22" fill="none" xmlns="http://www.w3.org/2000/svg">
<g clip-path="url(#clip0_5829_328)">
<path d="M10.2928 5.22788V4.21275C10.1694 4.16648 10.0497 4.11081 9.93473 4.04624C9.4847 3.77911 9.14576 3.35903 8.97977 2.86271C8.81378 2.36638 8.83182 1.82692 9.0306 1.34279C9.14106 1.07878 9.30156 0.838634 9.50326 0.635599C9.70434 0.434486 9.94274 0.274542 10.2051 0.164734C10.4694 0.054787 10.7531 -0.00121444 11.0394 1.99712e-05C11.4695 -4.06607e-05 11.89 0.127518 12.2476 0.366547C12.6052 0.605576 12.8838 0.945329 13.0482 1.34279C13.2677 1.87424 13.2677 2.47102 13.0482 3.00246C12.9388 3.26652 12.7781 3.50627 12.5755 3.70786L12.5648 3.71861C12.4373 3.84401 12.2955 3.95397 12.1423 4.04624C12.0286 4.11333 11.9087 4.1691 11.7842 4.21275V5.22788H16.8831C17.6149 5.23025 18.316 5.52211 18.8333 6.03973C19.3506 6.55734 19.642 7.25864 19.6439 7.99042V8.40041H20.5892C20.9642 8.40183 21.3234 8.55154 21.5884 8.81687C21.8534 9.0822 22.0026 9.4416 22.0036 9.81659V13.1055C22.0026 13.4805 21.8534 13.8399 21.5884 14.1052C21.3234 14.3705 20.9642 14.5203 20.5892 14.5217H19.6493V14.8923C19.6469 15.6248 19.3546 16.3267 18.8362 16.8443C18.3179 17.362 17.6157 17.6534 16.8831 17.6548H9.88818L5.69515 21.2552C5.64893 21.2949 5.5953 21.3251 5.53737 21.344C5.47944 21.3629 5.41834 21.3701 5.3576 21.3653C5.29686 21.3605 5.23767 21.3437 5.18345 21.3159C5.12923 21.2881 5.08104 21.2498 5.04167 21.2033C4.96292 21.1115 4.92253 20.9929 4.92887 20.8721L5.15267 17.6494H5.11507C4.38424 17.6475 3.68386 17.3565 3.16692 16.8399C2.64997 16.3233 2.35848 15.6231 2.35612 14.8923V14.5217H1.41618C1.04088 14.5207 0.681214 14.3712 0.415833 14.1058C0.150453 13.8405 0.000945353 13.4808 0 13.1055L0 9.81659C0.000943085 9.4416 0.150205 9.0822 0.415199 8.81687C0.680193 8.55154 1.0394 8.40183 1.41439 8.40041H2.35612V7.98863C2.35754 7.25718 2.64861 6.55607 3.16566 6.03869C3.6827 5.5213 4.38362 5.22978 5.11507 5.22788H10.2928ZM14.8135 8.47203C15.1449 8.47203 15.4689 8.57031 15.7445 8.75445C16.0201 8.93858 16.2349 9.2003 16.3617 9.50651C16.4885 9.81272 16.5217 10.1497 16.4571 10.4747C16.3924 10.7998 16.2328 11.0984 15.9984 11.3328C15.7641 11.5671 15.4655 11.7267 15.1404 11.7914C14.8153 11.8561 14.4784 11.8229 14.1722 11.696C13.866 11.5692 13.6043 11.3544 13.4201 11.0788C13.236 10.8032 13.1377 10.4792 13.1377 10.1478C13.1377 9.70336 13.3143 9.27712 13.6285 8.96285C13.9428 8.64858 14.369 8.47203 14.8135 8.47203ZM7.1901 8.47203C7.52154 8.47203 7.84554 8.57031 8.12112 8.75445C8.3967 8.93858 8.61149 9.2003 8.73833 9.50651C8.86516 9.81272 8.89835 10.1497 8.83369 10.4747C8.76903 10.7998 8.60942 11.0984 8.37506 11.3328C8.1407 11.5671 7.8421 11.7267 7.51703 11.7914C7.19196 11.8561 6.85502 11.8229 6.54881 11.696C6.2426 11.5692 5.98088 11.3544 5.79674 11.0788C5.61261 10.8032 5.51432 10.4792 5.51432 10.1478C5.51432 9.70336 5.69088 9.27712 6.00515 8.96285C6.31942 8.64858 6.74566 8.47203 7.1901 8.47203ZM8.33236 14.0866C8.30708 14.0667 8.28424 14.0439 8.26432 14.0186C8.2063 13.9505 8.17343 13.8645 8.17122 13.7751C8.1696 13.6852 8.19865 13.5974 8.25358 13.5262C8.27409 13.5003 8.29753 13.4769 8.32341 13.4564C8.42189 13.3788 8.54298 13.3354 8.66834 13.3328C8.79369 13.3302 8.91647 13.3686 9.01807 13.4421C9.32403 13.6835 9.66361 13.8789 10.026 14.0222C10.3383 14.1429 10.6706 14.2037 11.0054 14.2012C11.3444 14.194 11.6795 14.1273 11.9954 14.0043C12.3622 13.8576 12.7083 13.6638 13.0249 13.4278C13.1288 13.3569 13.2529 13.3218 13.3785 13.3276C13.5041 13.3334 13.6244 13.3798 13.7214 13.46C13.7456 13.4824 13.7678 13.5069 13.7876 13.5334C13.8402 13.6061 13.8667 13.6944 13.8628 13.784C13.8552 13.8737 13.8187 13.9585 13.759 14.0257C13.7362 14.0516 13.7104 14.0744 13.682 14.0938C13.2793 14.3914 12.8378 14.6323 12.3696 14.8099C11.9384 14.9725 11.4823 15.0591 11.0215 15.0659C10.5601 15.0724 10.1015 14.9947 9.66797 14.8368C9.19017 14.658 8.74272 14.4068 8.34131 14.092L8.33236 14.0866ZM16.8813 6.15887H5.11507C4.63006 6.16076 4.16548 6.35439 3.8227 6.69752C3.47991 7.04064 3.28673 7.50541 3.28532 7.99042V14.8923C3.28673 15.3773 3.47991 15.8421 3.8227 16.1852C4.16548 16.5283 4.63006 16.7219 5.11507 16.7238H5.68262C5.80536 16.733 5.91952 16.7902 6.0003 16.8831C6.08109 16.9759 6.12198 17.0969 6.1141 17.2197L5.93506 19.8301L9.39046 16.8563C9.43344 16.8133 9.48454 16.7793 9.54079 16.7562C9.59704 16.7332 9.65731 16.7216 9.7181 16.722H16.8796C17.3646 16.7201 17.8291 16.5265 18.1719 16.1834C18.5147 15.8403 18.7079 15.3755 18.7093 14.8905V7.98863C18.7084 7.50395 18.5155 7.03936 18.173 6.69647C17.8304 6.35358 17.366 6.16029 16.8813 6.15887Z" fill="white"/>
</g>
<defs>
<clipPath id="clip0_5829_328">
<rect width="22" height="21.368" fill="white"/>
</clipPath>
</defs>
</svg>
