<?xml version="1.0" encoding="UTF-8" standalone="no"?>
<!DOCTYPE svg PUBLIC "-//W3C//DTD SVG 1.1//EN" "http://www.w3.org/Graphics/SVG/1.1/DTD/svg11.dtd">
<svg xmlns="http://www.w3.org/2000/svg" version="1.1" viewBox="0.00 0.00 350.00 331.00">
<g stroke-width="2.00" fill="none" stroke-linecap="butt">
<path stroke="#a2adb2" vector-effect="non-scaling-stroke" d="
  M 114.75 25.40
  L 55.26 25.61
  Q 54.71 25.61 54.40 26.06
  L 27.67 64.99"
/>
<path stroke="#93999c" vector-effect="non-scaling-stroke" d="
  M 27.67 64.99
  Q 27.26 65.57 27.41 66.19
  Q 27.56 66.78 28.16 66.78
  L 47.26 66.88
  A 0.50 0.49 90.0 0 1 47.75 67.38
  L 47.76 78.09"
/>
<path stroke="#80d994" vector-effect="non-scaling-stroke" d="
  M 47.76 78.09
  L 29.65 78.14
  Q 29.08 78.14 29.08 78.72
  L 29.00 100.74"
/>
<path stroke="#f8fffd" vector-effect="non-scaling-stroke" d="
  M 29.00 100.74
  Q 27.21 100.16 26.80 101.00
  Q 4.04 146.98 11.89 197.99
  Q 12.72 203.39 15.58 209.68"
/>
<path stroke="#a8adb0" vector-effect="non-scaling-stroke" d="
  M 15.58 209.68
  Q 13.64 224.23 18.09 238.43
  Q 20.99 247.70 27.55 251.49"
/>
<path stroke="#93999c" vector-effect="non-scaling-stroke" d="
  M 27.55 251.49
  Q 30.29 252.64 32.54 252.40"
/>
<path stroke="#f8fffd" vector-effect="non-scaling-stroke" d="
  M 32.54 252.40
  Q 32.51 254.09 33.44 255.54
  Q 64.91 304.91 120.84 322.98
  A 1.82 1.82 0.0 0 0 123.19 321.57
  L 123.62 319.21
  Q 123.75 318.48 123.05 318.26
  Q 69.39 300.98 38.84 253.88
  Q 37.99 252.57 39.54 252.40
  L 40.91 252.25"
/>
<path stroke="#93999c" vector-effect="non-scaling-stroke" d="
  M 40.91 252.25
  Q 48.74 253.69 52.94 249.44
  Q 58.56 243.75 60.53 234.50"
/>
<path stroke="#80d994" vector-effect="non-scaling-stroke" d="
  M 60.53 234.50
  L 66.24 234.70"
/>
<path stroke="#f8fffd" vector-effect="non-scaling-stroke" d="
  M 66.24 234.70
  Q 88.71 269.90 126.71 283.81
  C 146.92 291.22 170.19 292.76 190.99 288.50
  Q 235.06 279.50 262.94 243.18
  Q 267.50 237.24 269.92 231.61"
/>
<path stroke="#93999c" vector-effect="non-scaling-stroke" d="
  M 269.92 231.61
  L 272.24 231.52
  Q 272.76 231.50 272.90 231.99
  C 275.20 240.10 280.36 247.73 288.32 251.07
  C 293.30 253.16 300.44 252.39 306.08 252.41
  Q 313.59 252.43 317.01 251.16
  C 324.92 248.21 330.28 239.90 332.54 232.03
  A 0.75 0.73 -81.4 0 1 333.24 231.50
  L 338.75 231.50
  Q 339.28 231.50 339.29 230.97
  L 339.34 223.38"
/>
<path stroke="#ffe49f" vector-effect="non-scaling-stroke" d="
  M 339.34 223.38
  L 339.13 219.03"
/>
<path stroke="#93999c" vector-effect="non-scaling-stroke" d="
  M 339.13 219.03
  Q 339.54 206.34 337.60 194.40"
/>
<path stroke="#ffe49f" vector-effect="non-scaling-stroke" d="
  M 337.60 194.40
  L 336.50 186.29"
/>
<path stroke="#93999c" vector-effect="non-scaling-stroke" d="
  M 336.50 186.29
  L 335.23 180.87"
/>
<path stroke="#ffe49f" vector-effect="non-scaling-stroke" d="
  M 335.23 180.87
  L 334.56 178.59"
/>
<path stroke="#93999c" vector-effect="non-scaling-stroke" d="
  M 334.56 178.59
  L 332.25 173.53"
/>
<path stroke="#ffe49f" vector-effect="non-scaling-stroke" d="
  M 332.25 173.53
  Q 329.51 170.44 325.63 168.67"
/>
<path stroke="#f8fffd" vector-effect="non-scaling-stroke" d="
  M 325.63 168.67
  Q 322.96 107.22 282.01 63.64
  Q 275.16 56.36 267.36 50.06
  Q 214.28 7.19 143.11 16.48
  Q 127.11 18.56 114.75 25.40"
/>
<path stroke="#f8e49d" vector-effect="non-scaling-stroke" d="
  M 325.63 168.67
  L 319.87 166.11"
/>
<path stroke="#f8fffd" vector-effect="non-scaling-stroke" d="
  M 319.87 166.11
  Q 318.39 128.62 300.39 97.10
  Q 276.13 54.65 231.07 33.67
  Q 181.44 10.57 126.60 25.27
  Q 123.29 26.16 120.42 27.91"
/>
<path stroke="#8b9999" vector-effect="non-scaling-stroke" d="
  M 120.42 27.91
  L 119.37 25.81"
/>
<path stroke="#9badaf" vector-effect="non-scaling-stroke" d="
  M 119.37 25.81
  L 114.75 25.40"
/>
<path stroke="#937e3c" vector-effect="non-scaling-stroke" d="
  M 117.11 120.52
  L 119.24 123.62
  Q 119.67 124.26 118.90 124.22
  L 118.41 124.19"
/>
<path stroke="#a89250" vector-effect="non-scaling-stroke" d="
  M 118.41 124.19
  L 99.55 124.23"
/>
<path stroke="#937e3c" vector-effect="non-scaling-stroke" d="
  M 99.55 124.23
  Q 91.28 124.13 83.78 124.16
  Q 79.73 124.18 76.35 125.31
  Q 64.66 129.21 54.53 136.33
  C 51.65 138.36 51.09 142.12 51.48 145.24
  Q 52.57 153.93 61.30 156.24"
/>
<path stroke="#a89250" vector-effect="non-scaling-stroke" d="
  M 61.30 156.24
  L 83.82 156.37"
/>
<path stroke="#937e3c" vector-effect="non-scaling-stroke" d="
  M 83.82 156.37
  L 89.16 156.37"
/>
<path stroke="#a89250" vector-effect="non-scaling-stroke" d="
  M 89.16 156.37
  L 109.50 156.34"
/>
<path stroke="#937e3c" vector-effect="non-scaling-stroke" d="
  M 109.50 156.34
  L 115.26 161.25
  Q 115.70 161.63 116.13 161.23
  Q 118.18 159.32 117.54 156.35"
/>
<path stroke="#a89250" vector-effect="non-scaling-stroke" d="
  M 117.54 156.35
  L 142.50 156.45"
/>
<path stroke="#937e3c" vector-effect="non-scaling-stroke" d="
  M 142.50 156.45
  L 226.04 156.47"
/>
<path stroke="#80a32e" vector-effect="non-scaling-stroke" d="
  M 226.04 156.47
  L 259.96 156.53"
/>
<path stroke="#937e3c" vector-effect="non-scaling-stroke" d="
  M 259.96 156.53
  Q 269.23 156.55 278.51 156.39
  Q 278.71 156.39 278.81 156.31
  Q 278.97 156.20 278.99 156.02"
/>
<path stroke="#937e3c" vector-effect="non-scaling-stroke" d="
  M 332.25 173.53
  L 322.68 178.04
  Q 321.63 178.53 322.79 178.54
  L 334.56 178.59"
/>
<path stroke="#937e3c" vector-effect="non-scaling-stroke" d="
  M 335.23 180.87
  L 322.79 180.96
  A 0.46 0.45 65.1 0 0 322.50 181.76
  L 327.43 185.99
  Q 327.88 186.38 328.46 186.37
  L 336.50 186.29"
/>
<path stroke="#937e3c" vector-effect="non-scaling-stroke" d="
  M 337.60 194.40
  L 335.36 207.86
  Q 335.27 208.36 334.76 208.36
  L 198.26 208.36
  A 1.64 1.60 70.2 0 1 197.00 207.75
  L 184.31 191.72
  A 0.38 0.38 0.0 0 0 183.63 191.96
  L 183.63 217.72
  Q 183.63 218.25 184.15 218.25
  Q 185.94 218.25 187.75 218.27
  C 192.48 218.32 194.79 214.28 199.73 214.25
  Q 211.71 214.20 223.78 214.27
  Q 224.37 214.28 224.03 214.76
  L 221.01 219.09
  A 0.42 0.42 0.0 0 0 221.35 219.75
  L 330.99 219.75
  Q 332.24 219.75 331.25 219.00
  L 325.82 214.88
  A 0.35 0.34 -26.6 0 1 326.03 214.26
  L 335.01 214.24
  A 0.77 0.76 -8.8 0 1 335.74 214.77
  Q 336.84 218.10 339.13 219.03"
/>
<path stroke="#937e3c" vector-effect="non-scaling-stroke" d="
  M 339.34 223.38
  L 170.66 223.37
  Q 170.13 223.37 170.11 222.84
  L 170.01 218.76"
/>
<path stroke="#a89250" vector-effect="non-scaling-stroke" d="
  M 170.01 218.76
  Q 168.72 202.49 161.86 189.68"
/>
<path stroke="#937e3c" vector-effect="non-scaling-stroke" d="
  M 161.86 189.68
  C 150.62 170.74 136.51 181.19 131.31 196.44"
/>
<path stroke="#a89250" vector-effect="non-scaling-stroke" d="
  M 131.31 196.44
  Q 126.55 208.93 126.08 223.42"
/>
<path stroke="#937e3c" vector-effect="non-scaling-stroke" d="
  M 126.08 223.42
  Q 91.23 223.26 57.03 223.46
  Q 54.05 223.47 51.11 224.41
  Q 48.33 225.29 45.33 226.20"
/>
<path stroke="#a89250" vector-effect="non-scaling-stroke" d="
  M 45.33 226.20
  Q 45.61 206.58 39.59 190.28"
/>
<path stroke="#937e3c" vector-effect="non-scaling-stroke" d="
  M 39.59 190.28
  C 37.52 185.02 32.04 174.96 24.92 181.57
  Q 20.38 185.77 18.93 192.09"
/>
<path stroke="#937e3c" vector-effect="non-scaling-stroke" d="
  M 14.90 181.10
  Q 18.92 175.15 22.25 169.21
  C 25.79 162.89 20.07 160.90 15.05 161.13"
/>
<path stroke="#36464e" vector-effect="non-scaling-stroke" d="
  M 119.37 25.81
  L 92.83 64.51
  Q 92.54 64.94 92.02 64.94
  L 27.67 64.99"
/>
<path stroke="#13582a" vector-effect="non-scaling-stroke" d="
  M 100.89 78.10
  L 98.24 78.15"
/>
<path stroke="#93999c" vector-effect="non-scaling-stroke" d="
  M 98.24 78.15
  L 98.23 60.93
  Q 98.23 60.18 97.80 60.79
  L 93.84 66.45
  Q 93.55 66.87 93.03 66.87
  L 56.99 66.80"
/>
<path stroke="#8b9999" vector-effect="non-scaling-stroke" d="
  M 56.99 66.80
  L 50.32 66.87
  Q 49.79 66.88 49.80 67.40
  L 49.93 74.24"
/>
<path stroke="#93999c" vector-effect="non-scaling-stroke" d="
  M 49.93 74.24
  L 49.77 78.12"
/>
<path stroke="#137230" vector-effect="non-scaling-stroke" d="
  M 49.77 78.12
  L 47.76 78.09"
/>
<path stroke="#ffe49f" vector-effect="non-scaling-stroke" d="
  M 319.87 166.11
  Q 301.55 160.20 285.22 157.01"
/>
<path stroke="#f8fffd" vector-effect="non-scaling-stroke" d="
  M 285.22 157.01
  Q 283.03 136.33 273.63 118.34
  C 258.57 89.53 233.83 68.16 202.54 58.42
  A 0.72 0.71 -73.4 0 0 201.63 58.92
  L 200.71 62.34
  A 1.08 1.08 0.0 0 0 201.39 63.63
  Q 259.15 84.06 276.66 141.58
  Q 277.52 144.43 278.32 148.73
  Q 279.00 152.35 279.79 155.93"
/>
<path stroke="#ffe49f" vector-effect="non-scaling-stroke" d="
  M 279.79 155.93
  L 278.99 156.02"
/>
<path stroke="#93999c" vector-effect="non-scaling-stroke" d="
  M 278.99 156.02
  L 275.64 153.58
  Q 275.22 153.27 275.60 152.93
  Q 278.91 149.99 276.25 145.72
  C 272.85 140.27 267.01 142.55 261.98 143.55
  Q 261.47 143.65 261.04 143.35
  Q 245.86 132.51 230.51 121.97
  Q 227.24 119.72 223.50 119.76"
/>
<path stroke="#80be8e" vector-effect="non-scaling-stroke" d="
  M 223.50 119.76
  L 219.33 119.69"
/>
<path stroke="#f8fffd" vector-effect="non-scaling-stroke" d="
  M 219.33 119.69
  Q 218.43 118.91 217.57 117.56
  Q 216.71 116.22 215.81 115.48
  Q 191.82 95.72 161.00 97.82
  Q 138.83 99.33 119.32 114.00"
/>
<path stroke="#80be8e" vector-effect="non-scaling-stroke" d="
  M 119.32 114.00
  L 119.27 78.60
  A 0.49 0.49 0.0 0 0 118.78 78.11
  L 100.89 78.10"
/>
<path stroke="#93999c" vector-effect="non-scaling-stroke" d="
  M 100.89 78.10
  Q 100.84 68.56 100.91 59.19
  C 100.92 57.76 100.65 56.52 101.52 55.29
  Q 111.06 41.80 120.42 27.91"
/>
<path stroke="#3c474c" vector-effect="non-scaling-stroke" d="
  M 170.01 218.76
  Q 169.30 218.78 169.05 219.24"
/>
<path stroke="#a8adb0" vector-effect="non-scaling-stroke" d="
  M 169.05 219.24
  C 169.21 209.75 165.46 199.61 157.21 194.74
  C 147.82 189.20 138.19 195.32 133.97 204.18
  Q 131.07 210.26 130.73 217.99
  C 130.30 227.59 134.77 239.96 144.45 243.70
  C 150.30 245.96 156.84 244.39 161.11 239.86
  Q 165.45 235.26 167.58 229.18"
/>
<path stroke="#3c474c" vector-effect="non-scaling-stroke" d="
  M 167.58 229.18
  Q 169.26 228.41 169.18 225.00
  Q 169.17 224.28 169.86 224.35
  Q 170.16 224.39 170.17 224.68
  L 170.35 230.99
  Q 170.38 231.77 171.13 231.57
  Q 171.33 231.51 171.53 231.48
  Q 172.14 231.36 171.97 231.96
  Q 167.70 246.91 153.06 251.57
  A 0.38 0.38 0.0 0 0 153.02 252.27
  Q 153.37 252.44 153.99 252.32"
/>
<path stroke="#a8adb0" vector-effect="non-scaling-stroke" d="
  M 153.99 252.32
  Q 143.89 253.54 136.69 247.57
  Q 129.25 241.39 126.48 231.39"
/>
<path stroke="#3c474c" vector-effect="non-scaling-stroke" d="
  M 126.48 231.39
  L 126.08 223.42"
/>
<path stroke="#009822" vector-effect="non-scaling-stroke" d="
  M 91.02 78.13
  L 91.05 119.79"
/>
<path stroke="#80be34" vector-effect="non-scaling-stroke" d="
  M 91.05 119.79
  Q 84.98 119.35 79.29 120.34
  Q 79.03 120.38 78.85 120.18
  Q 78.71 120.01 78.59 120.03"
/>
<path stroke="#80d994" vector-effect="non-scaling-stroke" d="
  M 78.59 120.03
  L 78.57 95.32
  Q 78.57 94.77 78.01 94.77
  L 43.50 94.77
  Q 43.01 94.77 43.01 95.25
  L 43.01 134.49
  A 0.48 0.48 0.0 0 0 43.49 134.97
  L 50.74 135.02"
/>
<path stroke="#80be34" vector-effect="non-scaling-stroke" d="
  M 50.74 135.02
  L 28.98 152.55"
/>
<path stroke="#80d994" vector-effect="non-scaling-stroke" d="
  M 28.98 152.55
  L 28.88 109.53"
/>
<path stroke="#78d991" vector-effect="non-scaling-stroke" d="
  M 28.88 109.53
  L 29.00 100.74"
/>
<path stroke="#ffe49f" vector-effect="non-scaling-stroke" d="
  M 78.59 120.03
  Q 78.59 120.18 78.56 120.32
  Q 78.51 120.46 78.37 120.50
  Q 69.93 122.66 62.32 126.88"
/>
<path stroke="#80d994" vector-effect="non-scaling-stroke" d="
  M 62.32 126.88
  L 60.66 119.49
  Q 60.56 119.05 61.01 119.04
  L 67.41 118.95
  Q 68.04 118.94 67.80 118.35
  L 61.87 103.67
  A 0.74 0.74 0.0 0 0 61.17 103.21
  L 54.27 103.39
  Q 53.57 103.41 53.95 104.00
  L 60.68 114.44
  Q 61.02 114.96 60.39 114.97
  L 55.80 115.00
  Q 55.23 115.01 55.49 115.52
  L 61.43 127.41"
/>
<path stroke="#ffe49f" vector-effect="non-scaling-stroke" d="
  M 61.43 127.41
  L 50.74 135.02"
/>
<path stroke="#3c474c" vector-effect="non-scaling-stroke" d="
  M 117.54 156.35
  L 115.24 154.29
  Q 114.66 153.76 115.42 153.58
  Q 119.63 152.59 119.05 149.40"
/>
<path stroke="#7ead30" vector-effect="non-scaling-stroke" d="
  M 119.05 149.40
  Q 117.83 142.81 112.81 142.61
  Q 102.33 142.20 94.19 149.05"
/>
<path stroke="#3c474c" vector-effect="non-scaling-stroke" d="
  M 94.19 149.05
  Q 94.49 151.10 95.12 152.09
  Q 95.68 152.99 97.73 153.00
  Q 101.97 153.03 106.27 153.04
  Q 108.17 153.04 109.50 156.34"
/>
<path stroke="#93999c" vector-effect="non-scaling-stroke" d="
  M 126.48 231.39
  L 119.17 231.54"
/>
<path stroke="#13582a" vector-effect="non-scaling-stroke" d="
  M 119.17 231.54
  L 91.26 231.53"
/>
<path stroke="#137230" vector-effect="non-scaling-stroke" d="
  M 91.26 231.53
  L 62.09 231.52
  Q 61.55 231.52 61.27 231.98
  Q 60.68 232.95 60.53 234.50"
/>
<path stroke="#8b9999" vector-effect="non-scaling-stroke" d="
  M 40.91 252.25
  L 32.54 252.40"
/>
<path stroke="#8b9999" vector-effect="non-scaling-stroke" d="
  M 269.92 231.61
  L 264.09 231.52"
/>
<path stroke="#93999c" vector-effect="non-scaling-stroke" d="
  M 264.09 231.52
  L 190.33 231.51
  Q 189.93 231.51 189.82 231.89
  C 186.98 241.73 178.80 251.70 168.01 252.37
  Q 164.90 252.56 153.99 252.32"
/>
<path stroke="#f8fffd" vector-effect="non-scaling-stroke" d="
  M 28.88 109.53
  Q 26.41 114.36 24.05 121.26
  Q 17.77 139.65 15.92 157.50
  Q 15.86 158.06 17.01 158.36"
/>
<path stroke="#f8e49d" vector-effect="non-scaling-stroke" d="
  M 17.01 158.36
  L 15.05 161.13"
/>
<path stroke="#8b9999" vector-effect="non-scaling-stroke" d="
  M 15.05 161.13
  L 14.90 181.10"
/>
<path stroke="#f8e49d" vector-effect="non-scaling-stroke" d="
  M 14.90 181.10
  L 14.89 202.76
  A 0.42 0.42 0.0 0 0 15.73 202.83
  Q 16.62 197.08 18.93 192.09"
/>
<path stroke="#8b9999" vector-effect="non-scaling-stroke" d="
  M 18.93 192.09
  L 19.53 194.55"
/>
<path stroke="#a1adad" vector-effect="non-scaling-stroke" d="
  M 19.53 194.55
  Q 16.82 202.00 15.58 209.68"
/>
<path stroke="#78be8b" vector-effect="non-scaling-stroke" d="
  M 119.32 114.00
  L 119.28 119.05
  Q 119.27 119.64 119.86 119.65
  L 123.46 119.70"
/>
<path stroke="#80be8e" vector-effect="non-scaling-stroke" d="
  M 123.46 119.70
  L 212.51 119.60"
/>
<path stroke="#78be8b" vector-effect="non-scaling-stroke" d="
  M 212.51 119.60
  L 219.33 119.69"
/>
<path stroke="#13582a" vector-effect="non-scaling-stroke" d="
  M 223.50 119.76
  Q 223.08 119.94 223.45 120.60"
/>
<path stroke="#80a32e" vector-effect="non-scaling-stroke" d="
  M 223.45 120.60
  L 118.29 120.58"
/>
<path stroke="#13582a" vector-effect="non-scaling-stroke" d="
  M 118.29 120.58
  Q 117.96 120.15 117.11 120.52"
/>
<path stroke="#80a32e" vector-effect="non-scaling-stroke" d="
  M 117.11 120.52
  L 116.83 120.15
  Q 116.54 119.76 116.05 119.76
  L 91.05 119.79"
/>
<path stroke="#3c474c" vector-effect="non-scaling-stroke" d="
  M 99.55 124.23
  Q 91.15 139.64 89.16 156.37"
/>
<path stroke="#3c474c" vector-effect="non-scaling-stroke" d="
  M 83.82 156.37
  Q 84.65 139.78 93.02 125.44
  Q 93.29 124.97 92.75 124.91
  Q 84.11 123.96 79.61 125.09
  C 76.11 125.96 53.80 134.31 52.60 140.22
  Q 50.44 150.92 61.30 156.24"
/>
<path stroke="#80be34" vector-effect="non-scaling-stroke" d="
  M 62.32 126.88
  L 61.43 127.41"
/>
<path stroke="#3c474c" vector-effect="non-scaling-stroke" d="
  M 45.33 226.20
  Q 45.91 237.61 38.91 247.15
  Q 35.16 252.27 27.55 251.49"
/>
<path stroke="#13582a" vector-effect="non-scaling-stroke" d="
  M 259.96 156.53
  Q 259.18 156.81 259.47 155.79"
/>
<path stroke="#93999c" vector-effect="non-scaling-stroke" d="
  M 259.47 155.79
  C 247.96 145.70 235.73 136.77 220.88 132.36
  Q 217.90 131.47 209.49 131.61
  Q 208.99 131.61 209.28 132.02
  L 226.22 155.78"
/>
<path stroke="#13582a" vector-effect="non-scaling-stroke" d="
  M 226.22 155.78
  Q 226.64 155.84 226.04 156.47"
/>
<path stroke="#3c474c" vector-effect="non-scaling-stroke" d="
  M 142.50 156.45
  L 120.24 125.40
  A 1.28 1.27 77.7 0 0 119.47 124.90
  Q 118.70 124.73 118.41 124.19"
/>
<path stroke="#937e3c" vector-effect="non-scaling-stroke" d="
  M 118.29 120.58
  L 120.49 123.77
  Q 120.82 124.25 121.40 124.25
  L 231.27 124.25
  Q 231.95 124.25 231.47 123.76
  Q 228.37 120.57 223.45 120.60"
/>
<path stroke="#ffe49f" vector-effect="non-scaling-stroke" d="
  M 28.98 152.55
  Q 25.13 155.17 20.32 156.33
  Q 19.22 156.60 17.01 158.36"
/>
<path stroke="#3c474c" vector-effect="non-scaling-stroke" d="
  M 39.59 190.28
  Q 33.06 183.88 28.05 186.46
  Q 23.82 188.64 20.69 194.59
  Q 20.44 195.06 19.93 194.90
  Q 19.64 194.80 19.53 194.55"
/>
<path stroke="#3c474c" vector-effect="non-scaling-stroke" d="
  M 161.86 189.68
  Q 152.59 184.12 144.59 186.56
  Q 137.81 188.63 131.31 196.44"
/>
<path stroke="#f8e49d" vector-effect="non-scaling-stroke" d="
  M 285.22 157.01
  L 279.79 155.93"
/>
<path stroke="#80be8e" vector-effect="non-scaling-stroke" d="
  M 98.24 78.15
  L 91.02 78.13"
/>
<path stroke="#80d994" vector-effect="non-scaling-stroke" d="
  M 91.02 78.13
  L 49.77 78.12"
/>
<path stroke="#f8fffd" vector-effect="non-scaling-stroke" d="
  M 49.93 74.24
  Q 54.09 71.61 56.99 66.80"
/>
<path stroke="#f8fffd" vector-effect="non-scaling-stroke" d="
  M 212.51 119.60
  Q 190.68 101.58 163.67 102.87
  C 148.73 103.58 134.84 108.82 122.97 117.89
  A 1.20 1.20 0.0 0 0 122.68 119.48
  Q 122.74 119.59 123.46 119.70"
/>
<path stroke="#f8fffd" vector-effect="non-scaling-stroke" d="
  M 264.09 231.52
  Q 236.91 273.67 187.72 283.64
  C 144.85 292.33 98.70 272.38 74.18 236.53
  Q 73.80 235.98 73.77 235.46
  Q 73.72 234.48 74.22 234.31"
/>
<path stroke="#93999c" vector-effect="non-scaling-stroke" d="
  M 169.05 219.24
  L 167.58 229.18"
/>
<path stroke="#68991c" vector-effect="non-scaling-stroke" d="
  M 119.05 149.40
  L 94.19 149.05"
/>
<path stroke="#009822" vector-effect="non-scaling-stroke" d="
  M 91.26 231.53
  L 90.75 234.11"
/>
<path stroke="#80d994" vector-effect="non-scaling-stroke" d="
  M 90.75 234.11
  L 74.22 234.31"
/>
<path stroke="#78d991" vector-effect="non-scaling-stroke" d="
  M 74.22 234.31
  L 66.24 234.70"
/>
<path stroke="#80be8e" vector-effect="non-scaling-stroke" d="
  M 119.17 231.54
  Q 119.41 232.58 119.24 233.28
  Q 119.11 233.81 118.56 233.82
  L 90.75 234.11"
/>
<path stroke="#80be8e" vector-effect="non-scaling-stroke" d="
  M 259.47 155.79
  L 226.22 155.78"
/>
<path stroke="#a2adb2" vector-effect="non-scaling-stroke" d="
  M 96.50 29.49
  L 74.65 60.42
  Q 74.38 60.80 74.77 60.54
  Q 75.29 60.19 75.65 59.66
  Q 80.03 53.15 85.16 46.17
  A 1.51 1.49 17.6 0 1 86.35 45.56
  L 100.30 45.46"
/>
<path stroke="#4b5b62" vector-effect="non-scaling-stroke" d="
  M 100.30 45.46
  L 104.18 45.72
  A 0.25 0.24 52.7 0 0 104.24 45.24
  Q 102.38 44.83 100.20 45.35"
/>
<path stroke="#a2adb2" vector-effect="non-scaling-stroke" d="
  M 100.20 45.35
  L 86.73 45.19
  A 0.54 0.53 -72.3 0 1 86.30 44.35
  L 96.50 29.49"
/>
<path stroke="#a2adb2" vector-effect="non-scaling-stroke" d="
  M 96.50 29.49
  L 98.03 27.70
  Q 98.13 27.59 98.13 27.50
  Q 98.13 27.37 98.13 27.25
  Q 98.13 27.16 97.99 27.29
  Q 96.90 28.28 96.50 29.49"
/>
<path stroke="#a8adb0" vector-effect="non-scaling-stroke" d="
  M 100.20 45.35
  Q 100.25 45.41 100.30 45.46"
/>
<path stroke="#a2adb2" vector-effect="non-scaling-stroke" d="
  M 64.30 44.79
  L 69.73 37.03
  Q 69.77 36.97 69.71 36.93
  Q 69.57 36.85 69.44 36.76
  Q 69.31 36.68 69.22 36.80
  L 63.66 44.81
  A 1.30 1.29 18.2 0 1 62.56 45.36
  Q 52.93 45.03 43.13 45.63
  Q 43.12 45.63 43.12 45.63
  Q 43.12 45.63 43.12 45.63
  Q 43.12 45.60 43.12 45.60
  L 62.25 45.76
  A 0.31 0.30 -72.9 0 1 62.50 46.24
  Q 57.20 54.16 51.80 61.75
  Q 51.72 61.87 51.77 62.01
  Q 51.88 62.24 52.02 62.03
  L 63.37 46.10
  A 0.87 0.84 -71.9 0 1 64.07 45.73
  L 83.71 45.78
  Q 83.85 45.78 83.85 45.64
  Q 83.85 45.52 83.78 45.38
  Q 83.71 45.27 83.59 45.27
  L 64.51 45.18
  A 0.25 0.25 0.0 0 1 64.30 44.79"
/>
<path stroke="#937e3c" vector-effect="non-scaling-stroke" d="
  M 36.08 176.35
  Q 38.58 165.84 46.18 158.25
  Q 46.41 158.01 46.21 157.75
  Q 45.97 157.45 45.68 157.73
  Q 37.62 165.43 35.13 177.02
  Q 35.03 177.48 35.48 177.61
  C 49.57 181.74 52.10 208.69 51.91 220.26
  Q 51.89 221.32 52.33 222.08
  A 0.28 0.28 0.0 0 0 52.86 221.94
  C 52.84 207.92 51.33 184.05 36.36 176.94
  Q 35.98 176.76 36.08 176.35"
/>
<path stroke="#937e3c" vector-effect="non-scaling-stroke" d="
  M 83.31 162.26
  C 77.75 169.55 75.86 181.60 76.43 190.25
  Q 77.34 204.17 83.29 216.78
  Q 83.43 217.07 83.81 216.87
  A 0.42 0.41 -27.2 0 0 83.99 216.32
  C 75.93 199.65 74.18 179.07 83.74 162.75
  Q 83.89 162.49 83.80 162.31
  Q 83.60 161.88 83.31 162.26"
/>
<path stroke="#937e3c" vector-effect="non-scaling-stroke" d="
  M 56.4108 165.8683
  A 0.49 0.49 0.0 0 0 55.9216 165.3775
  L 47.3416 165.3625
  A 0.49 0.49 0.0 0 0 46.8508 165.8517
  L 46.8492 166.7517
  A 0.49 0.49 0.0 0 0 47.3384 167.2425
  L 55.9184 167.2575
  A 0.49 0.49 0.0 0 0 56.4092 166.7683
  L 56.4108 165.8683"
/>
<path stroke="#937e3c" vector-effect="non-scaling-stroke" d="
  M 99.2510 165.7583
  A 0.38 0.38 0.0 0 0 98.8716 165.3776
  L 90.1316 165.3624
  A 0.38 0.38 0.0 0 0 89.7510 165.7417
  L 89.7490 166.8617
  A 0.38 0.38 0.0 0 0 90.1284 167.2424
  L 98.8684 167.2576
  A 0.38 0.38 0.0 0 0 99.2490 166.8783
  L 99.2510 165.7583"
/>
<path stroke="#937e3c" vector-effect="non-scaling-stroke" d="
  M 181.08 186.55
  A 0.85 0.85 0.0 0 0 182.25 185.76
  L 182.25 179.79
  Q 182.25 179.25 181.81 178.95
  L 167.51 169.30
  A 0.44 0.43 89.6 0 0 166.91 169.91
  Q 171.37 176.38 175.47 182.77
  Q 176.74 184.76 181.08 186.55"
/>
<path stroke="#937e3c" vector-effect="non-scaling-stroke" d="
  M 213.54 177.97
  C 208.95 175.45 202.42 172.18 197.24 171.20
  Q 185.16 168.91 172.76 169.33
  Q 171.75 169.37 172.60 169.92
  L 185.59 178.37
  Q 186.02 178.65 186.54 178.65
  L 213.38 178.62
  A 0.35 0.34 59.1 0 0 213.54 177.97"
/>
<path stroke="#937e3c" vector-effect="non-scaling-stroke" d="
  M 229.58 189.94
  C 233.95 191.81 238.51 193.63 242.96 195.26
  Q 244.97 196.00 247.17 196.00
  Q 279.01 196.00 311.39 196.00
  A 3.22 3.20 -61.7 0 0 313.17 195.46
  L 320.60 190.54
  Q 321.05 190.24 321.04 189.70
  L 320.87 179.59
  A 0.59 0.59 0.0 0 0 320.28 179.01
  L 229.79 179.00
  Q 229.09 179.00 229.09 179.71
  L 229.11 189.23
  Q 229.11 189.74 229.58 189.94"
/>
<path stroke="#937e3c" vector-effect="non-scaling-stroke" d="
  M 207.96 186.39
  A 0.41 0.41 0.0 0 0 208.22 186.29
  L 213.62 181.73
  A 0.41 0.41 0.0 0 0 213.36 181.01
  L 184.55 181.00
  A 0.41 0.41 0.0 0 0 184.14 181.41
  L 184.15 185.96
  A 0.41 0.41 0.0 0 0 184.56 186.37
  L 207.96 186.39"
/>
<path stroke="#93999c" vector-effect="non-scaling-stroke" d="
  M 188.33 136.59
  Q 188.32 137.89 189.15 138.88
  C 192.10 142.39 191.17 150.60 191.11 155.09
  Q 191.10 155.76 191.76 155.76
  L 199.95 155.76
  Q 200.51 155.75 200.31 155.23
  L 192.34 134.35
  Q 192.12 133.80 191.55 133.66
  Q 188.38 132.89 188.33 136.59"
/>
<path stroke="#93999c" vector-effect="non-scaling-stroke" d="
  M 164.60 137.28
  C 167.81 139.77 169.30 141.33 169.69 145.23
  Q 169.74 145.75 170.26 145.75
  L 171.25 145.75
  Q 171.81 145.75 171.82 145.19
  C 171.92 142.19 171.40 136.79 175.74 136.50
  A 0.41 0.41 0.0 0 0 175.76 135.69
  Q 170.14 134.95 164.74 136.53
  A 0.43 0.43 0.0 0 0 164.60 137.28"
/>
<path stroke="#3c474c" vector-effect="non-scaling-stroke" d="
  M 233.3111 180.4355
  A 0.87 0.87 0.0 0 0 232.4083 179.5995
  L 230.7695 179.6625
  A 0.87 0.87 0.0 0 0 229.9336 180.5652
  L 229.9689 181.4845
  A 0.87 0.87 0.0 0 0 230.8717 182.3205
  L 232.5105 182.2575
  A 0.87 0.87 0.0 0 0 233.3464 181.3548
  L 233.3111 180.4355"
/>
<path stroke="#3c474c" vector-effect="non-scaling-stroke" d="
  M 320.26 180.96
  A 1.35 1.35 0.0 0 0 318.91 179.61
  A 1.35 1.35 0.0 0 0 317.56 180.96
  A 1.35 1.35 0.0 0 0 318.91 182.31
  A 1.35 1.35 0.0 0 0 320.26 180.96"
/>
<path stroke="#3c474c" vector-effect="non-scaling-stroke" d="
  M 236.6960 183.2542
  A 0.85 0.85 0.0 0 0 235.8168 182.4344
  L 234.2978 182.4874
  A 0.85 0.85 0.0 0 0 233.4779 183.3666
  L 233.5240 184.6858
  A 0.85 0.85 0.0 0 0 234.4032 185.5056
  L 235.9222 185.4526
  A 0.85 0.85 0.0 0 0 236.7421 184.5734
  L 236.6960 183.2542"
/>
<path stroke="#3c474c" vector-effect="non-scaling-stroke" d="
  M 317.1963 183.0107
  A 0.54 0.54 0.0 0 0 316.6433 182.4841
  L 314.4839 182.5368
  A 0.54 0.54 0.0 0 0 313.9573 183.0899
  L 314.0037 184.9893
  A 0.54 0.54 0.0 0 0 314.5567 185.5159
  L 316.7161 185.4632
  A 0.54 0.54 0.0 0 0 317.2427 184.9101
  L 317.1963 183.0107"
/>
<path stroke="#3c474c" vector-effect="non-scaling-stroke" d="
  M 239.9981 185.9674
  A 0.41 0.41 0.0 0 0 239.5874 185.5581
  L 237.4074 185.5619
  A 0.41 0.41 0.0 0 0 236.9981 185.9726
  L 237.0019 188.1126
  A 0.41 0.41 0.0 0 0 237.4126 188.5219
  L 239.5926 188.5181
  A 0.41 0.41 0.0 0 0 240.0019 188.1074
  L 239.9981 185.9674"
/>
<path stroke="#3c474c" vector-effect="non-scaling-stroke" d="
  M 313.6458 186.2129
  A 0.69 0.69 0.0 0 0 312.9439 185.5350
  L 311.2041 185.5654
  A 0.69 0.69 0.0 0 0 310.5263 186.2673
  L 310.5542 187.8671
  A 0.69 0.69 0.0 0 0 311.2561 188.5450
  L 312.9959 188.5146
  A 0.69 0.69 0.0 0 0 313.6737 187.8127
  L 313.6458 186.2129"
/>
<path stroke="#3c474c" vector-effect="non-scaling-stroke" d="
  M 243.6903 189.4304
  A 0.69 0.69 0.0 0 0 242.9755 188.7662
  L 241.0768 188.8358
  A 0.69 0.69 0.0 0 0 240.4125 189.5506
  L 240.4697 191.1096
  A 0.69 0.69 0.0 0 0 241.1845 191.7738
  L 243.0832 191.7042
  A 0.69 0.69 0.0 0 0 243.7475 190.9894
  L 243.6903 189.4304"
/>
<path stroke="#3c474c" vector-effect="non-scaling-stroke" d="
  M 248.2968 189.2908
  A 0.51 0.51 0.0 0 0 247.7904 188.7772
  L 245.7304 188.7628
  A 0.51 0.51 0.0 0 0 245.2169 189.2693
  L 245.2032 191.2292
  A 0.51 0.51 0.0 0 0 245.7096 191.7428
  L 247.7696 191.7572
  A 0.51 0.51 0.0 0 0 248.2831 191.2507
  L 248.2968 189.2908"
/>
<path stroke="#3c474c" vector-effect="non-scaling-stroke" d="
  M 253.2180 189.4763
  A 0.67 0.67 0.0 0 0 252.5718 188.7834
  L 250.7129 188.7185
  A 0.67 0.67 0.0 0 0 250.0199 189.3647
  L 249.9620 191.0237
  A 0.67 0.67 0.0 0 0 250.6082 191.7166
  L 252.4671 191.7815
  A 0.67 0.67 0.0 0 0 253.1601 191.1353
  L 253.2180 189.4763"
/>
<path stroke="#3c474c" vector-effect="non-scaling-stroke" d="
  M 257.8616 189.3528
  A 0.58 0.58 0.0 0 0 257.2826 188.7718
  L 255.2426 188.7682
  A 0.58 0.58 0.0 0 0 254.6616 189.3472
  L 254.6584 191.1672
  A 0.58 0.58 0.0 0 0 255.2374 191.7482
  L 257.2774 191.7518
  A 0.58 0.58 0.0 0 0 257.8584 191.1728
  L 257.8616 189.3528"
/>
<path stroke="#3c474c" vector-effect="non-scaling-stroke" d="
  M 262.7126 189.3959
  A 0.66 0.66 0.0 0 0 262.0469 188.7417
  L 260.1269 188.7584
  A 0.66 0.66 0.0 0 0 259.4727 189.4242
  L 259.4874 191.1041
  A 0.66 0.66 0.0 0 0 260.1531 191.7583
  L 262.0731 191.7416
  A 0.66 0.66 0.0 0 0 262.7273 191.0758
  L 262.7126 189.3959"
/>
<path stroke="#3c474c" vector-effect="non-scaling-stroke" d="
  M 267.49 189.26
  A 0.51 0.51 0.0 0 0 266.98 188.75
  L 264.70 188.75
  A 0.51 0.51 0.0 0 0 264.19 189.26
  L 264.19 191.24
  A 0.51 0.51 0.0 0 0 264.70 191.75
  L 266.98 191.75
  A 0.51 0.51 0.0 0 0 267.49 191.24
  L 267.49 189.26"
/>
<path stroke="#3c474c" vector-effect="non-scaling-stroke" d="
  M 272.2104 189.4160
  A 0.59 0.59 0.0 0 0 271.6414 188.8058
  L 269.6426 188.7360
  A 0.59 0.59 0.0 0 0 269.0324 189.3051
  L 268.9696 191.1040
  A 0.59 0.59 0.0 0 0 269.5386 191.7142
  L 271.5374 191.7840
  A 0.59 0.59 0.0 0 0 272.1476 191.2149
  L 272.2104 189.4160"
/>
<path stroke="#3c474c" vector-effect="non-scaling-stroke" d="
  M 276.99 189.31
  A 0.56 0.56 0.0 0 0 276.43 188.75
  L 274.25 188.75
  A 0.56 0.56 0.0 0 0 273.69 189.31
  L 273.69 191.17
  A 0.56 0.56 0.0 0 0 274.25 191.73
  L 276.43 191.73
  A 0.56 0.56 0.0 0 0 276.99 191.17
  L 276.99 189.31"
/>
<path stroke="#3c474c" vector-effect="non-scaling-stroke" d="
  M 281.7351 189.4381
  A 0.63 0.63 0.0 0 0 281.1241 188.7897
  L 279.1649 188.7316
  A 0.63 0.63 0.0 0 0 278.5165 189.3426
  L 278.4649 191.0819
  A 0.63 0.63 0.0 0 0 279.0759 191.7303
  L 281.0351 191.7884
  A 0.63 0.63 0.0 0 0 281.6835 191.1774
  L 281.7351 189.4381"
/>
<path stroke="#3c474c" vector-effect="non-scaling-stroke" d="
  M 286.5148 189.2520
  A 0.50 0.50 0.0 0 0 286.0122 188.7546
  L 283.9522 188.7654
  A 0.50 0.50 0.0 0 0 283.4548 189.2680
  L 283.4652 191.2480
  A 0.50 0.50 0.0 0 0 283.9678 191.7454
  L 286.0278 191.7346
  A 0.50 0.50 0.0 0 0 286.5252 191.2320
  L 286.5148 189.2520"
/>
<path stroke="#3c474c" vector-effect="non-scaling-stroke" d="
  M 291.2997 189.3346
  A 0.53 0.53 0.0 0 0 290.7810 188.7936
  L 288.5614 188.7471
  A 0.53 0.53 0.0 0 0 288.0205 189.2659
  L 287.9803 191.1854
  A 0.53 0.53 0.0 0 0 288.4990 191.7264
  L 290.7186 191.7729
  A 0.53 0.53 0.0 0 0 291.2595 191.2541
  L 291.2997 189.3346"
/>
<path stroke="#3c474c" vector-effect="non-scaling-stroke" d="
  M 296.0336 189.2253
  A 0.46 0.46 0.0 0 0 295.5752 188.7637
  L 293.4352 188.7563
  A 0.46 0.46 0.0 0 0 292.9736 189.2147
  L 292.9664 191.2747
  A 0.46 0.46 0.0 0 0 293.4248 191.7363
  L 295.5648 191.7437
  A 0.46 0.46 0.0 0 0 296.0264 191.2853
  L 296.0336 189.2253"
/>
<path stroke="#3c474c" vector-effect="non-scaling-stroke" d="
  M 300.7808 189.2844
  A 0.48 0.48 0.0 0 0 300.3110 188.7944
  L 298.0115 188.7462
  A 0.48 0.48 0.0 0 0 297.5215 189.2161
  L 297.4792 191.2356
  A 0.48 0.48 0.0 0 0 297.9490 191.7256
  L 300.2485 191.7738
  A 0.48 0.48 0.0 0 0 300.7385 191.3039
  L 300.7808 189.2844"
/>
<path stroke="#3c474c" vector-effect="non-scaling-stroke" d="
  M 305.5064 189.2247
  A 0.47 0.47 0.0 0 0 305.0348 188.7563
  L 302.9348 188.7637
  A 0.47 0.47 0.0 0 0 302.4664 189.2353
  L 302.4736 191.2753
  A 0.47 0.47 0.0 0 0 302.9452 191.7437
  L 305.0452 191.7363
  A 0.47 0.47 0.0 0 0 305.5136 191.2647
  L 305.5064 189.2247"
/>
<path stroke="#3c474c" vector-effect="non-scaling-stroke" d="
  M 310.3025 189.3703
  A 0.53 0.53 0.0 0 0 309.7856 188.8276
  L 307.5662 188.7733
  A 0.53 0.53 0.0 0 0 307.0235 189.2902
  L 306.9775 191.1697
  A 0.53 0.53 0.0 0 0 307.4944 191.7124
  L 309.7138 191.7667
  A 0.53 0.53 0.0 0 0 310.2565 191.2498
  L 310.3025 189.3703"
/>
<path stroke="#a8adb0" vector-effect="non-scaling-stroke" d="
  M 31.2700 244.7700
  A 26.05 12.06 90.0 0 0 43.3300 218.7200
  A 26.05 12.06 90.0 0 0 31.2700 192.6700
  A 26.05 12.06 90.0 0 0 19.2100 218.7200
  A 26.05 12.06 90.0 0 0 31.2700 244.7700"
/>
</g>
<path fill="#ffffff" d="
  M 0.00 0.00
  L 350.00 0.00
  L 350.00 331.00
  L 0.00 331.00
  L 0.00 0.00
  Z
  M 114.75 25.40
  L 55.26 25.61
  Q 54.71 25.61 54.40 26.06
  L 27.67 64.99
  Q 27.26 65.57 27.41 66.19
  Q 27.56 66.78 28.16 66.78
  L 47.26 66.88
  A 0.50 0.49 90.0 0 1 47.75 67.38
  L 47.76 78.09
  L 29.65 78.14
  Q 29.08 78.14 29.08 78.72
  L 29.00 100.74
  Q 27.21 100.16 26.80 101.00
  Q 4.04 146.98 11.89 197.99
  Q 12.72 203.39 15.58 209.68
  Q 13.64 224.23 18.09 238.43
  Q 20.99 247.70 27.55 251.49
  Q 30.29 252.64 32.54 252.40
  Q 32.51 254.09 33.44 255.54
  Q 64.91 304.91 120.84 322.98
  A 1.82 1.82 0.0 0 0 123.19 321.57
  L 123.62 319.21
  Q 123.75 318.48 123.05 318.26
  Q 69.39 300.98 38.84 253.88
  Q 37.99 252.57 39.54 252.40
  L 40.91 252.25
  Q 48.74 253.69 52.94 249.44
  Q 58.56 243.75 60.53 234.50
  L 66.24 234.70
  Q 88.71 269.90 126.71 283.81
  C 146.92 291.22 170.19 292.76 190.99 288.50
  Q 235.06 279.50 262.94 243.18
  Q 267.50 237.24 269.92 231.61
  L 272.24 231.52
  Q 272.76 231.50 272.90 231.99
  C 275.20 240.10 280.36 247.73 288.32 251.07
  C 293.30 253.16 300.44 252.39 306.08 252.41
  Q 313.59 252.43 317.01 251.16
  C 324.92 248.21 330.28 239.90 332.54 232.03
  A 0.75 0.73 -81.4 0 1 333.24 231.50
  L 338.75 231.50
  Q 339.28 231.50 339.29 230.97
  L 339.34 223.38
  L 339.13 219.03
  Q 339.54 206.34 337.60 194.40
  L 336.50 186.29
  L 335.23 180.87
  L 334.56 178.59
  L 332.25 173.53
  Q 329.51 170.44 325.63 168.67
  Q 322.96 107.22 282.01 63.64
  Q 275.16 56.36 267.36 50.06
  Q 214.28 7.19 143.11 16.48
  Q 127.11 18.56 114.75 25.40
  Z"
/>
<path fill="#f0fffa" d="
  M 325.63 168.67
  L 319.87 166.11
  Q 318.39 128.62 300.39 97.10
  Q 276.13 54.65 231.07 33.67
  Q 181.44 10.57 126.60 25.27
  Q 123.29 26.16 120.42 27.91
  L 119.37 25.81
  L 114.75 25.40
  Q 127.11 18.56 143.11 16.48
  Q 214.28 7.19 267.36 50.06
  Q 275.16 56.36 282.01 63.64
  Q 322.96 107.22 325.63 168.67
  Z"
/>
<path fill="#ffffff" d="
  M 319.87 166.11
  Q 301.55 160.20 285.22 157.01
  Q 283.03 136.33 273.63 118.34
  C 258.57 89.53 233.83 68.16 202.54 58.42
  A 0.72 0.71 -73.4 0 0 201.63 58.92
  L 200.71 62.34
  A 1.08 1.08 0.0 0 0 201.39 63.63
  Q 259.15 84.06 276.66 141.58
  Q 277.52 144.43 278.32 148.73
  Q 279.00 152.35 279.79 155.93
  L 278.99 156.02
  L 275.64 153.58
  Q 275.22 153.27 275.60 152.93
  Q 278.91 149.99 276.25 145.72
  C 272.85 140.27 267.01 142.55 261.98 143.55
  Q 261.47 143.65 261.04 143.35
  Q 245.86 132.51 230.51 121.97
  Q 227.24 119.72 223.50 119.76
  L 219.33 119.69
  Q 218.43 118.91 217.57 117.56
  Q 216.71 116.22 215.81 115.48
  Q 191.82 95.72 161.00 97.82
  Q 138.83 99.33 119.32 114.00
  L 119.27 78.60
  A 0.49 0.49 0.0 0 0 118.78 78.11
  L 100.89 78.10
  Q 100.84 68.56 100.91 59.19
  C 100.92 57.76 100.65 56.52 101.52 55.29
  Q 111.06 41.80 120.42 27.91
  Q 123.29 26.16 126.60 25.27
  Q 181.44 10.57 231.07 33.67
  Q 276.13 54.65 300.39 97.10
  Q 318.39 128.62 319.87 166.11
  Z"
/>
<path fill="#455a64" d="
  M 114.75 25.40
  L 119.37 25.81
  L 92.83 64.51
  Q 92.54 64.94 92.02 64.94
  L 27.67 64.99
  L 54.40 26.06
  Q 54.71 25.61 55.26 25.61
  L 114.75 25.40
  Z
  M 96.50 29.49
  L 74.65 60.42
  Q 74.38 60.80 74.77 60.54
  Q 75.29 60.19 75.65 59.66
  Q 80.03 53.15 85.16 46.17
  A 1.51 1.49 17.6 0 1 86.35 45.56
  L 100.30 45.46
  L 104.18 45.72
  A 0.25 0.24 52.7 0 0 104.24 45.24
  Q 102.38 44.83 100.20 45.35
  L 86.73 45.19
  A 0.54 0.53 -72.3 0 1 86.30 44.35
  L 96.50 29.49
  L 98.03 27.70
  Q 98.13 27.59 98.13 27.50
  Q 98.13 27.37 98.13 27.25
  Q 98.13 27.16 97.99 27.29
  Q 96.90 28.28 96.50 29.49
  Z
  M 64.30 44.79
  L 69.73 37.03
  Q 69.77 36.97 69.71 36.93
  Q 69.57 36.85 69.44 36.76
  Q 69.31 36.68 69.22 36.80
  L 63.66 44.81
  A 1.30 1.29 18.2 0 1 62.56 45.36
  Q 52.93 45.03 43.13 45.63
  Q 43.12 45.63 43.12 45.63
  Q 43.12 45.63 43.12 45.63
  Q 43.12 45.60 43.12 45.60
  L 62.25 45.76
  A 0.31 0.30 -72.9 0 1 62.50 46.24
  Q 57.20 54.16 51.80 61.75
  Q 51.72 61.87 51.77 62.01
  Q 51.88 62.24 52.02 62.03
  L 63.37 46.10
  A 0.87 0.84 -71.9 0 1 64.07 45.73
  L 83.71 45.78
  Q 83.85 45.78 83.85 45.64
  Q 83.85 45.52 83.78 45.38
  Q 83.71 45.27 83.59 45.27
  L 64.51 45.18
  A 0.25 0.25 0.0 0 1 64.30 44.79
  Z"
/>
<path fill="#263238" d="
  M 119.37 25.81
  L 120.42 27.91
  Q 111.06 41.80 101.52 55.29
  C 100.65 56.52 100.92 57.76 100.91 59.19
  Q 100.84 68.56 100.89 78.10
  L 98.24 78.15
  L 98.23 60.93
  Q 98.23 60.18 97.80 60.79
  L 93.84 66.45
  Q 93.55 66.87 93.03 66.87
  L 56.99 66.80
  L 50.32 66.87
  Q 49.79 66.88 49.80 67.40
  L 49.93 74.24
  L 49.77 78.12
  L 47.76 78.09
  L 47.75 67.38
  A 0.50 0.49 -90.0 0 0 47.26 66.88
  L 28.16 66.78
  Q 27.56 66.78 27.41 66.19
  Q 27.26 65.57 27.67 64.99
  L 92.02 64.94
  Q 92.54 64.94 92.83 64.51
  L 119.37 25.81
  Z"
/>
<path fill="#ffffff" d="
  M 96.50 29.49
  Q 96.90 28.28 97.99 27.29
  Q 98.13 27.16 98.13 27.25
  Q 98.13 27.37 98.13 27.50
  Q 98.13 27.59 98.03 27.70
  L 96.50 29.49
  Z"
/>
<path fill="#ffffff" d="
  M 96.50 29.49
  L 86.30 44.35
  A 0.54 0.53 -72.3 0 0 86.73 45.19
  L 100.20 45.35
  Q 100.25 45.41 100.30 45.46
  L 86.35 45.56
  A 1.51 1.49 17.6 0 0 85.16 46.17
  Q 80.03 53.15 75.65 59.66
  Q 75.29 60.19 74.77 60.54
  Q 74.38 60.80 74.65 60.42
  L 96.50 29.49
  Z"
/>
<path fill="#ffffff" d="
  M 64.30 44.79
  A 0.25 0.25 0.0 0 0 64.51 45.18
  L 83.59 45.27
  Q 83.71 45.27 83.78 45.38
  Q 83.85 45.52 83.85 45.64
  Q 83.85 45.78 83.71 45.78
  L 64.07 45.73
  A 0.87 0.84 -71.9 0 0 63.37 46.10
  L 52.02 62.03
  Q 51.88 62.24 51.77 62.01
  Q 51.72 61.87 51.80 61.75
  Q 57.20 54.16 62.50 46.24
  A 0.31 0.30 -72.9 0 0 62.25 45.76
  L 43.12 45.60
  Q 43.12 45.60 43.12 45.63
  Q 43.12 45.63 43.12 45.63
  Q 43.12 45.63 43.13 45.63
  Q 52.93 45.03 62.56 45.36
  A 1.30 1.29 18.2 0 0 63.66 44.81
  L 69.22 36.80
  Q 69.31 36.68 69.44 36.76
  Q 69.57 36.85 69.71 36.93
  Q 69.77 36.97 69.73 37.03
  L 64.30 44.79
  Z"
/>
<path fill="#515b60" d="
  M 100.20 45.35
  Q 102.38 44.83 104.24 45.24
  A 0.25 0.24 52.7 0 1 104.18 45.72
  L 100.30 45.46
  Q 100.25 45.41 100.20 45.35
  Z"
/>
<path fill="#f0fffa" d="
  M 285.22 157.01
  L 279.79 155.93
  Q 279.00 152.35 278.32 148.73
  Q 277.52 144.43 276.66 141.58
  Q 259.15 84.06 201.39 63.63
  A 1.08 1.08 0.0 0 1 200.71 62.34
  L 201.63 58.92
  A 0.72 0.71 -73.4 0 1 202.54 58.42
  C 233.83 68.16 258.57 89.53 273.63 118.34
  Q 283.03 136.33 285.22 157.01
  Z"
/>
<path fill="#ffffff" d="
  M 98.24 78.15
  L 91.02 78.13
  L 49.77 78.12
  L 49.93 74.24
  Q 54.09 71.61 56.99 66.80
  L 93.03 66.87
  Q 93.55 66.87 93.84 66.45
  L 97.80 60.79
  Q 98.23 60.18 98.23 60.93
  L 98.24 78.15
  Z"
/>
<path fill="#f0fffa" d="
  M 56.99 66.80
  Q 54.09 71.61 49.93 74.24
  L 49.80 67.40
  Q 49.79 66.88 50.32 66.87
  L 56.99 66.80
  Z"
/>
<path fill="#00b228" d="
  M 47.76 78.09
  L 49.77 78.12
  L 91.02 78.13
  L 91.05 119.79
  Q 84.98 119.35 79.29 120.34
  Q 79.03 120.38 78.85 120.18
  Q 78.71 120.01 78.59 120.03
  L 78.57 95.32
  Q 78.57 94.77 78.01 94.77
  L 43.50 94.77
  Q 43.01 94.77 43.01 95.25
  L 43.01 134.49
  A 0.48 0.48 0.0 0 0 43.49 134.97
  L 50.74 135.02
  L 28.98 152.55
  L 28.88 109.53
  L 29.00 100.74
  L 29.08 78.72
  Q 29.08 78.14 29.65 78.14
  L 47.76 78.09
  Z"
/>
<path fill="#007d1c" d="
  M 98.24 78.15
  L 100.89 78.10
  L 118.78 78.11
  A 0.49 0.49 0.0 0 1 119.27 78.60
  L 119.32 114.00
  L 119.28 119.05
  Q 119.27 119.64 119.86 119.65
  L 123.46 119.70
  L 212.51 119.60
  L 219.33 119.69
  L 223.50 119.76
  Q 223.08 119.94 223.45 120.60
  L 118.29 120.58
  Q 117.96 120.15 117.11 120.52
  L 116.83 120.15
  Q 116.54 119.76 116.05 119.76
  L 91.05 119.79
  L 91.02 78.13
  L 98.24 78.15
  Z"
/>
<path fill="#ffffff" d="
  M 78.59 120.03
  Q 78.59 120.18 78.56 120.32
  Q 78.51 120.46 78.37 120.50
  Q 69.93 122.66 62.32 126.88
  L 60.66 119.49
  Q 60.56 119.05 61.01 119.04
  L 67.41 118.95
  Q 68.04 118.94 67.80 118.35
  L 61.87 103.67
  A 0.74 0.74 0.0 0 0 61.17 103.21
  L 54.27 103.39
  Q 53.57 103.41 53.95 104.00
  L 60.68 114.44
  Q 61.02 114.96 60.39 114.97
  L 55.80 115.00
  Q 55.23 115.01 55.49 115.52
  L 61.43 127.41
  L 50.74 135.02
  L 43.49 134.97
  A 0.48 0.48 0.0 0 1 43.01 134.49
  L 43.01 95.25
  Q 43.01 94.77 43.50 94.77
  L 78.01 94.77
  Q 78.57 94.77 78.57 95.32
  L 78.59 120.03
  Z"
/>
<path fill="#f0fffa" d="
  M 219.33 119.69
  L 212.51 119.60
  Q 190.68 101.58 163.67 102.87
  C 148.73 103.58 134.84 108.82 122.97 117.89
  A 1.20 1.20 0.0 0 0 122.68 119.48
  Q 122.74 119.59 123.46 119.70
  L 119.86 119.65
  Q 119.27 119.64 119.28 119.05
  L 119.32 114.00
  Q 138.83 99.33 161.00 97.82
  Q 191.82 95.72 215.81 115.48
  Q 216.71 116.22 217.57 117.56
  Q 218.43 118.91 219.33 119.69
  Z"
/>
<path fill="#f0fffa" d="
  M 29.00 100.74
  L 28.88 109.53
  Q 26.41 114.36 24.05 121.26
  Q 17.77 139.65 15.92 157.50
  Q 15.86 158.06 17.01 158.36
  L 15.05 161.13
  L 14.90 181.10
  L 14.89 202.76
  A 0.42 0.42 0.0 0 0 15.73 202.83
  Q 16.62 197.08 18.93 192.09
  L 19.53 194.55
  Q 16.82 202.00 15.58 209.68
  Q 12.72 203.39 11.89 197.99
  Q 4.04 146.98 26.80 101.00
  Q 27.21 100.16 29.00 100.74
  Z"
/>
<path fill="#ffffff" d="
  M 212.51 119.60
  L 123.46 119.70
  Q 122.74 119.59 122.68 119.48
  A 1.20 1.20 0.0 0 1 122.97 117.89
  C 134.84 108.82 148.73 103.58 163.67 102.87
  Q 190.68 101.58 212.51 119.60
  Z"
/>
<path fill="#00b228" d="
  M 62.32 126.88
  L 61.43 127.41
  L 55.49 115.52
  Q 55.23 115.01 55.80 115.00
  L 60.39 114.97
  Q 61.02 114.96 60.68 114.44
  L 53.95 104.00
  Q 53.57 103.41 54.27 103.39
  L 61.17 103.21
  A 0.74 0.74 0.0 0 1 61.87 103.67
  L 67.80 118.35
  Q 68.04 118.94 67.41 118.95
  L 61.01 119.04
  Q 60.56 119.05 60.66 119.49
  L 62.32 126.88
  Z"
/>
<path fill="#ffffff" d="
  M 28.88 109.53
  L 28.98 152.55
  Q 25.13 155.17 20.32 156.33
  Q 19.22 156.60 17.01 158.36
  Q 15.86 158.06 15.92 157.50
  Q 17.77 139.65 24.05 121.26
  Q 26.41 114.36 28.88 109.53
  Z"
/>
<path fill="#ffc93f" d="
  M 91.05 119.79
  L 116.05 119.76
  Q 116.54 119.76 116.83 120.15
  L 117.11 120.52
  L 119.24 123.62
  Q 119.67 124.26 118.90 124.22
  L 118.41 124.19
  L 99.55 124.23
  Q 91.28 124.13 83.78 124.16
  Q 79.73 124.18 76.35 125.31
  Q 64.66 129.21 54.53 136.33
  C 51.65 138.36 51.09 142.12 51.48 145.24
  Q 52.57 153.93 61.30 156.24
  L 83.82 156.37
  L 89.16 156.37
  L 109.50 156.34
  L 115.26 161.25
  Q 115.70 161.63 116.13 161.23
  Q 118.18 159.32 117.54 156.35
  L 142.50 156.45
  L 226.04 156.47
  L 259.96 156.53
  Q 269.23 156.55 278.51 156.39
  Q 278.71 156.39 278.81 156.31
  Q 278.97 156.20 278.99 156.02
  L 279.79 155.93
  L 285.22 157.01
  Q 301.55 160.20 319.87 166.11
  L 325.63 168.67
  Q 329.51 170.44 332.25 173.53
  L 322.68 178.04
  Q 321.63 178.53 322.79 178.54
  L 334.56 178.59
  L 335.23 180.87
  L 322.79 180.96
  A 0.46 0.45 65.1 0 0 322.50 181.76
  L 327.43 185.99
  Q 327.88 186.38 328.46 186.37
  L 336.50 186.29
  L 337.60 194.40
  L 335.36 207.86
  Q 335.27 208.36 334.76 208.36
  L 198.26 208.36
  A 1.64 1.60 70.2 0 1 197.00 207.75
  L 184.31 191.72
  A 0.38 0.38 0.0 0 0 183.63 191.96
  L 183.63 217.72
  Q 183.63 218.25 184.15 218.25
  Q 185.94 218.25 187.75 218.27
  C 192.48 218.32 194.79 214.28 199.73 214.25
  Q 211.71 214.20 223.78 214.27
  Q 224.37 214.28 224.03 214.76
  L 221.01 219.09
  A 0.42 0.42 0.0 0 0 221.35 219.75
  L 330.99 219.75
  Q 332.24 219.75 331.25 219.00
  L 325.82 214.88
  A 0.35 0.34 -26.6 0 1 326.03 214.26
  L 335.01 214.24
  A 0.77 0.76 -8.8 0 1 335.74 214.77
  Q 336.84 218.10 339.13 219.03
  L 339.34 223.38
  L 170.66 223.37
  Q 170.13 223.37 170.11 222.84
  L 170.01 218.76
  Q 168.72 202.49 161.86 189.68
  C 150.62 170.74 136.51 181.19 131.31 196.44
  Q 126.55 208.93 126.08 223.42
  Q 91.23 223.26 57.03 223.46
  Q 54.05 223.47 51.11 224.41
  Q 48.33 225.29 45.33 226.20
  Q 45.61 206.58 39.59 190.28
  C 37.52 185.02 32.04 174.96 24.92 181.57
  Q 20.38 185.77 18.93 192.09
  Q 16.62 197.08 15.73 202.83
  A 0.42 0.42 0.0 0 1 14.89 202.76
  L 14.90 181.10
  Q 18.92 175.15 22.25 169.21
  C 25.79 162.89 20.07 160.90 15.05 161.13
  L 17.01 158.36
  Q 19.22 156.60 20.32 156.33
  Q 25.13 155.17 28.98 152.55
  L 50.74 135.02
  L 61.43 127.41
  L 62.32 126.88
  Q 69.93 122.66 78.37 120.50
  Q 78.51 120.46 78.56 120.32
  Q 78.59 120.18 78.59 120.03
  Q 78.71 120.01 78.85 120.18
  Q 79.03 120.38 79.29 120.34
  Q 84.98 119.35 91.05 119.79
  Z
  M 36.08 176.35
  Q 38.58 165.84 46.18 158.25
  Q 46.41 158.01 46.21 157.75
  Q 45.97 157.45 45.68 157.73
  Q 37.62 165.43 35.13 177.02
  Q 35.03 177.48 35.48 177.61
  C 49.57 181.74 52.10 208.69 51.91 220.26
  Q 51.89 221.32 52.33 222.08
  A 0.28 0.28 0.0 0 0 52.86 221.94
  C 52.84 207.92 51.33 184.05 36.36 176.94
  Q 35.98 176.76 36.08 176.35
  Z
  M 83.31 162.26
  C 77.75 169.55 75.86 181.60 76.43 190.25
  Q 77.34 204.17 83.29 216.78
  Q 83.43 217.07 83.81 216.87
  A 0.42 0.41 -27.2 0 0 83.99 216.32
  C 75.93 199.65 74.18 179.07 83.74 162.75
  Q 83.89 162.49 83.80 162.31
  Q 83.60 161.88 83.31 162.26
  Z
  M 56.4108 165.8683
  A 0.49 0.49 0.0 0 0 55.9216 165.3775
  L 47.3416 165.3625
  A 0.49 0.49 0.0 0 0 46.8508 165.8517
  L 46.8492 166.7517
  A 0.49 0.49 0.0 0 0 47.3384 167.2425
  L 55.9184 167.2575
  A 0.49 0.49 0.0 0 0 56.4092 166.7683
  L 56.4108 165.8683
  Z
  M 99.2510 165.7583
  A 0.38 0.38 0.0 0 0 98.8716 165.3776
  L 90.1316 165.3624
  A 0.38 0.38 0.0 0 0 89.7510 165.7417
  L 89.7490 166.8617
  A 0.38 0.38 0.0 0 0 90.1284 167.2424
  L 98.8684 167.2576
  A 0.38 0.38 0.0 0 0 99.2490 166.8783
  L 99.2510 165.7583
  Z
  M 181.08 186.55
  A 0.85 0.85 0.0 0 0 182.25 185.76
  L 182.25 179.79
  Q 182.25 179.25 181.81 178.95
  L 167.51 169.30
  A 0.44 0.43 89.6 0 0 166.91 169.91
  Q 171.37 176.38 175.47 182.77
  Q 176.74 184.76 181.08 186.55
  Z
  M 213.54 177.97
  C 208.95 175.45 202.42 172.18 197.24 171.20
  Q 185.16 168.91 172.76 169.33
  Q 171.75 169.37 172.60 169.92
  L 185.59 178.37
  Q 186.02 178.65 186.54 178.65
  L 213.38 178.62
  A 0.35 0.34 59.1 0 0 213.54 177.97
  Z
  M 229.58 189.94
  C 233.95 191.81 238.51 193.63 242.96 195.26
  Q 244.97 196.00 247.17 196.00
  Q 279.01 196.00 311.39 196.00
  A 3.22 3.20 -61.7 0 0 313.17 195.46
  L 320.60 190.54
  Q 321.05 190.24 321.04 189.70
  L 320.87 179.59
  A 0.59 0.59 0.0 0 0 320.28 179.01
  L 229.79 179.00
  Q 229.09 179.00 229.09 179.71
  L 229.11 189.23
  Q 229.11 189.74 229.58 189.94
  Z
  M 207.96 186.39
  A 0.41 0.41 0.0 0 0 208.22 186.29
  L 213.62 181.73
  A 0.41 0.41 0.0 0 0 213.36 181.01
  L 184.55 181.00
  A 0.41 0.41 0.0 0 0 184.14 181.41
  L 184.15 185.96
  A 0.41 0.41 0.0 0 0 184.56 186.37
  L 207.96 186.39
  Z"
/>
<path fill="#263238" d="
  M 223.50 119.76
  Q 227.24 119.72 230.51 121.97
  Q 245.86 132.51 261.04 143.35
  Q 261.47 143.65 261.98 143.55
  C 267.01 142.55 272.85 140.27 276.25 145.72
  Q 278.91 149.99 275.60 152.93
  Q 275.22 153.27 275.64 153.58
  L 278.99 156.02
  Q 278.97 156.20 278.81 156.31
  Q 278.71 156.39 278.51 156.39
  Q 269.23 156.55 259.96 156.53
  Q 259.18 156.81 259.47 155.79
  C 247.96 145.70 235.73 136.77 220.88 132.36
  Q 217.90 131.47 209.49 131.61
  Q 208.99 131.61 209.28 132.02
  L 226.22 155.78
  Q 226.64 155.84 226.04 156.47
  L 142.50 156.45
  L 120.24 125.40
  A 1.28 1.27 77.7 0 0 119.47 124.90
  Q 118.70 124.73 118.41 124.19
  L 118.90 124.22
  Q 119.67 124.26 119.24 123.62
  L 117.11 120.52
  Q 117.96 120.15 118.29 120.58
  L 120.49 123.77
  Q 120.82 124.25 121.40 124.25
  L 231.27 124.25
  Q 231.95 124.25 231.47 123.76
  Q 228.37 120.57 223.45 120.60
  Q 223.08 119.94 223.50 119.76
  Z
  M 188.33 136.59
  Q 188.32 137.89 189.15 138.88
  C 192.10 142.39 191.17 150.60 191.11 155.09
  Q 191.10 155.76 191.76 155.76
  L 199.95 155.76
  Q 200.51 155.75 200.31 155.23
  L 192.34 134.35
  Q 192.12 133.80 191.55 133.66
  Q 188.38 132.89 188.33 136.59
  Z
  M 164.60 137.28
  C 167.81 139.77 169.30 141.33 169.69 145.23
  Q 169.74 145.75 170.26 145.75
  L 171.25 145.75
  Q 171.81 145.75 171.82 145.19
  C 171.92 142.19 171.40 136.79 175.74 136.50
  A 0.41 0.41 0.0 0 0 175.76 135.69
  Q 170.14 134.95 164.74 136.53
  A 0.43 0.43 0.0 0 0 164.60 137.28
  Z"
/>
<path fill="#ffc93f" d="
  M 223.45 120.60
  Q 228.37 120.57 231.47 123.76
  Q 231.95 124.25 231.27 124.25
  L 121.40 124.25
  Q 120.82 124.25 120.49 123.77
  L 118.29 120.58
  L 223.45 120.60
  Z"
/>
<path fill="#263238" d="
  M 99.55 124.23
  Q 91.15 139.64 89.16 156.37
  L 83.82 156.37
  Q 84.65 139.78 93.02 125.44
  Q 93.29 124.97 92.75 124.91
  Q 84.11 123.96 79.61 125.09
  C 76.11 125.96 53.80 134.31 52.60 140.22
  Q 50.44 150.92 61.30 156.24
  Q 52.57 153.93 51.48 145.24
  C 51.09 142.12 51.65 138.36 54.53 136.33
  Q 64.66 129.21 76.35 125.31
  Q 79.73 124.18 83.78 124.16
  Q 91.28 124.13 99.55 124.23
  Z"
/>
<path fill="#515b60" d="
  M 118.41 124.19
  Q 118.70 124.73 119.47 124.90
  A 1.28 1.27 77.7 0 1 120.24 125.40
  L 142.50 156.45
  L 117.54 156.35
  L 115.24 154.29
  Q 114.66 153.76 115.42 153.58
  Q 119.63 152.59 119.05 149.40
  Q 117.83 142.81 112.81 142.61
  Q 102.33 142.20 94.19 149.05
  Q 94.49 151.10 95.12 152.09
  Q 95.68 152.99 97.73 153.00
  Q 101.97 153.03 106.27 153.04
  Q 108.17 153.04 109.50 156.34
  L 89.16 156.37
  Q 91.15 139.64 99.55 124.23
  L 118.41 124.19
  Z"
/>
<path fill="#515b60" d="
  M 83.82 156.37
  L 61.30 156.24
  Q 50.44 150.92 52.60 140.22
  C 53.80 134.31 76.11 125.96 79.61 125.09
  Q 84.11 123.96 92.75 124.91
  Q 93.29 124.97 93.02 125.44
  Q 84.65 139.78 83.82 156.37
  Z"
/>
<path fill="#ffffff" d="
  M 259.47 155.79
  L 226.22 155.78
  L 209.28 132.02
  Q 208.99 131.61 209.49 131.61
  Q 217.90 131.47 220.88 132.36
  C 235.73 136.77 247.96 145.70 259.47 155.79
  Z"
/>
<path fill="#ffffff" d="
  M 188.33 136.59
  Q 188.38 132.89 191.55 133.66
  Q 192.12 133.80 192.34 134.35
  L 200.31 155.23
  Q 200.51 155.75 199.95 155.76
  L 191.76 155.76
  Q 191.10 155.76 191.11 155.09
  C 191.17 150.60 192.10 142.39 189.15 138.88
  Q 188.32 137.89 188.33 136.59
  Z"
/>
<path fill="#ffffff" d="
  M 169.69 145.23
  C 169.30 141.33 167.81 139.77 164.60 137.28
  A 0.43 0.43 0.0 0 1 164.74 136.53
  Q 170.14 134.95 175.76 135.69
  A 0.41 0.41 0.0 0 1 175.74 136.50
  C 171.40 136.79 171.92 142.19 171.82 145.19
  Q 171.81 145.75 171.25 145.75
  L 170.26 145.75
  Q 169.74 145.75 169.69 145.23
  Z"
/>
<path fill="#aaff00" d="
  M 119.05 149.40
  L 94.19 149.05
  Q 102.33 142.20 112.81 142.61
  Q 117.83 142.81 119.05 149.40
  Z"
/>
<path fill="#263238" d="
  M 94.19 149.05
  L 119.05 149.40
  Q 119.63 152.59 115.42 153.58
  Q 114.66 153.76 115.24 154.29
  L 117.54 156.35
  Q 118.18 159.32 116.13 161.23
  Q 115.70 161.63 115.26 161.25
  L 109.50 156.34
  Q 108.17 153.04 106.27 153.04
  Q 101.97 153.03 97.73 153.00
  Q 95.68 152.99 95.12 152.09
  Q 94.49 151.10 94.19 149.05
  Z"
/>
<path fill="#007d1c" d="
  M 226.22 155.78
  L 259.47 155.79
  Q 259.18 156.81 259.96 156.53
  L 226.04 156.47
  Q 226.64 155.84 226.22 155.78
  Z"
/>
<path fill="#263238" d="
  M 36.36 176.94
  C 51.33 184.05 52.84 207.92 52.86 221.94
  A 0.28 0.28 0.0 0 1 52.33 222.08
  Q 51.89 221.32 51.91 220.26
  C 52.10 208.69 49.57 181.74 35.48 177.61
  Q 35.03 177.48 35.13 177.02
  Q 37.62 165.43 45.68 157.73
  Q 45.97 157.45 46.21 157.75
  Q 46.41 158.01 46.18 158.25
  Q 38.58 165.84 36.08 176.35
  Q 35.98 176.76 36.36 176.94
  Z"
/>
<path fill="#263238" d="
  M 15.05 161.13
  C 20.07 160.90 25.79 162.89 22.25 169.21
  Q 18.92 175.15 14.90 181.10
  L 15.05 161.13
  Z"
/>
<path fill="#263238" d="
  M 76.43 190.25
  C 75.86 181.60 77.75 169.55 83.31 162.26
  Q 83.60 161.88 83.80 162.31
  Q 83.89 162.49 83.74 162.75
  C 74.18 179.07 75.93 199.65 83.99 216.32
  A 0.42 0.41 -27.2 0 1 83.81 216.87
  Q 83.43 217.07 83.29 216.78
  Q 77.34 204.17 76.43 190.25
  Z"
/>
<rect fill="#263238" x="-4.78" y="-0.94" transform="translate(51.63,166.31) rotate(0.1)" width="9.56" height="1.88" rx="0.49"/>
<rect fill="#263238" x="-4.75" y="-0.94" transform="translate(94.50,166.31) rotate(0.1)" width="9.50" height="1.88" rx="0.38"/>
<path fill="#263238" d="
  M 181.08 186.55
  Q 176.74 184.76 175.47 182.77
  Q 171.37 176.38 166.91 169.91
  A 0.44 0.43 89.6 0 1 167.51 169.30
  L 181.81 178.95
  Q 182.25 179.25 182.25 179.79
  L 182.25 185.76
  A 0.85 0.85 0.0 0 1 181.08 186.55
  Z"
/>
<path fill="#263238" d="
  M 197.24 171.20
  C 202.42 172.18 208.95 175.45 213.54 177.97
  A 0.35 0.34 59.1 0 1 213.38 178.62
  L 186.54 178.65
  Q 186.02 178.65 185.59 178.37
  L 172.60 169.92
  Q 171.75 169.37 172.76 169.33
  Q 185.16 168.91 197.24 171.20
  Z"
/>
<path fill="#263238" d="
  M 332.25 173.53
  L 334.56 178.59
  L 322.79 178.54
  Q 321.63 178.53 322.68 178.04
  L 332.25 173.53
  Z"
/>
<path fill="#263238" d="
  M 242.96 195.26
  C 238.51 193.63 233.95 191.81 229.58 189.94
  Q 229.11 189.74 229.11 189.23
  L 229.09 179.71
  Q 229.09 179.00 229.79 179.00
  L 320.28 179.01
  A 0.59 0.59 0.0 0 1 320.87 179.59
  L 321.04 189.70
  Q 321.05 190.24 320.60 190.54
  L 313.17 195.46
  A 3.22 3.20 -61.7 0 1 311.39 196.00
  Q 279.01 196.00 247.17 196.00
  Q 244.97 196.00 242.96 195.26
  Z
  M 233.3111 180.4355
  A 0.87 0.87 0.0 0 0 232.4083 179.5995
  L 230.7695 179.6625
  A 0.87 0.87 0.0 0 0 229.9336 180.5652
  L 229.9689 181.4845
  A 0.87 0.87 0.0 0 0 230.8717 182.3205
  L 232.5105 182.2575
  A 0.87 0.87 0.0 0 0 233.3464 181.3548
  L 233.3111 180.4355
  Z
  M 320.26 180.96
  A 1.35 1.35 0.0 0 0 318.91 179.61
  A 1.35 1.35 0.0 0 0 317.56 180.96
  A 1.35 1.35 0.0 0 0 318.91 182.31
  A 1.35 1.35 0.0 0 0 320.26 180.96
  Z
  M 236.6960 183.2542
  A 0.85 0.85 0.0 0 0 235.8168 182.4344
  L 234.2978 182.4874
  A 0.85 0.85 0.0 0 0 233.4779 183.3666
  L 233.5240 184.6858
  A 0.85 0.85 0.0 0 0 234.4032 185.5056
  L 235.9222 185.4526
  A 0.85 0.85 0.0 0 0 236.7421 184.5734
  L 236.6960 183.2542
  Z
  M 317.1963 183.0107
  A 0.54 0.54 0.0 0 0 316.6433 182.4841
  L 314.4839 182.5368
  A 0.54 0.54 0.0 0 0 313.9573 183.0899
  L 314.0037 184.9893
  A 0.54 0.54 0.0 0 0 314.5567 185.5159
  L 316.7161 185.4632
  A 0.54 0.54 0.0 0 0 317.2427 184.9101
  L 317.1963 183.0107
  Z
  M 239.9981 185.9674
  A 0.41 0.41 0.0 0 0 239.5874 185.5581
  L 237.4074 185.5619
  A 0.41 0.41 0.0 0 0 236.9981 185.9726
  L 237.0019 188.1126
  A 0.41 0.41 0.0 0 0 237.4126 188.5219
  L 239.5926 188.5181
  A 0.41 0.41 0.0 0 0 240.0019 188.1074
  L 239.9981 185.9674
  Z
  M 313.6458 186.2129
  A 0.69 0.69 0.0 0 0 312.9439 185.5350
  L 311.2041 185.5654
  A 0.69 0.69 0.0 0 0 310.5263 186.2673
  L 310.5542 187.8671
  A 0.69 0.69 0.0 0 0 311.2561 188.5450
  L 312.9959 188.5146
  A 0.69 0.69 0.0 0 0 313.6737 187.8127
  L 313.6458 186.2129
  Z
  M 243.6903 189.4304
  A 0.69 0.69 0.0 0 0 242.9755 188.7662
  L 241.0768 188.8358
  A 0.69 0.69 0.0 0 0 240.4125 189.5506
  L 240.4697 191.1096
  A 0.69 0.69 0.0 0 0 241.1845 191.7738
  L 243.0832 191.7042
  A 0.69 0.69 0.0 0 0 243.7475 190.9894
  L 243.6903 189.4304
  Z
  M 248.2968 189.2908
  A 0.51 0.51 0.0 0 0 247.7904 188.7772
  L 245.7304 188.7628
  A 0.51 0.51 0.0 0 0 245.2169 189.2693
  L 245.2032 191.2292
  A 0.51 0.51 0.0 0 0 245.7096 191.7428
  L 247.7696 191.7572
  A 0.51 0.51 0.0 0 0 248.2831 191.2507
  L 248.2968 189.2908
  Z
  M 253.2180 189.4763
  A 0.67 0.67 0.0 0 0 252.5718 188.7834
  L 250.7129 188.7185
  A 0.67 0.67 0.0 0 0 250.0199 189.3647
  L 249.9620 191.0237
  A 0.67 0.67 0.0 0 0 250.6082 191.7166
  L 252.4671 191.7815
  A 0.67 0.67 0.0 0 0 253.1601 191.1353
  L 253.2180 189.4763
  Z
  M 257.8616 189.3528
  A 0.58 0.58 0.0 0 0 257.2826 188.7718
  L 255.2426 188.7682
  A 0.58 0.58 0.0 0 0 254.6616 189.3472
  L 254.6584 191.1672
  A 0.58 0.58 0.0 0 0 255.2374 191.7482
  L 257.2774 191.7518
  A 0.58 0.58 0.0 0 0 257.8584 191.1728
  L 257.8616 189.3528
  Z
  M 262.7126 189.3959
  A 0.66 0.66 0.0 0 0 262.0469 188.7417
  L 260.1269 188.7584
  A 0.66 0.66 0.0 0 0 259.4727 189.4242
  L 259.4874 191.1041
  A 0.66 0.66 0.0 0 0 260.1531 191.7583
  L 262.0731 191.7416
  A 0.66 0.66 0.0 0 0 262.7273 191.0758
  L 262.7126 189.3959
  Z
  M 267.49 189.26
  A 0.51 0.51 0.0 0 0 266.98 188.75
  L 264.70 188.75
  A 0.51 0.51 0.0 0 0 264.19 189.26
  L 264.19 191.24
  A 0.51 0.51 0.0 0 0 264.70 191.75
  L 266.98 191.75
  A 0.51 0.51 0.0 0 0 267.49 191.24
  L 267.49 189.26
  Z
  M 272.2104 189.4160
  A 0.59 0.59 0.0 0 0 271.6414 188.8058
  L 269.6426 188.7360
  A 0.59 0.59 0.0 0 0 269.0324 189.3051
  L 268.9696 191.1040
  A 0.59 0.59 0.0 0 0 269.5386 191.7142
  L 271.5374 191.7840
  A 0.59 0.59 0.0 0 0 272.1476 191.2149
  L 272.2104 189.4160
  Z
  M 276.99 189.31
  A 0.56 0.56 0.0 0 0 276.43 188.75
  L 274.25 188.75
  A 0.56 0.56 0.0 0 0 273.69 189.31
  L 273.69 191.17
  A 0.56 0.56 0.0 0 0 274.25 191.73
  L 276.43 191.73
  A 0.56 0.56 0.0 0 0 276.99 191.17
  L 276.99 189.31
  Z
  M 281.7351 189.4381
  A 0.63 0.63 0.0 0 0 281.1241 188.7897
  L 279.1649 188.7316
  A 0.63 0.63 0.0 0 0 278.5165 189.3426
  L 278.4649 191.0819
  A 0.63 0.63 0.0 0 0 279.0759 191.7303
  L 281.0351 191.7884
  A 0.63 0.63 0.0 0 0 281.6835 191.1774
  L 281.7351 189.4381
  Z
  M 286.5148 189.2520
  A 0.50 0.50 0.0 0 0 286.0122 188.7546
  L 283.9522 188.7654
  A 0.50 0.50 0.0 0 0 283.4548 189.2680
  L 283.4652 191.2480
  A 0.50 0.50 0.0 0 0 283.9678 191.7454
  L 286.0278 191.7346
  A 0.50 0.50 0.0 0 0 286.5252 191.2320
  L 286.5148 189.2520
  Z
  M 291.2997 189.3346
  A 0.53 0.53 0.0 0 0 290.7810 188.7936
  L 288.5614 188.7471
  A 0.53 0.53 0.0 0 0 288.0205 189.2659
  L 287.9803 191.1854
  A 0.53 0.53 0.0 0 0 288.4990 191.7264
  L 290.7186 191.7729
  A 0.53 0.53 0.0 0 0 291.2595 191.2541
  L 291.2997 189.3346
  Z
  M 296.0336 189.2253
  A 0.46 0.46 0.0 0 0 295.5752 188.7637
  L 293.4352 188.7563
  A 0.46 0.46 0.0 0 0 292.9736 189.2147
  L 292.9664 191.2747
  A 0.46 0.46 0.0 0 0 293.4248 191.7363
  L 295.5648 191.7437
  A 0.46 0.46 0.0 0 0 296.0264 191.2853
  L 296.0336 189.2253
  Z
  M 300.7808 189.2844
  A 0.48 0.48 0.0 0 0 300.3110 188.7944
  L 298.0115 188.7462
  A 0.48 0.48 0.0 0 0 297.5215 189.2161
  L 297.4792 191.2356
  A 0.48 0.48 0.0 0 0 297.9490 191.7256
  L 300.2485 191.7738
  A 0.48 0.48 0.0 0 0 300.7385 191.3039
  L 300.7808 189.2844
  Z
  M 305.5064 189.2247
  A 0.47 0.47 0.0 0 0 305.0348 188.7563
  L 302.9348 188.7637
  A 0.47 0.47 0.0 0 0 302.4664 189.2353
  L 302.4736 191.2753
  A 0.47 0.47 0.0 0 0 302.9452 191.7437
  L 305.0452 191.7363
  A 0.47 0.47 0.0 0 0 305.5136 191.2647
  L 305.5064 189.2247
  Z
  M 310.3025 189.3703
  A 0.53 0.53 0.0 0 0 309.7856 188.8276
  L 307.5662 188.7733
  A 0.53 0.53 0.0 0 0 307.0235 189.2902
  L 306.9775 191.1697
  A 0.53 0.53 0.0 0 0 307.4944 191.7124
  L 309.7138 191.7667
  A 0.53 0.53 0.0 0 0 310.2565 191.2498
  L 310.3025 189.3703
  Z"
/>
<path fill="#263238" d="
  M 39.59 190.28
  Q 33.06 183.88 28.05 186.46
  Q 23.82 188.64 20.69 194.59
  Q 20.44 195.06 19.93 194.90
  Q 19.64 194.80 19.53 194.55
  L 18.93 192.09
  Q 20.38 185.77 24.92 181.57
  C 32.04 174.96 37.52 185.02 39.59 190.28
  Z"
/>
<path fill="#263238" d="
  M 161.86 189.68
  Q 152.59 184.12 144.59 186.56
  Q 137.81 188.63 131.31 196.44
  C 136.51 181.19 150.62 170.74 161.86 189.68
  Z"
/>
<rect fill="#515b60" x="-1.69" y="-1.33" transform="translate(231.64,180.96) rotate(-2.2)" width="3.38" height="2.66" rx="0.87"/>
<circle fill="#515b60" cx="318.91" cy="180.96" r="1.35"/>
<path fill="#263238" d="
  M 335.23 180.87
  L 336.50 186.29
  L 328.46 186.37
  Q 327.88 186.38 327.43 185.99
  L 322.50 181.76
  A 0.46 0.45 65.1 0 1 322.79 180.96
  L 335.23 180.87
  Z"
/>
<path fill="#263238" d="
  M 207.96 186.39
  L 184.56 186.37
  A 0.41 0.41 0.0 0 1 184.15 185.96
  L 184.14 181.41
  A 0.41 0.41 0.0 0 1 184.55 181.00
  L 213.36 181.01
  A 0.41 0.41 0.0 0 1 213.62 181.73
  L 208.22 186.29
  A 0.41 0.41 0.0 0 1 207.96 186.39
  Z"
/>
<rect fill="#515b60" x="-1.61" y="-1.51" transform="translate(235.11,183.97) rotate(-2.0)" width="3.22" height="3.02" rx="0.85"/>
<rect fill="#515b60" x="-1.62" y="-1.49" transform="translate(315.60,184.00) rotate(-1.4)" width="3.24" height="2.98" rx="0.54"/>
<rect fill="#515b60" x="-1.50" y="-1.48" transform="translate(238.50,187.04) rotate(-0.1)" width="3.00" height="2.96" rx="0.41"/>
<rect fill="#515b60" x="-1.56" y="-1.49" transform="translate(312.10,187.04) rotate(-1.0)" width="3.12" height="2.98" rx="0.69"/>
<path fill="#515b60" d="
  M 39.59 190.28
  Q 45.61 206.58 45.33 226.20
  Q 45.91 237.61 38.91 247.15
  Q 35.16 252.27 27.55 251.49
  Q 20.99 247.70 18.09 238.43
  Q 13.64 224.23 15.58 209.68
  Q 16.82 202.00 19.53 194.55
  Q 19.64 194.80 19.93 194.90
  Q 20.44 195.06 20.69 194.59
  Q 23.82 188.64 28.05 186.46
  Q 33.06 183.88 39.59 190.28
  Z
  M 31.2700 244.7700
  A 26.05 12.06 90.0 0 0 43.3300 218.7200
  A 26.05 12.06 90.0 0 0 31.2700 192.6700
  A 26.05 12.06 90.0 0 0 19.2100 218.7200
  A 26.05 12.06 90.0 0 0 31.2700 244.7700
  Z"
/>
<path fill="#515b60" d="
  M 161.86 189.68
  Q 168.72 202.49 170.01 218.76
  Q 169.30 218.78 169.05 219.24
  C 169.21 209.75 165.46 199.61 157.21 194.74
  C 147.82 189.20 138.19 195.32 133.97 204.18
  Q 131.07 210.26 130.73 217.99
  C 130.30 227.59 134.77 239.96 144.45 243.70
  C 150.30 245.96 156.84 244.39 161.11 239.86
  Q 165.45 235.26 167.58 229.18
  Q 169.26 228.41 169.18 225.00
  Q 169.17 224.28 169.86 224.35
  Q 170.16 224.39 170.17 224.68
  L 170.35 230.99
  Q 170.38 231.77 171.13 231.57
  Q 171.33 231.51 171.53 231.48
  Q 172.14 231.36 171.97 231.96
  Q 167.70 246.91 153.06 251.57
  A 0.38 0.38 0.0 0 0 153.02 252.27
  Q 153.37 252.44 153.99 252.32
  Q 143.89 253.54 136.69 247.57
  Q 129.25 241.39 126.48 231.39
  L 126.08 223.42
  Q 126.55 208.93 131.31 196.44
  Q 137.81 188.63 144.59 186.56
  Q 152.59 184.12 161.86 189.68
  Z"
/>
<rect fill="#515b60" x="-1.64" y="-1.47" transform="translate(242.08,190.27) rotate(-2.1)" width="3.28" height="2.94" rx="0.69"/>
<rect fill="#515b60" x="-1.54" y="-1.49" transform="translate(246.75,190.26) rotate(0.4)" width="3.08" height="2.98" rx="0.51"/>
<rect fill="#515b60" x="-1.60" y="-1.50" transform="translate(251.59,190.25) rotate(2.0)" width="3.20" height="3.00" rx="0.67"/>
<rect fill="#515b60" x="-1.60" y="-1.49" transform="translate(256.26,190.26) rotate(0.1)" width="3.20" height="2.98" rx="0.58"/>
<rect fill="#515b60" x="-1.62" y="-1.50" transform="translate(261.10,190.25) rotate(-0.5)" width="3.24" height="3.00" rx="0.66"/>
<rect fill="#515b60" x="264.19" y="188.75" width="3.30" height="3.00" rx="0.51"/>
<rect fill="#515b60" x="-1.59" y="-1.49" transform="translate(270.59,190.26) rotate(2.0)" width="3.18" height="2.98" rx="0.59"/>
<rect fill="#515b60" x="273.69" y="188.75" width="3.30" height="2.98" rx="0.56"/>
<rect fill="#515b60" x="-1.61" y="-1.50" transform="translate(280.10,190.26) rotate(1.7)" width="3.22" height="3.00" rx="0.63"/>
<rect fill="#515b60" x="-1.53" y="-1.49" transform="translate(284.99,190.25) rotate(-0.3)" width="3.06" height="2.98" rx="0.50"/>
<rect fill="#515b60" x="-1.64" y="-1.49" transform="translate(289.64,190.26) rotate(1.2)" width="3.28" height="2.98" rx="0.53"/>
<rect fill="#515b60" x="-1.53" y="-1.49" transform="translate(294.50,190.25) rotate(0.2)" width="3.06" height="2.98" rx="0.46"/>
<rect fill="#515b60" x="-1.63" y="-1.49" transform="translate(299.13,190.26) rotate(1.2)" width="3.26" height="2.98" rx="0.48"/>
<rect fill="#515b60" x="-1.52" y="-1.49" transform="translate(303.99,190.25) rotate(-0.2)" width="3.04" height="2.98" rx="0.47"/>
<rect fill="#515b60" x="-1.64" y="-1.47" transform="translate(308.64,190.27) rotate(1.4)" width="3.28" height="2.94" rx="0.53"/>
<path fill="#263238" d="
  M 337.60 194.40
  Q 339.54 206.34 339.13 219.03
  Q 336.84 218.10 335.74 214.77
  A 0.77 0.76 -8.8 0 0 335.01 214.24
  L 326.03 214.26
  A 0.35 0.34 -26.6 0 0 325.82 214.88
  L 331.25 219.00
  Q 332.24 219.75 330.99 219.75
  L 221.35 219.75
  A 0.42 0.42 0.0 0 1 221.01 219.09
  L 224.03 214.76
  Q 224.37 214.28 223.78 214.27
  Q 211.71 214.20 199.73 214.25
  C 194.79 214.28 192.48 218.32 187.75 218.27
  Q 185.94 218.25 184.15 218.25
  Q 183.63 218.25 183.63 217.72
  L 183.63 191.96
  A 0.38 0.38 0.0 0 1 184.31 191.72
  L 197.00 207.75
  A 1.64 1.60 70.2 0 0 198.26 208.36
  L 334.76 208.36
  Q 335.27 208.36 335.36 207.86
  L 337.60 194.40
  Z"
/>
<ellipse fill="#ffffff" cx="0.00" cy="0.00" transform="translate(31.27,218.72) rotate(90.0)" rx="26.05" ry="12.06"/>
<path fill="#ffffff" d="
  M 169.05 219.24
  L 167.58 229.18
  Q 165.45 235.26 161.11 239.86
  C 156.84 244.39 150.30 245.96 144.45 243.70
  C 134.77 239.96 130.30 227.59 130.73 217.99
  Q 131.07 210.26 133.97 204.18
  C 138.19 195.32 147.82 189.20 157.21 194.74
  C 165.46 199.61 169.21 209.75 169.05 219.24
  Z"
/>
<path fill="#263238" d="
  M 170.01 218.76
  L 170.11 222.84
  Q 170.13 223.37 170.66 223.37
  L 339.34 223.38
  L 339.29 230.97
  Q 339.28 231.50 338.75 231.50
  L 333.24 231.50
  A 0.75 0.73 -81.4 0 0 332.54 232.03
  C 330.28 239.90 324.92 248.21 317.01 251.16
  Q 313.59 252.43 306.08 252.41
  C 300.44 252.39 293.30 253.16 288.32 251.07
  C 280.36 247.73 275.20 240.10 272.90 231.99
  Q 272.76 231.50 272.24 231.52
  L 269.92 231.61
  L 264.09 231.52
  L 190.33 231.51
  Q 189.93 231.51 189.82 231.89
  C 186.98 241.73 178.80 251.70 168.01 252.37
  Q 164.90 252.56 153.99 252.32
  Q 153.37 252.44 153.02 252.27
  A 0.38 0.38 0.0 0 1 153.06 251.57
  Q 167.70 246.91 171.97 231.96
  Q 172.14 231.36 171.53 231.48
  Q 171.33 231.51 171.13 231.57
  Q 170.38 231.77 170.35 230.99
  L 170.17 224.68
  Q 170.16 224.39 169.86 224.35
  Q 169.17 224.28 169.18 225.00
  Q 169.26 228.41 167.58 229.18
  L 169.05 219.24
  Q 169.30 218.78 170.01 218.76
  Z"
/>
<path fill="#263238" d="
  M 126.08 223.42
  L 126.48 231.39
  L 119.17 231.54
  L 91.26 231.53
  L 62.09 231.52
  Q 61.55 231.52 61.27 231.98
  Q 60.68 232.95 60.53 234.50
  Q 58.56 243.75 52.94 249.44
  Q 48.74 253.69 40.91 252.25
  L 32.54 252.40
  Q 30.29 252.64 27.55 251.49
  Q 35.16 252.27 38.91 247.15
  Q 45.91 237.61 45.33 226.20
  Q 48.33 225.29 51.11 224.41
  Q 54.05 223.47 57.03 223.46
  Q 91.23 223.26 126.08 223.42
  Z"
/>
<path fill="#00b228" d="
  M 91.26 231.53
  L 90.75 234.11
  L 74.22 234.31
  L 66.24 234.70
  L 60.53 234.50
  Q 60.68 232.95 61.27 231.98
  Q 61.55 231.52 62.09 231.52
  L 91.26 231.53
  Z"
/>
<path fill="#007d1c" d="
  M 91.26 231.53
  L 119.17 231.54
  Q 119.41 232.58 119.24 233.28
  Q 119.11 233.81 118.56 233.82
  L 90.75 234.11
  L 91.26 231.53
  Z"
/>
<path fill="#ffffff" d="
  M 119.17 231.54
  L 126.48 231.39
  Q 129.25 241.39 136.69 247.57
  Q 143.89 253.54 153.99 252.32
  Q 164.90 252.56 168.01 252.37
  C 178.80 251.70 186.98 241.73 189.82 231.89
  Q 189.93 231.51 190.33 231.51
  L 264.09 231.52
  Q 236.91 273.67 187.72 283.64
  C 144.85 292.33 98.70 272.38 74.18 236.53
  Q 73.80 235.98 73.77 235.46
  Q 73.72 234.48 74.22 234.31
  L 90.75 234.11
  L 118.56 233.82
  Q 119.11 233.81 119.24 233.28
  Q 119.41 232.58 119.17 231.54
  Z"
/>
<path fill="#f0fffa" d="
  M 264.09 231.52
  L 269.92 231.61
  Q 267.50 237.24 262.94 243.18
  Q 235.06 279.50 190.99 288.50
  C 170.19 292.76 146.92 291.22 126.71 283.81
  Q 88.71 269.90 66.24 234.70
  L 74.22 234.31
  Q 73.72 234.48 73.77 235.46
  Q 73.80 235.98 74.18 236.53
  C 98.70 272.38 144.85 292.33 187.72 283.64
  Q 236.91 273.67 264.09 231.52
  Z"
/>
<path fill="#f0fffa" d="
  M 40.91 252.25
  L 39.54 252.40
  Q 37.99 252.57 38.84 253.88
  Q 69.39 300.98 123.05 318.26
  Q 123.75 318.48 123.62 319.21
  L 123.19 321.57
  A 1.82 1.82 0.0 0 1 120.84 322.98
  Q 64.91 304.91 33.44 255.54
  Q 32.51 254.09 32.54 252.40
  L 40.91 252.25
  Z"
/>
</svg>
