<svg width="115" height="107" viewBox="0 0 115 107" fill="none" xmlns="http://www.w3.org/2000/svg">
<path d="M114.07 23.9923L98.9984 5.20362C97.0188 2.73268 93.5373 2.19575 90.9018 3.95536C89.5305 4.87074 88.6073 6.26581 88.304 7.88669C88.0008 9.50556 88.3557 11.1424 89.3027 12.4896L98.4772 25.536L95.9766 28.0386C95.4278 28.5854 95.1126 29.3463 95.1126 30.1232V51.5195H103.039V69.3531C103.039 74.8142 98.5941 79.2607 93.131 79.2607C87.6679 79.2607 83.2234 74.8142 83.2234 69.3531V59.4455V57.4639V27.7414C83.2234 22.2783 78.7789 17.8338 73.3158 17.8338C71.0768 17.8338 69.0319 18.6066 67.3712 19.8648V5.53247C67.3712 2.48105 64.8884 0 61.8388 0H5.53247C2.48284 0.000224468 0 2.48105 0 5.53247V43.5933H67.3715V39.6303V27.7411C67.3715 24.4617 70.0386 21.7965 73.3161 21.7965C76.5935 21.7965 79.2607 24.4617 79.2607 27.7411V57.4641V59.4457V69.3533C79.2607 77 85.4845 83.2239 93.1312 83.2239C100.778 83.2239 107.002 77 107.002 69.3533V51.5197H114.928V26.4316C114.928 25.5497 114.625 24.6839 114.07 23.9923ZM15.8522 37.6489C12.5747 37.6489 9.90758 34.9818 9.90758 31.7044C9.90758 28.4249 12.5747 25.7598 15.8522 25.7598C19.1296 25.7598 21.7968 28.4249 21.7968 31.7044C21.7965 34.9818 19.1294 37.6489 15.8522 37.6489ZM15.8522 21.7968C12.5747 21.7968 9.90758 19.1296 9.90758 15.8522C9.90758 12.5727 12.5747 9.90758 15.8522 9.90758C19.1296 9.90758 21.7965 12.5729 21.7965 15.8522C21.7965 19.1296 19.1294 21.7968 15.8522 21.7968ZM59.4455 34.1396C59.4455 36.0757 57.8722 37.6489 55.9362 37.6489H31.2505C29.3144 37.6489 27.7411 36.0757 27.7411 34.1396V29.2671C27.7411 27.331 29.3144 25.7598 31.2505 25.7598H55.9362C57.8722 25.7598 59.4455 27.331 59.4455 29.2671V34.1396ZM59.4455 18.2874C59.4455 20.2235 57.8722 21.7968 55.9362 21.7968H31.2505C29.3144 21.7968 27.7411 20.2235 27.7411 18.2874V13.4149C27.7411 11.4789 29.3144 9.90758 31.2505 9.90758H55.9362C57.8722 9.90758 59.4455 11.4789 59.4455 13.4149V18.2874Z" fill="#1B9E76"/>
<path d="M15.8517 33.6849C16.9461 33.6849 17.8333 32.7977 17.8333 31.7033C17.8333 30.6089 16.9461 29.7217 15.8517 29.7217C14.7573 29.7217 13.8701 30.6089 13.8701 31.7033C13.8701 32.7977 14.7573 33.6849 15.8517 33.6849Z" fill="#1B9E76"/>
<path d="M55.4823 29.7217H31.7041V33.6847H55.4823V29.7217Z" fill="#1B9E76"/>
<path d="M55.4823 13.8691H31.7041V17.8321H55.4823V13.8691Z" fill="#1B9E76"/>
<path d="M15.8517 17.8324C16.9461 17.8324 17.8333 16.9452 17.8333 15.8507C17.8333 14.7563 16.9461 13.8691 15.8517 13.8691C14.7573 13.8691 13.8701 14.7563 13.8701 15.8507C13.8701 16.9452 14.7573 17.8324 15.8517 17.8324Z" fill="#1B9E76"/>
<path d="M53.5004 57.4634H13.8701V93.1307H53.5004V57.4634ZM25.7593 63.408H41.6115C42.7073 63.408 43.5931 64.2937 43.5931 65.3896C43.5931 66.4854 42.7073 67.3712 41.6115 67.3712H25.7593C24.6635 67.3712 23.7777 66.4854 23.7777 65.3896C23.7777 64.2937 24.6635 63.408 25.7593 63.408ZM41.6113 87.1861H25.7591C24.6632 87.1861 23.7775 86.3004 23.7775 85.2045C23.7775 84.1087 24.6632 83.2229 25.7591 83.2229H41.6113C42.7071 83.2229 43.5929 84.1087 43.5929 85.2045C43.5929 86.3004 42.7071 87.1861 41.6113 87.1861ZM45.5742 77.2785H21.7961C20.7002 77.2785 19.8145 76.3928 19.8145 75.2969C19.8145 74.2011 20.7002 73.3153 21.7961 73.3153H45.5742C46.6701 73.3153 47.5559 74.2011 47.5559 75.2969C47.5559 76.3928 46.6701 77.2785 45.5742 77.2785Z" fill="#1B9E76"/>
<path d="M0 101.468C0 104.519 2.48284 107 5.53247 107H61.8392C64.8888 107 67.3717 104.519 67.3717 101.468V47.5547H0V101.468ZM9.90758 57.2562C9.90758 55.1855 11.5938 53.4993 13.6645 53.4993H53.707C55.7777 53.4993 57.4639 55.1855 57.4639 57.2562V93.3377C57.4639 95.4084 55.7777 97.0926 53.707 97.0926H13.6645C11.5938 97.0926 9.90758 95.4084 9.90758 93.3377V57.2562Z" fill="#1B9E76"/>
</svg>
