<svg width="22" height="25" viewBox="0 0 22 25" fill="none" xmlns="http://www.w3.org/2000/svg">
<g clip-path="url(#clip0_148_11)">
<path d="M10.6023 19.7661V11.7343C10.8361 11.7553 11.0607 11.7663 11.2972 11.7663C12.4183 11.7663 13.4733 11.473 14.368 10.9478V19.7643C14.368 20.5178 14.1893 21.0742 13.8409 21.4454C13.4944 21.8148 13.0343 22 12.4742 22C11.9242 22 11.4869 21.8148 11.1285 21.4335C10.782 21.0641 10.6023 20.5077 10.6023 19.7661ZM10.6234 0.518834C12.9563 -0.299749 15.6119 -0.255749 17.6075 1.42358C17.9788 1.76183 18.4023 2.18717 18.5709 2.68858C18.7726 3.32292 17.8651 2.62167 17.7404 2.5355C17.0896 2.12025 16.4406 1.77192 15.7128 1.53267C11.7885 0.354751 8.07784 2.48325 5.77059 5.78875C4.80626 7.24992 4.17834 8.78808 3.66226 10.4793C3.60726 10.6645 3.56234 10.9056 3.46059 11.0678C3.35792 11.2539 3.41659 10.5673 3.41659 10.5453C3.49359 9.84592 3.64026 9.17033 3.82084 8.49475C4.88601 4.89225 7.23909 1.89383 10.6243 0.518834M15.1417 6.98958C15.1417 7.72379 14.85 8.42793 14.3308 8.94709C13.8117 9.46626 13.1075 9.75792 12.3733 9.75792C11.6391 9.75792 10.935 9.46626 10.4158 8.94709C9.89667 8.42793 9.60501 7.72379 9.60501 6.98958C9.60501 6.25538 9.89667 5.55124 10.4158 5.03208C10.935 4.51291 11.6391 4.22125 12.3733 4.22125C13.1075 4.22125 13.8117 4.51291 14.3308 5.03208C14.85 5.55124 15.1417 6.25538 15.1417 6.98958Z" fill="#1A9E75"/>
</g>
<mask id="mask0_148_11" style="mask-type:alpha" maskUnits="userSpaceOnUse" x="0" y="3" width="22" height="22">
<rect y="3" width="22" height="22" fill="#D9D9D9"/>
</mask>
<g mask="url(#mask0_148_11)">
</g>
<defs>
<clipPath id="clip0_148_11">
<rect width="22" height="22" fill="white"/>
</clipPath>
</defs>
</svg>
