<svg width="22" height="22" viewBox="0 0 22 22" fill="none" xmlns="http://www.w3.org/2000/svg">
<mask id="mask0_5252_5037" style="mask-type:alpha" maskUnits="userSpaceOnUse" x="0" y="0" width="22" height="22">
<rect width="22" height="22" fill="#D9D9D9"/>
</mask>
<g mask="url(#mask0_5252_5037)">
<path d="M3.66683 18.3327C3.16266 18.3327 2.73107 18.1532 2.37204 17.7941C2.01301 17.4351 1.8335 17.0035 1.8335 16.4993V5.49935C1.8335 4.99518 2.01301 4.56359 2.37204 4.20456C2.73107 3.84553 3.16266 3.66602 3.66683 3.66602H18.3335C18.8377 3.66602 19.2693 3.84553 19.6283 4.20456C19.9873 4.56359 20.1668 4.99518 20.1668 5.49935V16.4993C20.1668 17.0035 19.9873 17.4351 19.6283 17.7941C19.2693 18.1532 18.8377 18.3327 18.3335 18.3327H3.66683ZM11.0002 11.916L18.3335 7.33268V5.49935L11.0002 10.0827L3.66683 5.49935V7.33268L11.0002 11.916Z" fill="#1A9E75"/>
</g>
</svg>
