<svg width="97" height="96" viewBox="0 0 97 96" fill="none" xmlns="http://www.w3.org/2000/svg">
<g id="city-icon 1" clip-path="url(#clip0_1624_379)">
<g id="Group">
<path id="Vector" fill-rule="evenodd" clip-rule="evenodd" d="M7.77547 79.0177H20.232C20.3662 79.0177 20.4767 79.1283 20.4767 79.2625V82.8305C20.4767 82.9647 20.3662 83.0752 20.232 83.0752H7.77547C7.64128 83.0752 7.53076 82.9647 7.53076 82.8305V79.2625C7.53076 79.1283 7.64128 79.0177 7.77547 79.0177ZM76.5627 54.1441H89.0193C89.1535 54.1441 89.264 54.2546 89.264 54.3888V57.949C89.264 58.0832 89.1535 58.1937 89.0193 58.1937H76.5627C76.4286 58.1937 76.318 58.0832 76.318 57.949V54.3888C76.3259 54.2546 76.4286 54.1441 76.5627 54.1441ZM76.5627 79.2072H89.0193C89.1535 79.2072 89.264 79.3177 89.264 79.4519V83.0199C89.264 83.1541 89.1535 83.2646 89.0193 83.2646H76.5627C76.4286 83.2646 76.318 83.1541 76.318 83.0199V79.4519C76.3259 79.3177 76.4286 79.2072 76.5627 79.2072ZM76.5627 70.295H89.0193C89.1535 70.295 89.264 70.4055 89.264 70.5397V74.1077C89.264 74.2419 89.1535 74.3525 89.0193 74.3525H76.5627C76.4286 74.3525 76.318 74.2419 76.318 74.1077V70.5397C76.3259 70.4055 76.4286 70.295 76.5627 70.295ZM76.5627 62.2196H89.0193C89.1535 62.2196 89.264 62.3301 89.264 62.4643V66.0323C89.264 66.1665 89.1535 66.277 89.0193 66.277H76.5627C76.4286 66.277 76.318 66.1665 76.318 66.0323V62.4643C76.3259 62.3301 76.4286 62.2196 76.5627 62.2196ZM68.4005 93.6451V16.6166L28.418 2.27344V93.6451H26.1445V40.7956L2.27344 34.2752V93.6451H68.4005ZM1.13672 95.9185C0.505208 95.9185 0 95.4054 0 94.7818V33.6674C0 33.2096 0.189453 32.7912 0.489421 32.4833C0.789388 32.1833 1.20776 31.9939 1.6735 31.9939L26.1445 38.5142V1.99715C26.1445 0.884115 27.0129 0 28.1417 0L68.6768 14.3432C69.774 14.3432 70.6818 15.2431 70.6818 16.3403V38.5142L95.3265 31.9939C95.7844 31.9939 96.2027 32.1833 96.5027 32.4833L96.5106 32.4912C96.8106 32.7912 97 33.2096 97 33.6674V94.7818C97 95.4133 96.4869 95.9185 95.8633 95.9185H1.13672ZM56.5754 78.4257H63.2774C63.38 78.4257 63.4668 78.5125 63.4668 78.6152V85.3171C63.4668 85.4197 63.38 85.5065 63.2774 85.5065H56.5754C56.4728 85.5065 56.386 85.4197 56.386 85.3171V78.6152C56.386 78.5125 56.4728 78.4257 56.5754 78.4257ZM45.0583 78.4257H51.7602C51.8628 78.4257 51.9496 78.5125 51.9496 78.6152V85.3171C51.9496 85.4197 51.8628 85.5065 51.7602 85.5065H45.0583C44.9557 85.5065 44.8688 85.4197 44.8688 85.3171V78.6152C44.8688 78.5125 44.9557 78.4257 45.0583 78.4257ZM33.5411 78.4257H40.243C40.3456 78.4257 40.4325 78.5125 40.4325 78.6152V85.3171C40.4325 85.4197 40.3456 85.5065 40.243 85.5065H33.5411C33.4385 85.5065 33.3516 85.4197 33.3516 85.3171V78.6152C33.3516 78.5125 33.4385 78.4257 33.5411 78.4257ZM7.66496 70.3897H20.2162C20.3188 70.3897 20.4057 70.4529 20.4057 70.5239V74.234C20.4057 74.3051 20.3188 74.3761 20.2162 74.3761H7.66496C7.56234 74.3761 7.47551 74.313 7.47551 74.234V70.5239C7.47551 70.4529 7.56234 70.3897 7.66496 70.3897ZM33.5174 10.7751L63.3089 21.0293C63.8062 21.0293 64.2167 21.4398 64.2167 21.9371V45.2398C64.2167 45.7371 63.8062 46.1476 63.3089 46.1476H33.5174C33.0201 46.1476 32.6096 45.7371 32.6096 45.2398V11.6829C32.6017 11.1777 33.0201 10.7751 33.5174 10.7751ZM7.66496 62.2827H20.2162C20.3188 62.2827 20.4057 62.3459 20.4057 62.4248V66.1349C20.4057 66.206 20.3188 66.277 20.2162 66.277H7.66496C7.56234 66.277 7.47551 66.2139 7.47551 66.1349V62.4248C7.47551 62.338 7.56234 62.2827 7.66496 62.2827ZM7.66496 54.1678H20.2162C20.3188 54.1678 20.4057 54.231 20.4057 54.3099V58.02C20.4057 58.0911 20.3188 58.1621 20.2162 58.1621H7.66496C7.56234 58.1621 7.47551 58.099 7.47551 58.02V54.3099C7.47551 54.231 7.56234 54.1678 7.66496 54.1678ZM56.5754 66.6717H63.2774C63.38 66.6717 63.4668 66.7585 63.4668 66.8612V73.5631C63.4668 73.6657 63.38 73.7525 63.2774 73.7525H56.5754C56.4728 73.7525 56.386 73.6657 56.386 73.5631V66.8612C56.386 66.7585 56.4728 66.6717 56.5754 66.6717ZM45.0583 66.6717H51.7602C51.8628 66.6717 51.9496 66.7585 51.9496 66.8612V73.5631C51.9496 73.6657 51.8628 73.7525 51.7602 73.7525H45.0583C44.9557 73.7525 44.8688 73.6657 44.8688 73.5631V66.8612C44.8688 66.7585 44.9557 66.6717 45.0583 66.6717ZM33.5411 66.6717H40.243C40.3456 66.6717 40.4325 66.7585 40.4325 66.8612V73.5631C40.4325 73.6657 40.3456 73.7525 40.243 73.7525H33.5411C33.4385 73.7525 33.3516 73.6657 33.3516 73.5631V66.8612C33.3516 66.7585 33.4385 66.6717 33.5411 66.6717ZM56.5754 53.6626H63.2774C63.38 53.6626 63.4668 53.7494 63.4668 53.8521V60.554C63.4668 60.6566 63.38 60.7434 63.2774 60.7434H56.5754C56.4728 60.7434 56.386 60.6566 56.386 60.554V53.8521C56.386 53.7494 56.4728 53.6626 56.5754 53.6626ZM45.0583 53.6626H51.7602C51.8628 53.6626 51.9496 53.7494 51.9496 53.8521V60.554C51.9496 60.6566 51.8628 60.7434 51.7602 60.7434H45.0583C44.9557 60.7434 44.8688 60.6566 44.8688 60.554V53.8521C44.8688 53.7494 44.9557 53.6626 45.0583 53.6626ZM33.5411 53.6626H40.243C40.3456 53.6626 40.4325 53.7494 40.4325 53.8521V60.554C40.4325 60.6566 40.3456 60.7434 40.243 60.7434H33.5411C33.4385 60.7434 33.3516 60.6566 33.3516 60.554V53.8521C33.3516 53.7494 33.4385 53.6626 33.5411 53.6626Z" fill="#3C3C3C"/>
</g>
</g>
<defs>
<clipPath id="clip0_1624_379">
<rect width="97" height="95.9185" fill="white"/>
</clipPath>
</defs>
</svg>
