<svg width="110" height="110" viewBox="0 0 110 110" fill="none" xmlns="http://www.w3.org/2000/svg">
<g id="money_svgrepo.com" clip-path="url(#clip0_1624_793)">
<path id="Vector" d="M106.562 24.0625H3.4375C2.52582 24.0625 1.65148 24.4247 1.00682 25.0693C0.362164 25.714 0 26.5883 0 27.5L0 82.5C0 83.4117 0.362164 84.286 1.00682 84.9307C1.65148 85.5753 2.52582 85.9375 3.4375 85.9375H106.562C107.474 85.9375 108.349 85.5753 108.993 84.9307C109.638 84.286 110 83.4117 110 82.5V27.5C110 26.5883 109.638 25.714 108.993 25.0693C108.349 24.4247 107.474 24.0625 106.562 24.0625ZM86.2469 79.0625H23.7531C23.0367 74.8466 21.0275 70.9576 18.0037 67.9338C14.9799 64.91 11.0909 62.9008 6.875 62.1844V47.8156C11.0909 47.0992 14.9799 45.09 18.0037 42.0662C21.0275 39.0424 23.0367 35.1534 23.7531 30.9375H86.2469C86.9633 35.1534 88.9725 39.0424 91.9963 42.0662C95.0201 45.09 98.9091 47.0992 103.125 47.8156V62.1844C98.9091 62.9008 95.0201 64.91 91.9963 67.9338C88.9725 70.9576 86.9633 74.8466 86.2469 79.0625ZM103.125 40.7687C100.76 40.1515 98.6032 38.9153 96.8752 37.1873C95.1472 35.4593 93.911 33.302 93.2937 30.9375H103.125V40.7687ZM16.7063 30.9375C16.089 33.302 14.8528 35.4593 13.1248 37.1873C11.3968 38.9153 9.23951 40.1515 6.875 40.7687V30.9375H16.7063ZM6.875 69.2313C9.23951 69.8485 11.3968 71.0847 13.1248 72.8127C14.8528 74.5407 16.089 76.698 16.7063 79.0625H6.875V69.2313ZM93.2937 79.0625C93.911 76.698 95.1472 74.5407 96.8752 72.8127C98.6032 71.0847 100.76 69.8485 103.125 69.2313V79.0625H93.2937Z" fill="#1B9E76"/>
<path id="Vector_2" d="M25.8157 2.44052C25.4242 2.21422 24.992 2.06737 24.5437 2.00838C24.0954 1.94939 23.6398 1.97943 23.2032 2.09677C22.3225 2.32555 21.5684 2.89418 21.1063 3.67802L14.2313 15.4686C13.7755 16.2618 13.6534 17.2036 13.8919 18.0867C14.1304 18.9699 14.71 19.7222 15.5032 20.178C16.2963 20.6339 17.2381 20.7559 18.1213 20.5174C19.0045 20.2789 19.7567 19.6993 20.2126 18.9061L25.3688 10.1061L42.7969 20.178C43.5901 20.6339 44.5319 20.7559 45.415 20.5174C46.2982 20.2789 47.0505 19.6993 47.5063 18.9061C47.9621 18.113 48.0842 17.1712 47.8457 16.288C47.6072 15.4049 47.0276 14.6526 46.2344 14.1968L25.8157 2.44052Z" fill="#1B9E76"/>
<path id="Vector_3" d="M84.1844 107.559C84.7049 107.868 85.2978 108.034 85.9031 108.04C86.1989 108.09 86.501 108.09 86.7969 108.04C87.6776 107.812 88.4316 107.243 88.8937 106.459L95.7687 94.6686C96.2246 93.8754 96.3467 92.9337 96.1081 92.0505C95.8696 91.1673 95.29 90.4151 94.4969 89.9592C93.7037 89.5034 92.7619 89.3813 91.8788 89.6198C90.9956 89.8583 90.2433 90.4379 89.7875 91.2311L84.7 100.031L67.2719 89.9592C66.4787 89.5034 65.5369 89.3813 64.6538 89.6198C63.7706 89.8583 63.0183 90.4379 62.5625 91.2311C62.1066 92.0243 61.9846 92.966 62.2231 93.8492C62.4616 94.7324 63.0412 95.4846 63.8344 95.9405L84.1844 107.559Z" fill="#1B9E76"/>
<path id="Vector_4" d="M55 34.375C50.9208 34.375 46.9331 35.5846 43.5414 37.8509C40.1496 40.1172 37.5061 43.3384 35.945 47.1072C34.3839 50.8759 33.9755 55.0229 34.7713 59.0237C35.5671 63.0246 37.5315 66.6996 40.4159 69.5841C43.3004 72.4685 46.9754 74.4329 50.9763 75.2287C54.9771 76.0245 59.1241 75.6161 62.8929 74.055C66.6616 72.494 69.8828 69.8504 72.1491 66.4586C74.4154 63.0669 75.625 59.0792 75.625 55C75.625 49.5299 73.452 44.2839 69.5841 40.4159C65.7161 36.548 60.4701 34.375 55 34.375ZM55 68.75C52.2805 68.75 49.6221 67.9436 47.3609 66.4327C45.0997 64.9218 43.3374 62.7744 42.2967 60.2619C41.256 57.7494 40.9837 54.9847 41.5142 52.3175C42.0448 49.6503 43.3543 47.2003 45.2773 45.2773C47.2003 43.3543 49.6503 42.0447 52.3175 41.5142C54.9848 40.9837 57.7494 41.256 60.2619 42.2967C62.7744 43.3374 64.9218 45.0997 66.4327 47.3609C67.9436 49.6221 68.75 52.2805 68.75 55C68.75 58.6467 67.3013 62.1441 64.7227 64.7227C62.1441 67.3013 58.6467 68.75 55 68.75Z" fill="#1B9E76"/>
</g>
<defs>
<clipPath id="clip0_1624_793">
<rect width="110" height="110" fill="white"/>
</clipPath>
</defs>
</svg>
