<?xml version="1.0" encoding="UTF-8" standalone="no"?>
<!DOCTYPE svg PUBLIC "-//W3C//DTD SVG 1.1//EN" "http://www.w3.org/Graphics/SVG/1.1/DTD/svg11.dtd">
<svg xmlns="http://www.w3.org/2000/svg" version="1.1" viewBox="0.00 0.00 361.00 323.00">
<g stroke-width="2.00" fill="none" stroke-linecap="butt">
<path stroke="#ffe49f" vector-effect="non-scaling-stroke" d="
  M 40.47 216.62
  Q 30.21 220.09 25.06 224.55
  C 16.48 231.97 15.42 246.23 17.70 256.37
  C 20.48 268.73 31.24 269.01 41.60 268.37
  Q 42.13 268.34 42.03 267.81
  Q 41.73 266.25 42.45 265.59"
/>
<path stroke="#a2adb2" vector-effect="non-scaling-stroke" d="
  M 42.45 265.59
  Q 43.60 265.79 45.05 265.43"
/>
<path stroke="#93999c" vector-effect="non-scaling-stroke" d="
  M 45.05 265.43
  Q 46.69 271.37 50.89 276.51"
/>
<path stroke="#d0cfcf" vector-effect="non-scaling-stroke" d="
  M 50.89 276.51
  Q 39.18 277.14 27.75 278.31
  Q 22.32 278.86 17.20 280.28
  A 0.57 0.57 0.0 0 0 17.12 281.35
  L 18.73 282.06"
/>
<path stroke="#f0f0f0" vector-effect="non-scaling-stroke" d="
  M 18.73 282.06
  C 28.04 284.54 37.66 284.51 47.60 284.58
  C 52.48 284.62 58.17 285.89 63.65 285.63
  Q 64.37 285.59 64.75 285.26
  Q 65.40 284.68 64.99 283.93"
/>
<path stroke="#a3a4a4" vector-effect="non-scaling-stroke" d="
  M 64.99 283.93
  L 74.05 283.55"
/>
<path stroke="#f0f0f0" vector-effect="non-scaling-stroke" d="
  M 74.05 283.55
  Q 77.23 283.93 80.43 283.80
  Q 82.56 283.71 84.78 282.47
  Q 88.71 280.27 92.72 278.51"
/>
<path stroke="#a3a4a4" vector-effect="non-scaling-stroke" d="
  M 92.72 278.51
  L 98.15 278.53"
/>
<path stroke="#d0cfcf" vector-effect="non-scaling-stroke" d="
  M 98.15 278.53
  Q 110.37 279.79 122.47 278.72
  Q 127.82 278.24 133.07 278.35
  C 141.21 278.52 151.20 277.41 157.50 277.61
  Q 167.67 277.94 170.97 277.74"
/>
<path stroke="#a3a4a4" vector-effect="non-scaling-stroke" d="
  M 170.97 277.74
  C 188.74 277.68 205.60 277.07 224.19 279.12"
/>
<path stroke="#f0f0f0" vector-effect="non-scaling-stroke" d="
  M 224.19 279.12
  Q 228.52 280.43 232.97 280.40
  Q 236.90 280.37 238.99 280.88
  Q 242.17 281.66 245.26 282.74
  Q 247.99 283.70 250.96 283.94
  Q 254.54 284.24 258.04 284.99
  Q 262.29 285.90 265.07 285.99
  C 280.89 286.52 296.40 285.11 314.50 283.88
  Q 319.87 283.51 325.81 282.07"
/>
<path stroke="#d0cfcf" vector-effect="non-scaling-stroke" d="
  M 325.81 282.07
  Q 330.66 280.60 322.00 278.99
  Q 312.71 277.26 290.64 276.38"
/>
<path stroke="#93999c" vector-effect="non-scaling-stroke" d="
  M 290.64 276.38
  Q 294.26 271.37 295.63 265.81"
/>
<path stroke="#a2adb2" vector-effect="non-scaling-stroke" d="
  M 295.63 265.81
  L 300.84 266.01"
/>
<path stroke="#ffe49f" vector-effect="non-scaling-stroke" d="
  M 300.84 266.01
  L 300.83 267.56
  Q 300.83 268.09 301.35 268.18
  C 311.30 269.82 322.02 267.65 324.53 256.36
  Q 324.66 255.80 325.21 255.62
  L 329.01 254.45
  A 0.93 0.93 0.0 0 0 329.66 253.59
  Q 330.08 241.45 327.38 229.78"
/>
<path stroke="#fff7e2" vector-effect="non-scaling-stroke" d="
  M 327.38 229.78
  Q 324.57 214.47 314.13 204.27"
/>
<path stroke="#ffe49f" vector-effect="non-scaling-stroke" d="
  M 314.13 204.27
  L 317.30 202.23
  Q 317.90 201.85 317.52 201.25
  L 315.49 198.07
  Q 315.22 197.64 314.72 197.75
  Q 309.63 198.91 305.55 196.85"
/>
<path stroke="#a2adb2" vector-effect="non-scaling-stroke" d="
  M 305.55 196.85
  L 303.76 195.58"
/>
<path stroke="#f8fffd" vector-effect="non-scaling-stroke" d="
  M 303.76 195.58
  Q 312.59 161.70 302.92 129.53
  Q 289.94 86.32 249.89 61.96"
/>
<path stroke="#faaeae" vector-effect="non-scaling-stroke" d="
  M 249.89 61.96
  Q 244.18 28.24 212.35 14.77"
/>
<path stroke="#f8fffd" vector-effect="non-scaling-stroke" d="
  M 212.35 14.77
  Q 212.75 13.64 214.98 14.05
  C 273.72 24.98 320.01 65.89 336.38 123.73
  Q 348.18 165.45 335.55 206.93
  Q 335.34 207.59 336.00 207.80
  L 339.82 208.99
  Q 340.50 209.21 340.69 208.52
  C 356.07 152.41 342.24 94.58 301.09 53.15
  Q 269.66 21.51 226.25 10.78
  C 212.61 7.41 199.93 7.10 185.75 6.94
  Q 176.04 6.84 168.79 7.80
  C 102.92 16.50 48.07 66.30 34.93 131.98
  Q 29.71 158.11 33.02 185.49
  Q 35.03 202.15 40.47 216.62"
/>
<path stroke="#f3aeab" vector-effect="non-scaling-stroke" d="
  M 212.35 14.77
  Q 191.83 7.64 171.88 14.01"
/>
<path stroke="#f8fffd" vector-effect="non-scaling-stroke" d="
  M 171.88 14.01
  Q 171.18 12.63 170.11 12.85
  Q 163.53 14.21 156.97 15.64
  Q 112.68 25.29 80.70 57.20
  C 56.09 81.77 39.97 116.17 37.18 151.45
  Q 34.62 183.71 45.56 214.81"
/>
<path stroke="#f8e49d" vector-effect="non-scaling-stroke" d="
  M 45.56 214.81
  L 40.47 216.62"
/>
<path stroke="#f8fffd" vector-effect="non-scaling-stroke" d="
  M 143.36 104.33
  Q 113.86 127.07 112.27 164.24
  Q 111.73 176.72 116.02 189.36"
/>
<path stroke="#a2adb2" vector-effect="non-scaling-stroke" d="
  M 116.02 189.36
  Q 100.04 196.53 85.55 206.54"
/>
<path stroke="#ffe49f" vector-effect="non-scaling-stroke" d="
  M 85.55 206.54
  Q 85.03 206.95 83.99 206.70"
/>
<path stroke="#f8fffd" vector-effect="non-scaling-stroke" d="
  M 83.99 206.70
  Q 78.73 192.85 76.54 178.32
  C 75.42 170.89 75.60 161.88 75.03 153.67
  A 0.71 0.70 1.5 0 0 74.41 153.02
  L 71.89 152.70
  Q 71.30 152.63 71.23 153.22
  Q 68.02 181.24 78.28 207.59"
/>
<path stroke="#ffe49f" vector-effect="non-scaling-stroke" d="
  M 78.28 207.59
  Q 61.57 210.06 45.56 214.81"
/>
<path stroke="#a29252" vector-effect="non-scaling-stroke" d="
  M 264.92 183.14
  Q 265.32 187.36 268.92 188.86
  Q 281.27 194.00 297.33 199.11
  C 300.83 200.22 303.59 200.01 305.55 196.85"
/>
<path stroke="#ffdc82" vector-effect="non-scaling-stroke" d="
  M 314.13 204.27
  C 309.19 203.42 307.64 209.80 309.29 213.26
  Q 314.49 224.14 316.66 227.09
  Q 320.09 231.78 327.38 229.78"
/>
<path stroke="#a29252" vector-effect="non-scaling-stroke" d="
  M 300.84 266.01
  C 301.52 253.15 296.01 239.46 283.75 234.54
  C 270.91 229.37 254.28 233.24 248.00 246.60
  C 245.43 252.06 245.69 259.79 245.32 265.98"
/>
<path stroke="#ffe49f" vector-effect="non-scaling-stroke" d="
  M 245.32 265.98
  L 245.13 270.72
  Q 245.10 271.28 244.55 271.27
  L 96.77 271.02
  Q 96.28 271.02 96.31 270.53
  L 96.55 265.76"
/>
<path stroke="#a29252" vector-effect="non-scaling-stroke" d="
  M 96.55 265.76
  C 97.45 252.26 92.29 237.10 78.01 233.19
  C 54.66 226.80 40.47 243.12 41.95 265.26
  Q 41.98 265.64 42.45 265.59"
/>
<path stroke="#a29252" vector-effect="non-scaling-stroke" d="
  M 85.55 206.54
  L 87.80 208.74
  A 0.73 0.73 0.0 0 0 88.64 208.88
  Q 109.97 198.69 131.30 188.56
  Q 134.69 186.95 134.98 182.09"
/>
<path stroke="#f3aeab" vector-effect="non-scaling-stroke" d="
  M 249.89 61.96
  L 250.29 68.70"
/>
<path stroke="#faaeae" vector-effect="non-scaling-stroke" d="
  M 250.29 68.70
  Q 248.39 84.26 242.01 97.26
  Q 239.33 102.73 236.96 107.08"
/>
<path stroke="#f3aeab" vector-effect="non-scaling-stroke" d="
  M 236.96 107.08
  L 234.35 111.50"
/>
<path stroke="#faaeae" vector-effect="non-scaling-stroke" d="
  M 234.35 111.50
  C 224.70 127.83 212.43 144.42 197.41 155.92
  C 190.75 161.01 186.68 157.91 180.75 153.16
  Q 176.35 149.63 172.54 145.46
  Q 157.33 128.78 146.08 109.25"
/>
<path stroke="#f3aeab" vector-effect="non-scaling-stroke" d="
  M 146.08 109.25
  L 143.36 104.33"
/>
<path stroke="#faaeae" vector-effect="non-scaling-stroke" d="
  M 143.36 104.33
  Q 139.88 97.93 135.92 87.85
  C 123.60 56.54 141.11 24.78 171.88 14.01"
/>
<path stroke="#f8fffd" vector-effect="non-scaling-stroke" d="
  M 146.08 109.25
  Q 142.59 111.33 139.81 114.06
  Q 109.07 144.19 120.48 187.42"
/>
<path stroke="#9badaf" vector-effect="non-scaling-stroke" d="
  M 120.48 187.42
  L 116.02 189.36"
/>
<path stroke="#f8e49d" vector-effect="non-scaling-stroke" d="
  M 83.99 206.70
  L 78.28 207.59"
/>
<path stroke="#ffe49f" vector-effect="non-scaling-stroke" d="
  M 258.06 181.33
  Q 247.17 178.56 233.00 176.00
  Q 182.86 166.94 134.98 182.09"
/>
<path stroke="#a2adb2" vector-effect="non-scaling-stroke" d="
  M 134.98 182.09
  L 120.48 187.42"
/>
<path stroke="#a2adb2" vector-effect="non-scaling-stroke" d="
  M 96.55 265.76
  L 91.60 265.65"
/>
<path stroke="#36464e" vector-effect="non-scaling-stroke" d="
  M 91.60 265.65
  C 96.74 238.22 60.27 224.99 47.41 249.32
  Q 43.57 256.59 45.05 265.43"
/>
<path stroke="#36464e" vector-effect="non-scaling-stroke" d="
  M 295.63 265.81
  Q 296.25 260.00 295.83 257.98
  C 289.22 226.04 244.40 233.97 248.79 265.79"
/>
<path stroke="#a2adb2" vector-effect="non-scaling-stroke" d="
  M 248.79 265.79
  L 245.32 265.98"
/>
<path stroke="#a3a4a4" vector-effect="non-scaling-stroke" d="
  M 252.81 275.08
  L 202.53 274.46"
/>
<path stroke="#93999c" vector-effect="non-scaling-stroke" d="
  M 202.53 274.46
  L 137.47 274.42"
/>
<path stroke="#a3a4a4" vector-effect="non-scaling-stroke" d="
  M 137.47 274.42
  L 87.18 274.95"
/>
<path stroke="#f8e49d" vector-effect="non-scaling-stroke" d="
  M 263.28 182.67
  L 258.06 181.33"
/>
<path stroke="#f8fffd" vector-effect="non-scaling-stroke" d="
  M 258.06 181.33
  Q 265.64 139.30 234.35 111.50"
/>
<path stroke="#a2adb2" vector-effect="non-scaling-stroke" d="
  M 298.79 193.30
  Q 282.27 187.16 264.92 183.14"
/>
<path stroke="#ffe49f" vector-effect="non-scaling-stroke" d="
  M 264.92 183.14
  L 263.28 182.67"
/>
<path stroke="#f8fffd" vector-effect="non-scaling-stroke" d="
  M 263.28 182.67
  Q 264.77 172.16 264.76 167.49
  Q 264.68 130.77 236.96 107.08"
/>
<path stroke="#9badaf" vector-effect="non-scaling-stroke" d="
  M 303.76 195.58
  L 298.79 193.30"
/>
<path stroke="#f8fffd" vector-effect="non-scaling-stroke" d="
  M 298.79 193.30
  Q 299.19 190.59 300.76 183.75
  C 303.92 169.90 303.20 153.67 299.87 139.42
  Q 289.46 94.80 250.29 68.70"
/>
<path stroke="#93999c" vector-effect="non-scaling-stroke" d="
  M 91.60 265.65
  Q 90.26 270.75 87.18 274.95"
/>
<path stroke="#373d41" vector-effect="non-scaling-stroke" d="
  M 87.18 274.95
  Q 86.97 275.18 86.75 275.34
  Q 86.54 275.49 86.23 275.48
  Q 79.84 275.42 72.80 275.75"
/>
<path stroke="#83898c" vector-effect="non-scaling-stroke" d="
  M 72.80 275.75
  Q 81.84 272.09 83.64 264.43
  C 88.60 243.36 57.35 236.45 53.01 257.11
  Q 50.49 269.14 63.47 275.72"
/>
<path stroke="#373d41" vector-effect="non-scaling-stroke" d="
  M 63.47 275.72
  L 51.37 277.06"
/>
<path stroke="#63686b" vector-effect="non-scaling-stroke" d="
  M 51.37 277.06
  Q 51.33 276.80 50.89 276.51"
/>
<path stroke="#63686b" vector-effect="non-scaling-stroke" d="
  M 290.64 276.38
  Q 289.89 276.78 289.94 277.25"
/>
<path stroke="#373d41" vector-effect="non-scaling-stroke" d="
  M 289.94 277.25
  C 288.17 275.72 282.55 276.20 280.07 276.07
  Q 279.62 276.04 279.46 275.62
  Q 279.40 275.45 279.41 275.27"
/>
<path stroke="#83898c" vector-effect="non-scaling-stroke" d="
  M 279.41 275.27
  Q 287.37 270.82 287.96 263.01
  C 289.52 242.56 260.67 238.91 256.73 258.01
  Q 254.70 267.86 264.09 274.97"
/>
<path stroke="#373d41" vector-effect="non-scaling-stroke" d="
  M 264.09 274.97
  Q 258.31 275.85 252.81 275.08"
/>
<path stroke="#93999c" vector-effect="non-scaling-stroke" d="
  M 252.81 275.08
  Q 250.06 270.50 248.79 265.79"
/>
<path stroke="#373d41" vector-effect="non-scaling-stroke" d="
  M 202.53 274.46
  Q 205.27 274.43 207.22 275.38
  Q 208.05 275.78 207.16 276.02
  Q 202.11 277.41 197.01 277.44
  Q 183.97 277.51 170.96 277.54"
/>
<path stroke="#63686b" vector-effect="non-scaling-stroke" d="
  M 170.96 277.54
  L 161.80 277.18"
/>
<path stroke="#373d41" vector-effect="non-scaling-stroke" d="
  M 161.80 277.18
  L 135.69 276.22
  A 0.48 0.48 0.0 0 1 135.51 275.31
  L 137.47 274.42"
/>
<path stroke="#747374" vector-effect="non-scaling-stroke" d="
  M 161.80 277.18
  Q 151.58 277.51 141.39 277.02
  C 136.66 276.79 132.39 277.22 127.83 277.66
  C 118.01 278.60 108.05 278.01 98.15 278.53"
/>
<path stroke="#949495" vector-effect="non-scaling-stroke" d="
  M 92.72 278.51
  Q 88.86 278.68 84.93 279.23
  Q 82.75 279.53 80.13 280.92
  Q 77.36 282.39 74.05 283.55"
/>
<path stroke="#949495" vector-effect="non-scaling-stroke" d="
  M 64.99 283.93
  L 58.83 282.38"
/>
<path stroke="#747374" vector-effect="non-scaling-stroke" d="
  M 58.83 282.38
  L 51.37 277.06"
/>
<path stroke="#747374" vector-effect="non-scaling-stroke" d="
  M 289.94 277.25
  L 285.81 280.88"
/>
<path stroke="#949495" vector-effect="non-scaling-stroke" d="
  M 285.81 280.88
  Q 273.15 288.63 259.67 281.53
  C 256.26 279.74 249.38 279.21 245.68 279.07
  Q 234.95 278.68 224.19 279.12"
/>
<path stroke="#747374" vector-effect="non-scaling-stroke" d="
  M 170.97 277.74
  Q 170.97 277.64 170.96 277.54"
/>
<path stroke="#949495" vector-effect="non-scaling-stroke" d="
  M 72.80 275.75
  L 63.47 275.72"
/>
<path stroke="#c0bfbf" vector-effect="non-scaling-stroke" d="
  M 58.83 282.38
  L 18.73 282.06"
/>
<path stroke="#c0bfbf" vector-effect="non-scaling-stroke" d="
  M 325.81 282.07
  L 323.84 281.27
  Q 323.40 281.09 322.92 281.09
  L 285.81 280.88"
/>
<path stroke="#949495" vector-effect="non-scaling-stroke" d="
  M 279.41 275.27
  Q 278.44 275.88 277.75 275.88
  Q 272.80 275.83 264.09 274.97"
/>
<path stroke="#f8fffd" vector-effect="non-scaling-stroke" d="
  M 100.45 293.08
  Q 103.30 296.54 106.93 298.79
  Q 123.87 309.32 142.88 314.95
  A 1.68 1.68 0.0 0 0 145.03 313.24
  L 144.93 311.37
  Q 144.90 310.76 144.32 310.55
  Q 126.40 304.10 109.88 294.67
  C 106.72 292.86 103.90 291.91 100.62 292.60
  A 0.30 0.30 0.0 0 0 100.45 293.08"
/>
<path stroke="#faaeae" vector-effect="non-scaling-stroke" d="
  M 216.1897 68.5526
  A 25.32 24.58 0.3 0 0 190.9987 43.8403
  A 25.32 24.58 0.3 0 0 165.5503 68.2874
  A 25.32 24.58 0.3 0 0 190.7413 92.9997
  A 25.32 24.58 0.3 0 0 216.1897 68.5526"
/>
<path stroke="#a29252" vector-effect="non-scaling-stroke" d="
  M 179.95 180.60
  Q 149.40 183.58 122.38 196.39"
/>
<path stroke="#937e3c" vector-effect="non-scaling-stroke" d="
  M 122.38 196.39
  L 115.76 199.51"
/>
<path stroke="#a29252" vector-effect="non-scaling-stroke" d="
  M 115.76 199.51
  Q 104.05 205.22 94.26 211.95"
/>
<path stroke="#ffd15c" vector-effect="non-scaling-stroke" d="
  M 94.26 211.95
  Q 92.77 211.82 92.94 213.37
  Q 93.08 214.72 94.09 215.62
  Q 101.60 222.37 111.65 221.50"
/>
<path stroke="#937e3c" vector-effect="non-scaling-stroke" d="
  M 111.65 221.50
  C 113.51 224.21 116.22 222.93 117.71 220.61
  Q 117.97 220.21 117.54 220.00
  Q 114.32 218.48 114.83 214.75"
/>
<path stroke="#a29252" vector-effect="non-scaling-stroke" d="
  M 114.83 214.75
  Q 118.19 208.20 126.00 208.87
  C 128.63 209.10 130.93 208.76 132.05 211.61
  Q 132.94 213.87 132.21 216.57"
/>
<path stroke="#ffd15c" vector-effect="non-scaling-stroke" d="
  M 132.21 216.57
  Q 130.94 219.41 128.05 220.69
  A 0.33 0.33 0.0 0 0 128.20 221.33
  Q 191.85 218.43 255.60 213.99
  Q 260.00 213.69 263.11 212.32
  C 266.04 211.04 276.87 204.88 277.01 201.50
  Q 277.09 199.46 274.60 199.70"
/>
<path stroke="#a29252" vector-effect="non-scaling-stroke" d="
  M 274.60 199.70
  Q 255.10 191.32 233.74 186.17"
/>
<path stroke="#937e3c" vector-effect="non-scaling-stroke" d="
  M 233.74 186.17
  L 227.32 184.71"
/>
<path stroke="#a29252" vector-effect="non-scaling-stroke" d="
  M 227.32 184.71
  Q 206.66 179.78 184.94 180.32"
/>
<path stroke="#937e3c" vector-effect="non-scaling-stroke" d="
  M 184.94 180.32
  L 179.95 180.60"
/>
<path stroke="#36464e" vector-effect="non-scaling-stroke" d="
  M 184.94 180.32
  L 182.83 214.35"
/>
<path stroke="#938658" vector-effect="non-scaling-stroke" d="
  M 182.83 214.35
  L 177.63 214.59"
/>
<path stroke="#36464e" vector-effect="non-scaling-stroke" d="
  M 177.63 214.59
  L 179.95 180.60"
/>
<path stroke="#36464e" vector-effect="non-scaling-stroke" d="
  M 227.32 184.71
  L 235.87 199.22
  Q 236.14 199.68 236.06 200.21
  L 234.33 211.63"
/>
<path stroke="#a29a6e" vector-effect="non-scaling-stroke" d="
  M 234.33 211.63
  L 182.83 214.35"
/>
<path stroke="#a29a6e" vector-effect="non-scaling-stroke" d="
  M 177.63 214.59
  L 132.21 216.57"
/>
<path stroke="#36464e" vector-effect="non-scaling-stroke" d="
  M 114.83 214.75
  L 122.38 196.39"
/>
<path stroke="#36464e" vector-effect="non-scaling-stroke" d="
  M 233.74 186.17
  L 248.09 210.79"
/>
<path stroke="#938658" vector-effect="non-scaling-stroke" d="
  M 248.09 210.79
  L 234.33 211.63"
/>
<path stroke="#a29a6e" vector-effect="non-scaling-stroke" d="
  M 274.60 199.70
  Q 266.14 207.49 259.79 209.82
  Q 256.28 211.12 248.09 210.79"
/>
<path stroke="#938658" vector-effect="non-scaling-stroke" d="
  M 111.65 221.50
  Q 110.76 219.32 112.88 217.60
  Q 113.51 217.09 112.70 217.08
  L 108.50 216.98"
/>
<path stroke="#36464e" vector-effect="non-scaling-stroke" d="
  M 108.50 216.98
  Q 112.80 208.82 115.76 199.51"
/>
<path stroke="#a29a6e" vector-effect="non-scaling-stroke" d="
  M 108.50 216.98
  C 103.27 217.17 98.72 214.32 94.26 211.95"
/>
<path stroke="#937e3c" vector-effect="non-scaling-stroke" d="
  M 283.48 216.65
  A 3.68 3.68 0.0 0 0 279.80 212.97
  A 3.68 3.68 0.0 0 0 276.12 216.65
  A 3.68 3.68 0.0 0 0 279.80 220.33
  A 3.68 3.68 0.0 0 0 283.48 216.65"
/>
<path stroke="#ffdc82" vector-effect="non-scaling-stroke" d="
  M 38.18 222.40
  C 32.89 224.89 24.10 229.68 22.36 235.61
  A 0.52 0.52 0.0 0 0 23.05 236.24
  C 31.88 232.81 42.40 228.42 49.51 222.05
  A 1.59 1.59 0.0 0 0 49.05 219.39
  C 46.71 218.42 40.50 221.31 38.18 222.40"
/>
<path stroke="#d9ab36" vector-effect="non-scaling-stroke" d="
  M 175.37 223.06
  A 0.56 0.56 0.0 0 0 174.81 222.50
  L 159.07 222.50
  A 0.56 0.56 0.0 0 0 158.51 223.06
  L 158.51 225.94
  A 0.56 0.56 0.0 0 0 159.07 226.50
  L 174.81 226.50
  A 0.56 0.56 0.0 0 0 175.37 225.94
  L 175.37 223.06"
/>
<path stroke="#d9ab36" vector-effect="non-scaling-stroke" d="
  M 240.7424 223.2447
  A 0.60 0.60 0.0 0 0 240.1435 222.6437
  L 224.4635 222.6163
  A 0.60 0.60 0.0 0 0 223.8625 223.2153
  L 223.8576 226.0153
  A 0.60 0.60 0.0 0 0 224.4565 226.6163
  L 240.1365 226.6437
  A 0.60 0.60 0.0 0 0 240.7375 226.0447
  L 240.7424 223.2447"
/>
<path stroke="#a38944" vector-effect="non-scaling-stroke" d="
  M 60.85 227.11
  C 60.16 227.34 58.60 227.28 58.36 227.43
  Q 56.91 228.36 58.56 227.88
  Q 62.55 226.73 66.84 226.57
  Q 66.87 226.57 66.87 226.60
  Q 66.88 226.62 66.88 226.63
  Q 66.89 226.71 66.82 226.69
  Q 63.73 226.13 60.85 227.11"
/>
<path stroke="#a38944" vector-effect="non-scaling-stroke" d="
  M 254.73 231.92
  L 252.18 233.77
  Q 252.09 233.84 252.19 233.90
  Q 252.30 233.96 252.42 233.85
  C 253.21 233.13 253.99 232.79 254.73 231.92"
/>
<path stroke="#a38944" vector-effect="non-scaling-stroke" d="
  M 254.73 231.92
  Q 272.05 223.31 288.68 230.86
  Q 293.38 232.99 298.03 239.01
  A 0.04 0.03 -62.2 0 0 298.09 238.99
  Q 298.12 238.86 298.15 238.73
  Q 298.18 238.57 298.08 238.44
  C 292.23 230.94 284.63 227.66 275.28 227.41
  C 267.73 227.21 261.38 227.68 254.73 231.92"
/>
<path stroke="#d9ab36" vector-effect="non-scaling-stroke" d="
  M 50.98 230.86
  Q 48.48 232.07 46.72 234.21
  A 0.17 0.17 0.0 0 0 46.95 234.45
  L 51.19 231.19
  A 0.20 0.19 13.0 0 0 50.98 230.86"
/>
<path stroke="#a38944" vector-effect="non-scaling-stroke" d="
  M 94.66 239.32
  L 95.63 241.10
  A 0.19 0.19 0.0 0 0 95.97 240.92
  Q 95.13 239.27 93.97 237.83
  Q 93.85 237.67 93.73 237.84
  Q 93.59 238.06 93.69 238.13
  A 2.71 0.89 69.0 0 1 94.66 239.32"
/>
<path stroke="#a38944" vector-effect="non-scaling-stroke" d="
  M 41.65 241.27
  Q 41.87 240.99 41.89 240.67
  Q 41.90 240.28 41.71 240.62
  Q 41.14 241.63 40.44 242.56
  Q 40.39 242.64 40.37 242.73
  Q 40.36 242.85 40.37 243.00
  Q 40.39 243.14 40.46 243.02
  Q 40.99 242.10 41.65 241.27"
/>
<path stroke="#a38944" vector-effect="non-scaling-stroke" d="
  M 302.1546 246.5846
  A 1.46 0.13 68.1 0 0 301.7306 245.1815
  A 1.46 0.13 68.1 0 0 301.0654 243.8754
  A 1.46 0.13 68.1 0 0 301.4894 245.2785
  A 1.46 0.13 68.1 0 0 302.1546 246.5846"
/>
<path stroke="#a38944" vector-effect="non-scaling-stroke" d="
  M 99.61 251.29
  Q 100.07 252.47 100.10 252.54
  Q 101.29 255.10 100.45 252.50
  L 99.64 250.03
  Q 99.52 249.65 99.46 250.04
  Q 99.37 250.68 99.61 251.29"
/>
<path stroke="#d9ab36" vector-effect="non-scaling-stroke" d="
  M 304.7048 254.7057
  A 1.64 0.23 73.9 0 0 304.4710 253.0662
  A 1.64 0.23 73.9 0 0 303.7952 251.5543
  A 1.64 0.23 73.9 0 0 304.0290 253.1938
  A 1.64 0.23 73.9 0 0 304.7048 254.7057"
/>
<path stroke="#a38944" vector-effect="non-scaling-stroke" d="
  M 101.64 258.63
  Q 101.40 257.00 100.77 255.48
  Q 100.28 254.30 100.61 255.53
  L 101.45 258.67
  A 0.10 0.10 0.0 0 0 101.64 258.63"
/>
<path stroke="#f0f0f0" vector-effect="non-scaling-stroke" d="
  M 68.01 272.53
  Q 68.08 272.66 68.13 272.80
  A 0.25 0.24 63.5 0 0 68.48 272.92
  C 70.26 271.94 71.96 272.27 73.59 271.54
  Q 80.10 268.61 80.82 262.02
  C 82.34 248.01 64.06 242.08 57.32 254.52
  Q 53.53 261.51 59.02 268.78
  C 59.75 269.75 60.79 270.20 61.77 270.94
  Q 62.15 271.23 62.62 271.16
  Q 63.58 271.02 64.10 271.92
  Q 64.39 272.40 64.95 272.40
  L 67.76 272.38
  Q 67.93 272.38 68.01 272.53"
/>
<path stroke="#f0f0f0" vector-effect="non-scaling-stroke" d="
  M 267.05 272.54
  C 269.49 273.80 276.73 273.46 279.02 271.79
  C 295.35 259.89 274.11 237.78 261.38 254.46
  Q 261.30 254.55 261.38 254.64
  L 261.60 254.89
  Q 261.97 255.30 261.62 255.72
  Q 259.53 258.24 259.69 261.15
  Q 260.14 268.96 267.05 272.54"
/>
<path stroke="#93999c" vector-effect="non-scaling-stroke" d="
  M 72.05 260.40
  A 3.73 3.73 0.0 0 0 68.32 256.67
  A 3.73 3.73 0.0 0 0 64.59 260.40
  A 3.73 3.73 0.0 0 0 68.32 264.13
  A 3.73 3.73 0.0 0 0 72.05 260.40"
/>
<path stroke="#93999c" vector-effect="non-scaling-stroke" d="
  M 275.92 261.26
  A 3.72 3.72 0.0 0 0 272.20 257.54
  A 3.72 3.72 0.0 0 0 268.48 261.26
  A 3.72 3.72 0.0 0 0 272.20 264.98
  A 3.72 3.72 0.0 0 0 275.92 261.26"
/>
</g>
<path fill="#ffffff" d="
  M 0.00 0.00
  L 361.00 0.00
  L 361.00 323.00
  L 0.00 323.00
  L 0.00 0.00
  Z
  M 40.47 216.62
  Q 30.21 220.09 25.06 224.55
  C 16.48 231.97 15.42 246.23 17.70 256.37
  C 20.48 268.73 31.24 269.01 41.60 268.37
  Q 42.13 268.34 42.03 267.81
  Q 41.73 266.25 42.45 265.59
  Q 43.60 265.79 45.05 265.43
  Q 46.69 271.37 50.89 276.51
  Q 39.18 277.14 27.75 278.31
  Q 22.32 278.86 17.20 280.28
  A 0.57 0.57 0.0 0 0 17.12 281.35
  L 18.73 282.06
  C 28.04 284.54 37.66 284.51 47.60 284.58
  C 52.48 284.62 58.17 285.89 63.65 285.63
  Q 64.37 285.59 64.75 285.26
  Q 65.40 284.68 64.99 283.93
  L 74.05 283.55
  Q 77.23 283.93 80.43 283.80
  Q 82.56 283.71 84.78 282.47
  Q 88.71 280.27 92.72 278.51
  L 98.15 278.53
  Q 110.37 279.79 122.47 278.72
  Q 127.82 278.24 133.07 278.35
  C 141.21 278.52 151.20 277.41 157.50 277.61
  Q 167.67 277.94 170.97 277.74
  C 188.74 277.68 205.60 277.07 224.19 279.12
  Q 228.52 280.43 232.97 280.40
  Q 236.90 280.37 238.99 280.88
  Q 242.17 281.66 245.26 282.74
  Q 247.99 283.70 250.96 283.94
  Q 254.54 284.24 258.04 284.99
  Q 262.29 285.90 265.07 285.99
  C 280.89 286.52 296.40 285.11 314.50 283.88
  Q 319.87 283.51 325.81 282.07
  Q 330.66 280.60 322.00 278.99
  Q 312.71 277.26 290.64 276.38
  Q 294.26 271.37 295.63 265.81
  L 300.84 266.01
  L 300.83 267.56
  Q 300.83 268.09 301.35 268.18
  C 311.30 269.82 322.02 267.65 324.53 256.36
  Q 324.66 255.80 325.21 255.62
  L 329.01 254.45
  A 0.93 0.93 0.0 0 0 329.66 253.59
  Q 330.08 241.45 327.38 229.78
  Q 324.57 214.47 314.13 204.27
  L 317.30 202.23
  Q 317.90 201.85 317.52 201.25
  L 315.49 198.07
  Q 315.22 197.64 314.72 197.75
  Q 309.63 198.91 305.55 196.85
  L 303.76 195.58
  Q 312.59 161.70 302.92 129.53
  Q 289.94 86.32 249.89 61.96
  Q 244.18 28.24 212.35 14.77
  Q 212.75 13.64 214.98 14.05
  C 273.72 24.98 320.01 65.89 336.38 123.73
  Q 348.18 165.45 335.55 206.93
  Q 335.34 207.59 336.00 207.80
  L 339.82 208.99
  Q 340.50 209.21 340.69 208.52
  C 356.07 152.41 342.24 94.58 301.09 53.15
  Q 269.66 21.51 226.25 10.78
  C 212.61 7.41 199.93 7.10 185.75 6.94
  Q 176.04 6.84 168.79 7.80
  C 102.92 16.50 48.07 66.30 34.93 131.98
  Q 29.71 158.11 33.02 185.49
  Q 35.03 202.15 40.47 216.62
  Z
  M 100.45 293.08
  Q 103.30 296.54 106.93 298.79
  Q 123.87 309.32 142.88 314.95
  A 1.68 1.68 0.0 0 0 145.03 313.24
  L 144.93 311.37
  Q 144.90 310.76 144.32 310.55
  Q 126.40 304.10 109.88 294.67
  C 106.72 292.86 103.90 291.91 100.62 292.60
  A 0.30 0.30 0.0 0 0 100.45 293.08
  Z"
/>
<path fill="#f0fffa" d="
  M 212.35 14.77
  Q 191.83 7.64 171.88 14.01
  Q 171.18 12.63 170.11 12.85
  Q 163.53 14.21 156.97 15.64
  Q 112.68 25.29 80.70 57.20
  C 56.09 81.77 39.97 116.17 37.18 151.45
  Q 34.62 183.71 45.56 214.81
  L 40.47 216.62
  Q 35.03 202.15 33.02 185.49
  Q 29.71 158.11 34.93 131.98
  C 48.07 66.30 102.92 16.50 168.79 7.80
  Q 176.04 6.84 185.75 6.94
  C 199.93 7.10 212.61 7.41 226.25 10.78
  Q 269.66 21.51 301.09 53.15
  C 342.24 94.58 356.07 152.41 340.69 208.52
  Q 340.50 209.21 339.82 208.99
  L 336.00 207.80
  Q 335.34 207.59 335.55 206.93
  Q 348.18 165.45 336.38 123.73
  C 320.01 65.89 273.72 24.98 214.98 14.05
  Q 212.75 13.64 212.35 14.77
  Z"
/>
<path fill="#f55c5c" d="
  M 212.35 14.77
  Q 244.18 28.24 249.89 61.96
  L 250.29 68.70
  Q 248.39 84.26 242.01 97.26
  Q 239.33 102.73 236.96 107.08
  L 234.35 111.50
  C 224.70 127.83 212.43 144.42 197.41 155.92
  C 190.75 161.01 186.68 157.91 180.75 153.16
  Q 176.35 149.63 172.54 145.46
  Q 157.33 128.78 146.08 109.25
  L 143.36 104.33
  Q 139.88 97.93 135.92 87.85
  C 123.60 56.54 141.11 24.78 171.88 14.01
  Q 191.83 7.64 212.35 14.77
  Z
  M 216.1897 68.5526
  A 25.32 24.58 0.3 0 0 190.9987 43.8403
  A 25.32 24.58 0.3 0 0 165.5503 68.2874
  A 25.32 24.58 0.3 0 0 190.7413 92.9997
  A 25.32 24.58 0.3 0 0 216.1897 68.5526
  Z"
/>
<path fill="#ffffff" d="
  M 171.88 14.01
  C 141.11 24.78 123.60 56.54 135.92 87.85
  Q 139.88 97.93 143.36 104.33
  Q 113.86 127.07 112.27 164.24
  Q 111.73 176.72 116.02 189.36
  Q 100.04 196.53 85.55 206.54
  Q 85.03 206.95 83.99 206.70
  Q 78.73 192.85 76.54 178.32
  C 75.42 170.89 75.60 161.88 75.03 153.67
  A 0.71 0.70 1.5 0 0 74.41 153.02
  L 71.89 152.70
  Q 71.30 152.63 71.23 153.22
  Q 68.02 181.24 78.28 207.59
  Q 61.57 210.06 45.56 214.81
  Q 34.62 183.71 37.18 151.45
  C 39.97 116.17 56.09 81.77 80.70 57.20
  Q 112.68 25.29 156.97 15.64
  Q 163.53 14.21 170.11 12.85
  Q 171.18 12.63 171.88 14.01
  Z"
/>
<ellipse fill="#ffffff" cx="0.00" cy="0.00" transform="translate(190.87,68.42) rotate(0.3)" rx="25.32" ry="24.58"/>
<path fill="#f0fffa" d="
  M 249.89 61.96
  Q 289.94 86.32 302.92 129.53
  Q 312.59 161.70 303.76 195.58
  L 298.79 193.30
  Q 299.19 190.59 300.76 183.75
  C 303.92 169.90 303.20 153.67 299.87 139.42
  Q 289.46 94.80 250.29 68.70
  L 249.89 61.96
  Z"
/>
<path fill="#ffffff" d="
  M 250.29 68.70
  Q 289.46 94.80 299.87 139.42
  C 303.20 153.67 303.92 169.90 300.76 183.75
  Q 299.19 190.59 298.79 193.30
  Q 282.27 187.16 264.92 183.14
  L 263.28 182.67
  Q 264.77 172.16 264.76 167.49
  Q 264.68 130.77 236.96 107.08
  Q 239.33 102.73 242.01 97.26
  Q 248.39 84.26 250.29 68.70
  Z"
/>
<path fill="#f0fffa" d="
  M 143.36 104.33
  L 146.08 109.25
  Q 142.59 111.33 139.81 114.06
  Q 109.07 144.19 120.48 187.42
  L 116.02 189.36
  Q 111.73 176.72 112.27 164.24
  Q 113.86 127.07 143.36 104.33
  Z"
/>
<path fill="#f0fffa" d="
  M 236.96 107.08
  Q 264.68 130.77 264.76 167.49
  Q 264.77 172.16 263.28 182.67
  L 258.06 181.33
  Q 265.64 139.30 234.35 111.50
  L 236.96 107.08
  Z"
/>
<path fill="#ffffff" d="
  M 146.08 109.25
  Q 157.33 128.78 172.54 145.46
  Q 176.35 149.63 180.75 153.16
  C 186.68 157.91 190.75 161.01 197.41 155.92
  C 212.43 144.42 224.70 127.83 234.35 111.50
  Q 265.64 139.30 258.06 181.33
  Q 247.17 178.56 233.00 176.00
  Q 182.86 166.94 134.98 182.09
  L 120.48 187.42
  Q 109.07 144.19 139.81 114.06
  Q 142.59 111.33 146.08 109.25
  Z"
/>
<path fill="#f0fffa" d="
  M 83.99 206.70
  L 78.28 207.59
  Q 68.02 181.24 71.23 153.22
  Q 71.30 152.63 71.89 152.70
  L 74.41 153.02
  A 0.71 0.70 1.5 0 1 75.03 153.67
  C 75.60 161.88 75.42 170.89 76.54 178.32
  Q 78.73 192.85 83.99 206.70
  Z"
/>
<path fill="#ffc93f" d="
  M 258.06 181.33
  L 263.28 182.67
  L 264.92 183.14
  Q 265.32 187.36 268.92 188.86
  Q 281.27 194.00 297.33 199.11
  C 300.83 200.22 303.59 200.01 305.55 196.85
  Q 309.63 198.91 314.72 197.75
  Q 315.22 197.64 315.49 198.07
  L 317.52 201.25
  Q 317.90 201.85 317.30 202.23
  L 314.13 204.27
  C 309.19 203.42 307.64 209.80 309.29 213.26
  Q 314.49 224.14 316.66 227.09
  Q 320.09 231.78 327.38 229.78
  Q 330.08 241.45 329.66 253.59
  A 0.93 0.93 0.0 0 1 329.01 254.45
  L 325.21 255.62
  Q 324.66 255.80 324.53 256.36
  C 322.02 267.65 311.30 269.82 301.35 268.18
  Q 300.83 268.09 300.83 267.56
  L 300.84 266.01
  C 301.52 253.15 296.01 239.46 283.75 234.54
  C 270.91 229.37 254.28 233.24 248.00 246.60
  C 245.43 252.06 245.69 259.79 245.32 265.98
  L 245.13 270.72
  Q 245.10 271.28 244.55 271.27
  L 96.77 271.02
  Q 96.28 271.02 96.31 270.53
  L 96.55 265.76
  C 97.45 252.26 92.29 237.10 78.01 233.19
  C 54.66 226.80 40.47 243.12 41.95 265.26
  Q 41.98 265.64 42.45 265.59
  Q 41.73 266.25 42.03 267.81
  Q 42.13 268.34 41.60 268.37
  C 31.24 269.01 20.48 268.73 17.70 256.37
  C 15.42 246.23 16.48 231.97 25.06 224.55
  Q 30.21 220.09 40.47 216.62
  L 45.56 214.81
  Q 61.57 210.06 78.28 207.59
  L 83.99 206.70
  Q 85.03 206.95 85.55 206.54
  L 87.80 208.74
  A 0.73 0.73 0.0 0 0 88.64 208.88
  Q 109.97 198.69 131.30 188.56
  Q 134.69 186.95 134.98 182.09
  Q 182.86 166.94 233.00 176.00
  Q 247.17 178.56 258.06 181.33
  Z
  M 179.95 180.60
  Q 149.40 183.58 122.38 196.39
  L 115.76 199.51
  Q 104.05 205.22 94.26 211.95
  Q 92.77 211.82 92.94 213.37
  Q 93.08 214.72 94.09 215.62
  Q 101.60 222.37 111.65 221.50
  C 113.51 224.21 116.22 222.93 117.71 220.61
  Q 117.97 220.21 117.54 220.00
  Q 114.32 218.48 114.83 214.75
  Q 118.19 208.20 126.00 208.87
  C 128.63 209.10 130.93 208.76 132.05 211.61
  Q 132.94 213.87 132.21 216.57
  Q 130.94 219.41 128.05 220.69
  A 0.33 0.33 0.0 0 0 128.20 221.33
  Q 191.85 218.43 255.60 213.99
  Q 260.00 213.69 263.11 212.32
  C 266.04 211.04 276.87 204.88 277.01 201.50
  Q 277.09 199.46 274.60 199.70
  Q 255.10 191.32 233.74 186.17
  L 227.32 184.71
  Q 206.66 179.78 184.94 180.32
  L 179.95 180.60
  Z
  M 283.48 216.65
  A 3.68 3.68 0.0 0 0 279.80 212.97
  A 3.68 3.68 0.0 0 0 276.12 216.65
  A 3.68 3.68 0.0 0 0 279.80 220.33
  A 3.68 3.68 0.0 0 0 283.48 216.65
  Z
  M 38.18 222.40
  C 32.89 224.89 24.10 229.68 22.36 235.61
  A 0.52 0.52 0.0 0 0 23.05 236.24
  C 31.88 232.81 42.40 228.42 49.51 222.05
  A 1.59 1.59 0.0 0 0 49.05 219.39
  C 46.71 218.42 40.50 221.31 38.18 222.40
  Z
  M 175.37 223.06
  A 0.56 0.56 0.0 0 0 174.81 222.50
  L 159.07 222.50
  A 0.56 0.56 0.0 0 0 158.51 223.06
  L 158.51 225.94
  A 0.56 0.56 0.0 0 0 159.07 226.50
  L 174.81 226.50
  A 0.56 0.56 0.0 0 0 175.37 225.94
  L 175.37 223.06
  Z
  M 240.7424 223.2447
  A 0.60 0.60 0.0 0 0 240.1435 222.6437
  L 224.4635 222.6163
  A 0.60 0.60 0.0 0 0 223.8625 223.2153
  L 223.8576 226.0153
  A 0.60 0.60 0.0 0 0 224.4565 226.6163
  L 240.1365 226.6437
  A 0.60 0.60 0.0 0 0 240.7375 226.0447
  L 240.7424 223.2447
  Z
  M 60.85 227.11
  C 60.16 227.34 58.60 227.28 58.36 227.43
  Q 56.91 228.36 58.56 227.88
  Q 62.55 226.73 66.84 226.57
  Q 66.87 226.57 66.87 226.60
  Q 66.88 226.62 66.88 226.63
  Q 66.89 226.71 66.82 226.69
  Q 63.73 226.13 60.85 227.11
  Z
  M 254.73 231.92
  L 252.18 233.77
  Q 252.09 233.84 252.19 233.90
  Q 252.30 233.96 252.42 233.85
  C 253.21 233.13 253.99 232.79 254.73 231.92
  Q 272.05 223.31 288.68 230.86
  Q 293.38 232.99 298.03 239.01
  A 0.04 0.03 -62.2 0 0 298.09 238.99
  Q 298.12 238.86 298.15 238.73
  Q 298.18 238.57 298.08 238.44
  C 292.23 230.94 284.63 227.66 275.28 227.41
  C 267.73 227.21 261.38 227.68 254.73 231.92
  Z
  M 50.98 230.86
  Q 48.48 232.07 46.72 234.21
  A 0.17 0.17 0.0 0 0 46.95 234.45
  L 51.19 231.19
  A 0.20 0.19 13.0 0 0 50.98 230.86
  Z
  M 94.66 239.32
  L 95.63 241.10
  A 0.19 0.19 0.0 0 0 95.97 240.92
  Q 95.13 239.27 93.97 237.83
  Q 93.85 237.67 93.73 237.84
  Q 93.59 238.06 93.69 238.13
  A 2.71 0.89 69.0 0 1 94.66 239.32
  Z
  M 41.65 241.27
  Q 41.87 240.99 41.89 240.67
  Q 41.90 240.28 41.71 240.62
  Q 41.14 241.63 40.44 242.56
  Q 40.39 242.64 40.37 242.73
  Q 40.36 242.85 40.37 243.00
  Q 40.39 243.14 40.46 243.02
  Q 40.99 242.10 41.65 241.27
  Z
  M 302.1546 246.5846
  A 1.46 0.13 68.1 0 0 301.7306 245.1815
  A 1.46 0.13 68.1 0 0 301.0654 243.8754
  A 1.46 0.13 68.1 0 0 301.4894 245.2785
  A 1.46 0.13 68.1 0 0 302.1546 246.5846
  Z
  M 99.61 251.29
  Q 100.07 252.47 100.10 252.54
  Q 101.29 255.10 100.45 252.50
  L 99.64 250.03
  Q 99.52 249.65 99.46 250.04
  Q 99.37 250.68 99.61 251.29
  Z
  M 304.7048 254.7057
  A 1.64 0.23 73.9 0 0 304.4710 253.0662
  A 1.64 0.23 73.9 0 0 303.7952 251.5543
  A 1.64 0.23 73.9 0 0 304.0290 253.1938
  A 1.64 0.23 73.9 0 0 304.7048 254.7057
  Z
  M 101.64 258.63
  Q 101.40 257.00 100.77 255.48
  Q 100.28 254.30 100.61 255.53
  L 101.45 258.67
  A 0.10 0.10 0.0 0 0 101.64 258.63
  Z"
/>
<path fill="#263238" d="
  M 184.94 180.32
  L 182.83 214.35
  L 177.63 214.59
  L 179.95 180.60
  L 184.94 180.32
  Z"
/>
<path fill="#455a64" d="
  M 184.94 180.32
  Q 206.66 179.78 227.32 184.71
  L 235.87 199.22
  Q 236.14 199.68 236.06 200.21
  L 234.33 211.63
  L 182.83 214.35
  L 184.94 180.32
  Z"
/>
<path fill="#455a64" d="
  M 179.95 180.60
  L 177.63 214.59
  L 132.21 216.57
  Q 132.94 213.87 132.05 211.61
  C 130.93 208.76 128.63 209.10 126.00 208.87
  Q 118.19 208.20 114.83 214.75
  L 122.38 196.39
  Q 149.40 183.58 179.95 180.60
  Z"
/>
<path fill="#455a64" d="
  M 134.98 182.09
  Q 134.69 186.95 131.30 188.56
  Q 109.97 198.69 88.64 208.88
  A 0.73 0.73 0.0 0 1 87.80 208.74
  L 85.55 206.54
  Q 100.04 196.53 116.02 189.36
  L 120.48 187.42
  L 134.98 182.09
  Z"
/>
<path fill="#455a64" d="
  M 264.92 183.14
  Q 282.27 187.16 298.79 193.30
  L 303.76 195.58
  L 305.55 196.85
  C 303.59 200.01 300.83 200.22 297.33 199.11
  Q 281.27 194.00 268.92 188.86
  Q 265.32 187.36 264.92 183.14
  Z"
/>
<path fill="#263238" d="
  M 227.32 184.71
  L 233.74 186.17
  L 248.09 210.79
  L 234.33 211.63
  L 236.06 200.21
  Q 236.14 199.68 235.87 199.22
  L 227.32 184.71
  Z"
/>
<path fill="#455a64" d="
  M 233.74 186.17
  Q 255.10 191.32 274.60 199.70
  Q 266.14 207.49 259.79 209.82
  Q 256.28 211.12 248.09 210.79
  L 233.74 186.17
  Z"
/>
<path fill="#263238" d="
  M 122.38 196.39
  L 114.83 214.75
  Q 114.32 218.48 117.54 220.00
  Q 117.97 220.21 117.71 220.61
  C 116.22 222.93 113.51 224.21 111.65 221.50
  Q 110.76 219.32 112.88 217.60
  Q 113.51 217.09 112.70 217.08
  L 108.50 216.98
  Q 112.80 208.82 115.76 199.51
  L 122.38 196.39
  Z"
/>
<path fill="#455a64" d="
  M 115.76 199.51
  Q 112.80 208.82 108.50 216.98
  C 103.27 217.17 98.72 214.32 94.26 211.95
  Q 104.05 205.22 115.76 199.51
  Z"
/>
<path fill="#ffd978" d="
  M 274.60 199.70
  Q 277.09 199.46 277.01 201.50
  C 276.87 204.88 266.04 211.04 263.11 212.32
  Q 260.00 213.69 255.60 213.99
  Q 191.85 218.43 128.20 221.33
  A 0.33 0.33 0.0 0 1 128.05 220.69
  Q 130.94 219.41 132.21 216.57
  L 177.63 214.59
  L 182.83 214.35
  L 234.33 211.63
  L 248.09 210.79
  Q 256.28 211.12 259.79 209.82
  Q 266.14 207.49 274.60 199.70
  Z"
/>
<path fill="#ffefc5" d="
  M 314.13 204.27
  Q 324.57 214.47 327.38 229.78
  Q 320.09 231.78 316.66 227.09
  Q 314.49 224.14 309.29 213.26
  C 307.64 209.80 309.19 203.42 314.13 204.27
  Z"
/>
<path fill="#ffd978" d="
  M 94.26 211.95
  C 98.72 214.32 103.27 217.17 108.50 216.98
  L 112.70 217.08
  Q 113.51 217.09 112.88 217.60
  Q 110.76 219.32 111.65 221.50
  Q 101.60 222.37 94.09 215.62
  Q 93.08 214.72 92.94 213.37
  Q 92.77 211.82 94.26 211.95
  Z"
/>
<circle fill="#263238" cx="279.80" cy="216.65" r="3.68"/>
<path fill="#ffefc5" d="
  M 38.18 222.40
  C 40.50 221.31 46.71 218.42 49.05 219.39
  A 1.59 1.59 0.0 0 1 49.51 222.05
  C 42.40 228.42 31.88 232.81 23.05 236.24
  A 0.52 0.52 0.0 0 1 22.36 235.61
  C 24.10 229.68 32.89 224.89 38.18 222.40
  Z"
/>
<rect fill="#b38d2c" x="158.51" y="222.50" width="16.86" height="4.00" rx="0.56"/>
<rect fill="#b38d2c" x="-8.44" y="-2.00" transform="translate(232.30,224.63) rotate(0.1)" width="16.88" height="4.00" rx="0.60"/>
<path fill="#474849" d="
  M 60.85 227.11
  Q 63.73 226.13 66.82 226.69
  Q 66.89 226.71 66.88 226.63
  Q 66.88 226.62 66.87 226.60
  Q 66.87 226.57 66.84 226.57
  Q 62.55 226.73 58.56 227.88
  Q 56.91 228.36 58.36 227.43
  C 58.60 227.28 60.16 227.34 60.85 227.11
  Z"
/>
<path fill="#474849" d="
  M 254.73 231.92
  C 261.38 227.68 267.73 227.21 275.28 227.41
  C 284.63 227.66 292.23 230.94 298.08 238.44
  Q 298.18 238.57 298.15 238.73
  Q 298.12 238.86 298.09 238.99
  A 0.04 0.03 -62.2 0 1 298.03 239.01
  Q 293.38 232.99 288.68 230.86
  Q 272.05 223.31 254.73 231.92
  Z"
/>
<path fill="#b38d2c" d="
  M 50.98 230.86
  A 0.20 0.19 13.0 0 1 51.19 231.19
  L 46.95 234.45
  A 0.17 0.17 0.0 0 1 46.72 234.21
  Q 48.48 232.07 50.98 230.86
  Z"
/>
<path fill="#455a64" d="
  M 96.55 265.76
  L 91.60 265.65
  C 96.74 238.22 60.27 224.99 47.41 249.32
  Q 43.57 256.59 45.05 265.43
  Q 43.60 265.79 42.45 265.59
  Q 41.98 265.64 41.95 265.26
  C 40.47 243.12 54.66 226.80 78.01 233.19
  C 92.29 237.10 97.45 252.26 96.55 265.76
  Z"
/>
<path fill="#474849" d="
  M 254.73 231.92
  C 253.99 232.79 253.21 233.13 252.42 233.85
  Q 252.30 233.96 252.19 233.90
  Q 252.09 233.84 252.18 233.77
  L 254.73 231.92
  Z"
/>
<path fill="#455a64" d="
  M 300.84 266.01
  L 295.63 265.81
  Q 296.25 260.00 295.83 257.98
  C 289.22 226.04 244.40 233.97 248.79 265.79
  L 245.32 265.98
  C 245.69 259.79 245.43 252.06 248.00 246.60
  C 254.28 233.24 270.91 229.37 283.75 234.54
  C 296.01 239.46 301.52 253.15 300.84 266.01
  Z"
/>
<path fill="#263238" d="
  M 91.60 265.65
  Q 90.26 270.75 87.18 274.95
  Q 86.97 275.18 86.75 275.34
  Q 86.54 275.49 86.23 275.48
  Q 79.84 275.42 72.80 275.75
  Q 81.84 272.09 83.64 264.43
  C 88.60 243.36 57.35 236.45 53.01 257.11
  Q 50.49 269.14 63.47 275.72
  L 51.37 277.06
  Q 51.33 276.80 50.89 276.51
  Q 46.69 271.37 45.05 265.43
  Q 43.57 256.59 47.41 249.32
  C 60.27 224.99 96.74 238.22 91.60 265.65
  Z"
/>
<path fill="#263238" d="
  M 295.63 265.81
  Q 294.26 271.37 290.64 276.38
  Q 289.89 276.78 289.94 277.25
  C 288.17 275.72 282.55 276.20 280.07 276.07
  Q 279.62 276.04 279.46 275.62
  Q 279.40 275.45 279.41 275.27
  Q 287.37 270.82 287.96 263.01
  C 289.52 242.56 260.67 238.91 256.73 258.01
  Q 254.70 267.86 264.09 274.97
  Q 258.31 275.85 252.81 275.08
  Q 250.06 270.50 248.79 265.79
  C 244.40 233.97 289.22 226.04 295.83 257.98
  Q 296.25 260.00 295.63 265.81
  Z"
/>
<path fill="#474849" d="
  M 94.66 239.32
  A 2.71 0.89 69.0 0 0 93.69 238.13
  Q 93.59 238.06 93.73 237.84
  Q 93.85 237.67 93.97 237.83
  Q 95.13 239.27 95.97 240.92
  A 0.19 0.19 0.0 0 1 95.63 241.10
  L 94.66 239.32
  Z"
/>
<path fill="#474849" d="
  M 41.65 241.27
  Q 40.99 242.10 40.46 243.02
  Q 40.39 243.14 40.37 243.00
  Q 40.36 242.85 40.37 242.73
  Q 40.39 242.64 40.44 242.56
  Q 41.14 241.63 41.71 240.62
  Q 41.90 240.28 41.89 240.67
  Q 41.87 240.99 41.65 241.27
  Z"
/>
<ellipse fill="#474849" cx="0.00" cy="0.00" transform="translate(301.61,245.23) rotate(68.1)" rx="1.46" ry="0.13"/>
<path fill="#e0e0e0" d="
  M 72.80 275.75
  L 63.47 275.72
  Q 50.49 269.14 53.01 257.11
  C 57.35 236.45 88.60 243.36 83.64 264.43
  Q 81.84 272.09 72.80 275.75
  Z
  M 68.01 272.53
  Q 68.08 272.66 68.13 272.80
  A 0.25 0.24 63.5 0 0 68.48 272.92
  C 70.26 271.94 71.96 272.27 73.59 271.54
  Q 80.10 268.61 80.82 262.02
  C 82.34 248.01 64.06 242.08 57.32 254.52
  Q 53.53 261.51 59.02 268.78
  C 59.75 269.75 60.79 270.20 61.77 270.94
  Q 62.15 271.23 62.62 271.16
  Q 63.58 271.02 64.10 271.92
  Q 64.39 272.40 64.95 272.40
  L 67.76 272.38
  Q 67.93 272.38 68.01 272.53
  Z"
/>
<path fill="#e0e0e0" d="
  M 279.41 275.27
  Q 278.44 275.88 277.75 275.88
  Q 272.80 275.83 264.09 274.97
  Q 254.70 267.86 256.73 258.01
  C 260.67 238.91 289.52 242.56 287.96 263.01
  Q 287.37 270.82 279.41 275.27
  Z
  M 267.05 272.54
  C 269.49 273.80 276.73 273.46 279.02 271.79
  C 295.35 259.89 274.11 237.78 261.38 254.46
  Q 261.30 254.55 261.38 254.64
  L 261.60 254.89
  Q 261.97 255.30 261.62 255.72
  Q 259.53 258.24 259.69 261.15
  Q 260.14 268.96 267.05 272.54
  Z"
/>
<path fill="#ffffff" d="
  M 67.76 272.38
  L 64.95 272.40
  Q 64.39 272.40 64.10 271.92
  Q 63.58 271.02 62.62 271.16
  Q 62.15 271.23 61.77 270.94
  C 60.79 270.20 59.75 269.75 59.02 268.78
  Q 53.53 261.51 57.32 254.52
  C 64.06 242.08 82.34 248.01 80.82 262.02
  Q 80.10 268.61 73.59 271.54
  C 71.96 272.27 70.26 271.94 68.48 272.92
  A 0.25 0.24 63.5 0 1 68.13 272.80
  Q 68.08 272.66 68.01 272.53
  Q 67.93 272.38 67.76 272.38
  Z
  M 72.05 260.40
  A 3.73 3.73 0.0 0 0 68.32 256.67
  A 3.73 3.73 0.0 0 0 64.59 260.40
  A 3.73 3.73 0.0 0 0 68.32 264.13
  A 3.73 3.73 0.0 0 0 72.05 260.40
  Z"
/>
<path fill="#ffffff" d="
  M 279.02 271.79
  C 276.73 273.46 269.49 273.80 267.05 272.54
  Q 260.14 268.96 259.69 261.15
  Q 259.53 258.24 261.62 255.72
  Q 261.97 255.30 261.60 254.89
  L 261.38 254.64
  Q 261.30 254.55 261.38 254.46
  C 274.11 237.78 295.35 259.89 279.02 271.79
  Z
  M 275.92 261.26
  A 3.72 3.72 0.0 0 0 272.20 257.54
  A 3.72 3.72 0.0 0 0 268.48 261.26
  A 3.72 3.72 0.0 0 0 272.20 264.98
  A 3.72 3.72 0.0 0 0 275.92 261.26
  Z"
/>
<path fill="#474849" d="
  M 99.61 251.29
  Q 99.37 250.68 99.46 250.04
  Q 99.52 249.65 99.64 250.03
  L 100.45 252.50
  Q 101.29 255.10 100.10 252.54
  Q 100.07 252.47 99.61 251.29
  Z"
/>
<ellipse fill="#b38d2c" cx="0.00" cy="0.00" transform="translate(304.25,253.13) rotate(73.9)" rx="1.64" ry="0.23"/>
<path fill="#474849" d="
  M 101.64 258.63
  A 0.10 0.10 0.0 0 1 101.45 258.67
  L 100.61 255.53
  Q 100.28 254.30 100.77 255.48
  Q 101.40 257.00 101.64 258.63
  Z"
/>
<circle fill="#263238" cx="68.32" cy="260.40" r="3.73"/>
<circle fill="#263238" cx="272.20" cy="261.26" r="3.72"/>
<path fill="#ffffff" d="
  M 91.60 265.65
  L 96.55 265.76
  L 96.31 270.53
  Q 96.28 271.02 96.77 271.02
  L 244.55 271.27
  Q 245.10 271.28 245.13 270.72
  L 245.32 265.98
  L 248.79 265.79
  Q 250.06 270.50 252.81 275.08
  L 202.53 274.46
  L 137.47 274.42
  L 87.18 274.95
  Q 90.26 270.75 91.60 265.65
  Z"
/>
<path fill="#263238" d="
  M 202.53 274.46
  Q 205.27 274.43 207.22 275.38
  Q 208.05 275.78 207.16 276.02
  Q 202.11 277.41 197.01 277.44
  Q 183.97 277.51 170.96 277.54
  L 161.80 277.18
  L 135.69 276.22
  A 0.48 0.48 0.0 0 1 135.51 275.31
  L 137.47 274.42
  L 202.53 274.46
  Z"
/>
<path fill="#474849" d="
  M 137.47 274.42
  L 135.51 275.31
  A 0.48 0.48 0.0 0 0 135.69 276.22
  L 161.80 277.18
  Q 151.58 277.51 141.39 277.02
  C 136.66 276.79 132.39 277.22 127.83 277.66
  C 118.01 278.60 108.05 278.01 98.15 278.53
  L 92.72 278.51
  Q 88.86 278.68 84.93 279.23
  Q 82.75 279.53 80.13 280.92
  Q 77.36 282.39 74.05 283.55
  L 64.99 283.93
  L 58.83 282.38
  L 51.37 277.06
  L 63.47 275.72
  L 72.80 275.75
  Q 79.84 275.42 86.23 275.48
  Q 86.54 275.49 86.75 275.34
  Q 86.97 275.18 87.18 274.95
  L 137.47 274.42
  Z"
/>
<path fill="#474849" d="
  M 202.53 274.46
  L 252.81 275.08
  Q 258.31 275.85 264.09 274.97
  Q 272.80 275.83 277.75 275.88
  Q 278.44 275.88 279.41 275.27
  Q 279.40 275.45 279.46 275.62
  Q 279.62 276.04 280.07 276.07
  C 282.55 276.20 288.17 275.72 289.94 277.25
  L 285.81 280.88
  Q 273.15 288.63 259.67 281.53
  C 256.26 279.74 249.38 279.21 245.68 279.07
  Q 234.95 278.68 224.19 279.12
  C 205.60 277.07 188.74 277.68 170.97 277.74
  Q 170.97 277.64 170.96 277.54
  Q 183.97 277.51 197.01 277.44
  Q 202.11 277.41 207.16 276.02
  Q 208.05 275.78 207.22 275.38
  Q 205.27 274.43 202.53 274.46
  Z"
/>
<path fill="#a09e9e" d="
  M 290.64 276.38
  Q 312.71 277.26 322.00 278.99
  Q 330.66 280.60 325.81 282.07
  L 323.84 281.27
  Q 323.40 281.09 322.92 281.09
  L 285.81 280.88
  L 289.94 277.25
  Q 289.89 276.78 290.64 276.38
  Z"
/>
<path fill="#a09e9e" d="
  M 50.89 276.51
  Q 51.33 276.80 51.37 277.06
  L 58.83 282.38
  L 18.73 282.06
  L 17.12 281.35
  A 0.57 0.57 0.0 0 1 17.20 280.28
  Q 22.32 278.86 27.75 278.31
  Q 39.18 277.14 50.89 276.51
  Z"
/>
<path fill="#a09e9e" d="
  M 161.80 277.18
  L 170.96 277.54
  Q 170.97 277.64 170.97 277.74
  Q 167.67 277.94 157.50 277.61
  C 151.20 277.41 141.21 278.52 133.07 278.35
  Q 127.82 278.24 122.47 278.72
  Q 110.37 279.79 98.15 278.53
  C 108.05 278.01 118.01 278.60 127.83 277.66
  C 132.39 277.22 136.66 276.79 141.39 277.02
  Q 151.58 277.51 161.80 277.18
  Z"
/>
<path fill="#e0e0e0" d="
  M 92.72 278.51
  Q 88.71 280.27 84.78 282.47
  Q 82.56 283.71 80.43 283.80
  Q 77.23 283.93 74.05 283.55
  Q 77.36 282.39 80.13 280.92
  Q 82.75 279.53 84.93 279.23
  Q 88.86 278.68 92.72 278.51
  Z"
/>
<path fill="#e0e0e0" d="
  M 285.81 280.88
  L 322.92 281.09
  Q 323.40 281.09 323.84 281.27
  L 325.81 282.07
  Q 319.87 283.51 314.50 283.88
  C 296.40 285.11 280.89 286.52 265.07 285.99
  Q 262.29 285.90 258.04 284.99
  Q 254.54 284.24 250.96 283.94
  Q 247.99 283.70 245.26 282.74
  Q 242.17 281.66 238.99 280.88
  Q 236.90 280.37 232.97 280.40
  Q 228.52 280.43 224.19 279.12
  Q 234.95 278.68 245.68 279.07
  C 249.38 279.21 256.26 279.74 259.67 281.53
  Q 273.15 288.63 285.81 280.88
  Z"
/>
<path fill="#e0e0e0" d="
  M 18.73 282.06
  L 58.83 282.38
  L 64.99 283.93
  Q 65.40 284.68 64.75 285.26
  Q 64.37 285.59 63.65 285.63
  C 58.17 285.89 52.48 284.62 47.60 284.58
  C 37.66 284.51 28.04 284.54 18.73 282.06
  Z"
/>
<path fill="#f0fffa" d="
  M 100.45 293.08
  A 0.30 0.30 0.0 0 1 100.62 292.60
  C 103.90 291.91 106.72 292.86 109.88 294.67
  Q 126.40 304.10 144.32 310.55
  Q 144.90 310.76 144.93 311.37
  L 145.03 313.24
  A 1.68 1.68 0.0 0 1 142.88 314.95
  Q 123.87 309.32 106.93 298.79
  Q 103.30 296.54 100.45 293.08
  Z"
/>
</svg>
