<svg width="97" height="96" viewBox="0 0 97 96" fill="none" xmlns="http://www.w3.org/2000/svg">
<g id="office-icon 1" clip-path="url(#clip0_1624_372)">
<path id="Vector" fill-rule="evenodd" clip-rule="evenodd" d="M11.7619 6.09094H23.1922V2.28684C23.1974 1.69033 23.4355 1.11979 23.8553 0.698487C24.2733 0.273973 24.8402 0.0315597 25.4341 0.0234375H71.5343C72.1282 0.0315597 72.6952 0.273973 73.1131 0.698487L73.2157 0.80173C73.5799 1.21929 73.7817 1.75519 73.7841 2.31066V6.09094H85.0171C85.9677 6.09303 86.8788 6.47332 87.5517 7.14881C88.2246 7.82431 88.6046 8.74016 88.6088 9.6965V35.944C88.6046 36.9004 88.2246 37.8162 87.5517 38.4917C86.8788 39.1672 85.9677 39.5475 85.0171 39.5496H73.8078V43.2981H95.1213C95.6237 43.2994 96.1055 43.499 96.4632 43.854C96.6404 44.0308 96.7812 44.2411 96.8773 44.4728C96.9735 44.7045 97.0233 44.953 97.0237 45.2041V94.6892C97.0237 95.0347 96.8873 95.3659 96.6445 95.6102C96.4017 95.8544 96.0724 95.9917 95.7291 95.9917H1.2946C1.12496 95.9927 0.956794 95.96 0.799772 95.8954C0.64275 95.8308 0.499972 95.7356 0.379653 95.6153C0.259334 95.495 0.16385 95.352 0.098694 95.1944C0.0335381 95.0368 -3.19222e-06 94.8678 2.2787e-10 94.6972L2.2787e-10 45.2041C0.00208792 44.6979 0.203443 44.2131 0.559991 43.8559C0.916539 43.4986 1.39924 43.2981 1.90243 43.2981H23.2159V39.5496H11.7619C10.812 39.5475 9.90169 39.1669 9.23004 38.4912C8.5584 37.8155 8.18015 36.8996 8.17806 35.944V9.73621C8.17389 9.25968 8.26346 8.78703 8.4416 8.34546C8.61974 7.9039 8.88294 7.50215 9.21604 7.16334C9.54914 6.82452 9.94556 6.55535 10.3825 6.3713C10.8194 6.18725 11.2882 6.09197 11.7619 6.09094ZM23.2475 15.9228C24.0652 15.8729 24.8841 15.9994 25.6492 16.2939C26.4144 16.5884 27.1081 17.044 27.6838 17.6303C28.8025 18.9755 29.3673 20.7002 29.2626 22.451C29.3899 24.3912 28.7678 26.3059 27.526 27.7958C26.897 28.442 26.1373 28.9445 25.2983 29.2693C24.4592 29.594 23.5606 29.7334 22.6633 29.678C21.8435 29.7285 21.0225 29.6 20.2567 29.3011C19.4909 29.0023 18.7985 28.5402 18.227 27.9467C17.1033 26.5732 16.5391 24.8221 16.6482 23.0466C16.5259 21.1401 17.1395 19.2597 18.3612 17.7971C18.9956 17.1581 19.7582 16.6625 20.5981 16.3434C21.4379 16.0243 22.3358 15.8891 23.2317 15.9467L23.2475 15.9228ZM22.8923 19.2028C22.4748 19.1741 22.058 19.2679 21.6924 19.4728C21.3872 19.7158 21.182 20.0637 21.1161 20.4496C20.9795 21.1155 20.9212 21.7952 20.9425 22.4748C20.9191 23.3364 20.9799 24.1983 21.124 25.0479C21.1799 25.518 21.3978 25.9536 21.7397 26.2789C22.121 26.5362 22.5763 26.6591 23.0343 26.6283C23.4527 26.655 23.8696 26.5585 24.2342 26.3504C24.5411 26.1054 24.7465 25.7544 24.8105 25.3656C24.9461 24.6969 25.0044 24.0147 24.9841 23.3325C25.0033 22.4762 24.9425 21.6201 24.8026 20.7753C24.7439 20.3043 24.5233 19.8688 24.179 19.5443C23.7997 19.2898 23.347 19.1697 22.8923 19.2028ZM35.3488 19.3219L35.2856 21.7044H36.675L39.0431 21.6409L39.2721 21.9268L39.0273 24.9129L36.4066 24.8494H35.2225V25.1194L35.3646 29.3841H31.2756L31.4808 25.4927L31.2756 16.1452H40.0614L40.2825 16.4311L40.022 19.4172L36.7618 19.2981L35.3488 19.3219ZM45.8161 19.3219L45.7529 21.7044H47.1423L49.5104 21.6409L49.7393 21.9268L49.4946 24.9129L46.866 24.8494H45.6661V25.1194L45.8319 29.3841H41.7428L41.9481 25.4927L41.7428 16.1452H50.5208L50.7419 16.4311L50.5208 19.441L47.2686 19.3219H45.8161ZM56.1413 25.1115L56.2992 29.408H52.2101L52.4075 25.5165L52.2101 16.169H56.3544L56.1334 25.1115H56.1413ZM65.5192 15.9467C66.6403 15.9373 67.7544 16.1255 68.811 16.5026L68.1242 19.7508L67.8558 19.9175C67.4722 19.7114 67.0636 19.5566 66.6401 19.4569C66.2201 19.345 65.7879 19.2863 65.3534 19.2822C65.0203 19.2503 64.6844 19.2993 64.374 19.4251C64.0636 19.5508 63.7876 19.7497 63.5694 20.0049C63.145 20.7226 62.952 21.5549 63.0168 22.3874C62.9413 23.395 63.1608 24.4028 63.6484 25.2862C63.8694 25.5892 64.1619 25.8321 64.4995 25.9929C64.8372 26.1538 65.2093 26.2275 65.5824 26.2074C66.0085 26.2032 66.4337 26.1634 66.8533 26.0883C67.2744 26.0298 67.6876 25.9232 68.0847 25.7706L68.4084 25.9771L68.0847 29.2094C67.1682 29.4846 66.215 29.6158 65.2587 29.5986C63.0747 29.5986 61.4302 29.0267 60.325 27.8831C59.2199 26.7395 58.6673 25.0638 58.6673 22.8719C58.6089 21.939 58.7366 21.0037 59.043 20.1213C59.3494 19.2388 59.8282 18.4269 60.4513 17.7336C61.1285 17.1011 61.9281 16.6159 62.8001 16.3085C63.6721 16.001 64.5977 15.8778 65.5192 15.9467ZM80.0124 26.1359L80.2334 26.4219L79.9966 29.408H70.6818L70.887 25.5165L70.6818 16.169H80.115L80.336 16.4549L80.0755 19.441L76.839 19.3219H74.7472V21.1803H76.7601L78.8757 21.1247L79.0967 21.4106L78.852 24.3967L76.4838 24.3332H74.6287V25.1273V26.271H76.5706L79.9413 26.1518L80.0124 26.1359ZM25.7735 6.09094H71.2186V2.60451H25.7735V6.09094ZM71.2186 39.5496H25.7735V93.4027H71.2186V39.5496ZM57.8858 76.6932H65.2824C65.3259 76.6932 65.369 76.7018 65.4093 76.7186C65.4495 76.7353 65.486 76.7599 65.5168 76.7909C65.5476 76.8219 65.572 76.8586 65.5887 76.8991C65.6054 76.9396 65.6139 76.9829 65.6139 77.0267V84.4523C65.6139 84.4961 65.6054 84.5395 65.5887 84.5799C65.572 84.6204 65.5476 84.6572 65.5168 84.6882C65.486 84.7191 65.4495 84.7437 65.4093 84.7605C65.369 84.7772 65.3259 84.7859 65.2824 84.7859H57.8858C57.8423 84.7859 57.7992 84.7772 57.7589 84.7605C57.7187 84.7437 57.6822 84.7191 57.6514 84.6882C57.6206 84.6572 57.5962 84.6204 57.5795 84.5799C57.5629 84.5395 57.5543 84.4961 57.5543 84.4523V77.0347C57.5543 76.9909 57.5629 76.9475 57.5795 76.907C57.5962 76.8666 57.6206 76.8298 57.6514 76.7988C57.6822 76.7679 57.7187 76.7433 57.7589 76.7265C57.7992 76.7098 57.8423 76.7011 57.8858 76.7011V76.6932ZM44.7978 76.6932H52.1943C52.2823 76.6932 52.3666 76.7283 52.4288 76.7909C52.491 76.8534 52.5259 76.9383 52.5259 77.0267V84.4523C52.5259 84.5408 52.491 84.6256 52.4288 84.6882C52.3666 84.7507 52.2823 84.7859 52.1943 84.7859H44.7978C44.7098 84.7859 44.6255 84.7507 44.5633 84.6882C44.5012 84.6256 44.4662 84.5408 44.4662 84.4523V77.0347C44.4662 76.9462 44.5012 76.8614 44.5633 76.7988C44.6255 76.7363 44.7098 76.7011 44.7978 76.7011V76.6932ZM31.7097 76.6932H39.1063C39.1531 76.6887 39.2003 76.6942 39.2448 76.7094C39.2893 76.7247 39.3301 76.7493 39.3644 76.7815C39.3987 76.8138 39.4259 76.8531 39.444 76.8968C39.4621 76.9404 39.4707 76.9874 39.4694 77.0347V84.4602C39.4694 84.5487 39.4345 84.6335 39.3723 84.6961C39.3101 84.7587 39.2258 84.7938 39.1379 84.7938H31.7097C31.6662 84.7938 31.6231 84.7852 31.5828 84.7684C31.5426 84.7516 31.5061 84.7271 31.4753 84.6961C31.4445 84.6651 31.4201 84.6283 31.4034 84.5879C31.3868 84.5474 31.3782 84.504 31.3782 84.4602V77.0347C31.3782 76.9909 31.3868 76.9475 31.4034 76.907C31.4201 76.8666 31.4445 76.8298 31.4753 76.7988C31.5061 76.7679 31.5426 76.7433 31.5828 76.7265C31.6231 76.7098 31.6662 76.7011 31.7097 76.7011V76.6932ZM73.792 93.3709H94.4187V45.895H73.8078V93.4027L73.792 93.3709ZM23.1922 93.3709V45.895H2.58919V93.4027L23.1922 93.3709ZM79.6414 76.6932H88.6877C88.7369 76.6911 88.7853 76.7057 88.8254 76.7344C88.8654 76.7632 88.8948 76.8046 88.9088 76.852V81.085C88.9088 81.1485 88.7825 81.2518 88.6877 81.2518H79.6414C79.5545 81.2518 79.4203 81.1723 79.4203 81.085V76.8759C79.4203 76.7885 79.5229 76.717 79.6414 76.717V76.6932ZM8.11491 76.6932H17.3665C17.4849 76.6932 17.5876 76.7885 17.5876 76.852V81.085C17.5876 81.1485 17.4613 81.2518 17.3665 81.2518H8.11491C8.02018 81.2518 7.89388 81.1723 7.89388 81.085V76.8759C7.89388 76.7885 7.9965 76.717 8.11491 76.717V76.6932ZM79.6414 66.4086H88.6877C88.7372 66.4051 88.7863 66.419 88.8267 66.448C88.867 66.477 88.896 66.5192 88.9088 66.5675V70.8004C88.9088 70.8639 88.7825 70.9592 88.6877 70.9592H79.6414C79.5466 70.9592 79.4203 70.8878 79.4203 70.8004V66.5913C79.4203 66.5039 79.5229 66.4324 79.6414 66.4324V66.4086ZM79.6414 56.0843H88.6877C88.7369 56.0823 88.7853 56.0968 88.8254 56.1256C88.8654 56.1543 88.8948 56.1957 88.9088 56.2432V60.4841C88.9088 60.5397 88.7825 60.6429 88.6877 60.6429H79.6414C79.5545 60.6429 79.4203 60.5714 79.4203 60.4841V56.2988C79.4203 56.2193 79.5229 56.1399 79.6414 56.1399V56.0843ZM8.11491 66.4086H17.3665C17.4849 66.4086 17.5876 66.5039 17.5876 66.5675V70.8004C17.5876 70.8639 17.4613 70.9592 17.3665 70.9592H8.11491C8.02018 70.9592 7.89388 70.8878 7.89388 70.8004V66.5913C7.89388 66.5039 7.9965 66.4324 8.11491 66.4324V66.4086ZM8.11491 56.0843H17.3665C17.4154 56.0836 17.4632 56.0986 17.503 56.1272C17.5428 56.1558 17.5724 56.1964 17.5876 56.2432V60.4841C17.5876 60.5476 17.4613 60.6429 17.3665 60.6429H8.11491C8.02018 60.6429 7.89388 60.5714 7.89388 60.4841V56.2988C7.89388 56.2193 7.9965 56.1399 8.11491 56.1399V56.0843ZM57.7832 61.9453H65.3929C65.4503 61.9491 65.5044 61.9737 65.5451 62.0146C65.5857 62.0555 65.6102 62.11 65.6139 62.1677V69.8871C65.6056 69.9423 65.5795 69.9932 65.5395 70.032C65.4996 70.0707 65.448 70.0952 65.3929 70.1015H57.7832C57.7265 70.0997 57.6725 70.0767 57.6317 70.0371C57.5908 69.9975 57.5661 69.9441 57.5622 69.8871V62.1995C57.5576 62.1677 57.5599 62.1354 57.569 62.1046C57.578 62.0738 57.5936 62.0454 57.6146 62.0213C57.6356 61.9971 57.6615 61.9778 57.6906 61.9647C57.7197 61.9516 57.7513 61.945 57.7832 61.9453ZM44.6952 61.9453H52.3049C52.3623 61.9491 52.4163 61.9737 52.457 62.0146C52.4977 62.0555 52.5222 62.11 52.5259 62.1677V69.8871C52.5176 69.9423 52.4914 69.9932 52.4515 70.032C52.4115 70.0707 52.36 70.0952 52.3049 70.1015H44.6952C44.6385 70.0997 44.5844 70.0767 44.5436 70.0371C44.5028 69.9975 44.478 69.9441 44.4741 69.8871V62.1995C44.4741 62.1405 44.4974 62.0839 44.5389 62.0422C44.5803 62.0005 44.6365 61.9771 44.6952 61.9771V61.9453ZM31.5755 61.9453H39.1931C39.2505 61.9491 39.3046 61.9737 39.3453 62.0146C39.386 62.0555 39.4104 62.11 39.4141 62.1677V69.8871C39.4046 69.9418 39.3781 69.992 39.3384 70.0306C39.2986 70.0691 39.2478 70.0939 39.1931 70.1015H31.5755C31.5202 70.0978 31.4681 70.074 31.4289 70.0346C31.3897 69.9952 31.3661 69.9428 31.3624 69.8871V62.1995C31.3579 62.1684 31.36 62.1367 31.3686 62.1065C31.3772 62.0763 31.3921 62.0482 31.4122 62.0242C31.4323 62.0002 31.4573 61.9808 31.4855 61.9672C31.5136 61.9536 31.5443 61.9461 31.5755 61.9453ZM57.7832 47.1101H65.3929C65.4509 47.1121 65.506 47.1362 65.547 47.1775C65.588 47.2187 65.612 47.2742 65.6139 47.3325V54.9884C65.6072 55.045 65.5818 55.0977 65.5417 55.1381C65.5016 55.1784 65.4492 55.204 65.3929 55.2107H57.7832C57.7252 55.2087 57.6701 55.1847 57.6291 55.1434C57.5881 55.1021 57.5641 55.0467 57.5622 54.9884V47.3325C57.5611 47.303 57.566 47.2736 57.5767 47.2461C57.5875 47.2186 57.6037 47.1937 57.6245 47.1728C57.6452 47.1519 57.67 47.1356 57.6973 47.1248C57.7246 47.114 57.7539 47.109 57.7832 47.1101ZM44.6952 47.1101H52.3049C52.3629 47.1121 52.4179 47.1362 52.459 47.1775C52.5 47.2187 52.5239 47.2742 52.5259 47.3325V54.9884C52.5192 55.045 52.4938 55.0977 52.4537 55.1381C52.4136 55.1784 52.3612 55.204 52.3049 55.2107H44.6952C44.6372 55.2087 44.5821 55.1847 44.541 55.1434C44.5 55.1021 44.4761 55.0467 44.4741 54.9884V47.3325C44.473 47.303 44.478 47.2736 44.4887 47.2461C44.4994 47.2186 44.5156 47.1937 44.5364 47.1728C44.5571 47.1519 44.582 47.1356 44.6093 47.1248C44.6366 47.114 44.6658 47.109 44.6952 47.1101ZM31.5755 47.1101H39.1931C39.2511 47.1121 39.3062 47.1362 39.3472 47.1775C39.3883 47.2187 39.4122 47.2742 39.4141 47.3325V54.9884C39.4062 55.0445 39.3803 55.0965 39.3405 55.1366C39.3006 55.1767 39.2489 55.2027 39.1931 55.2107H31.5755C31.5189 55.2068 31.4658 55.1819 31.4264 55.1408C31.387 55.0997 31.3642 55.0454 31.3624 54.9884V47.3325C31.3613 47.3037 31.3661 47.2749 31.3763 47.248C31.3865 47.2211 31.4021 47.1965 31.422 47.1757C31.4419 47.155 31.4657 47.1385 31.4921 47.1272C31.5185 47.1159 31.5469 47.1101 31.5755 47.1101ZM11.9198 8.60054H85.0802C85.2223 8.60054 85.3629 8.62868 85.4941 8.68336C85.6253 8.73804 85.7445 8.81818 85.845 8.91921C85.9454 9.02025 86.025 9.14019 86.0794 9.27219C86.1337 9.4042 86.1617 9.54568 86.1617 9.68856V35.8964C86.1596 36.1843 86.045 36.4598 85.8427 36.6634C85.6403 36.867 85.3664 36.9823 85.0802 36.9844H11.9198C11.6329 36.9844 11.3579 36.8698 11.1551 36.6657C10.9522 36.4617 10.8383 36.1849 10.8383 35.8964V9.68856C10.8383 9.54568 10.8663 9.4042 10.9206 9.27219C10.975 9.14019 11.0546 9.02025 11.1551 8.91921C11.2555 8.81818 11.3747 8.73804 11.5059 8.68336C11.6371 8.62868 11.7777 8.60054 11.9198 8.60054Z" fill="#3C3C3C"/>
</g>
<defs>
<clipPath id="clip0_1624_372">
<rect width="97" height="96" fill="white"/>
</clipPath>
</defs>
</svg>
