<svg width="79" height="117" viewBox="0 0 79 117" fill="none" xmlns="http://www.w3.org/2000/svg">
<g clip-path="url(#clip0_5252_3061)">
<path fill-rule="evenodd" clip-rule="evenodd" d="M32.9215 35.439C38.0863 35.4393 43.1005 37.1839 47.1561 40.3915C51.2118 43.5991 54.0725 48.083 55.2773 53.1204C54.2225 53.4693 53.1971 53.9023 52.2111 54.4153C48.281 56.4814 45.4047 59.6711 45.4047 64.4509C45.4237 65.9876 45.8042 67.4981 46.5154 68.8594C46.2431 69.4161 46.0208 69.9961 45.8509 70.5923C45.2071 72.8008 45.3824 75.1685 46.3445 77.2573C43.4008 79.369 40.0017 80.7539 36.4237 81.2992C32.8457 81.8446 29.1899 81.5351 25.7536 80.3959C22.3174 79.2566 19.1978 77.3199 16.6487 74.7431C14.0996 72.1664 12.1929 69.0225 11.0838 65.5672C9.97472 62.1119 9.69452 58.4428 10.266 54.8583C10.8375 51.2739 12.2446 47.8754 14.3727 44.9393C16.5008 42.0033 19.2899 39.6126 22.5131 37.9617C25.7363 36.3109 29.3024 35.4465 32.9215 35.439Z" fill="#F0FFFA"/>
<path d="M36.6142 42.1709L35.1998 55.2629H41.5695L28.9155 76.3911L31.8108 61.5471L24.2734 61.6804L36.7851 40.6094L36.6142 42.1709Z" fill="#1B9E76"/>
<path fill-rule="evenodd" clip-rule="evenodd" d="M12.6066 3.23482e-05H53.2363C54.8917 -0.00122173 56.5311 0.325052 58.0606 0.960172C59.5902 1.59529 60.9798 2.52678 62.1499 3.70131C63.32 4.87584 64.2477 6.27033 64.8797 7.80495C65.5118 9.33956 65.8358 10.9842 65.8334 12.6446V51.4922H64.8271C63.9198 51.4963 63.0135 51.5503 62.1121 51.6541V13.7871H3.71174V99.4805H62.1121V94.5388C62.995 94.615 63.9063 94.6626 64.8271 94.6626H65.8334V104.375C65.8358 106.035 65.5118 107.68 64.8797 109.214C64.2477 110.749 63.32 112.143 62.1499 113.318C60.9798 114.492 59.5902 115.424 58.0606 116.059C56.5311 116.694 54.8917 117.02 53.2363 117.019H12.6066C10.9495 117.019 9.30862 116.691 7.77788 116.055C6.24714 115.418 4.85656 114.485 3.68568 113.309C2.5148 112.133 1.5866 110.737 0.954179 109.2C0.321756 107.664 -0.00248136 106.018 1.42979e-05 104.355V12.6255C-0.00123899 10.9656 0.324123 9.32167 0.957453 7.78807C1.59078 6.25446 2.51963 4.8613 3.69076 3.68841C4.86189 2.51553 6.25227 1.58599 7.78223 0.953061C9.31218 0.320137 10.9516 -0.00372653 12.6066 3.23482e-05ZM78.3545 79.8186C78.7684 80.4918 78.9916 81.2654 79 82.0562C79 86.1695 72.6493 89.5115 64.8271 89.5115C57.0049 89.5115 50.6542 86.1695 50.6542 82.0562C50.6535 81.2692 50.8633 80.4966 51.2617 79.8186C53.0654 82.856 58.4384 85.0459 64.7891 85.0459C71.1399 85.0459 76.5603 82.8369 78.3545 79.8186ZM69.9438 61.0518L69.7824 62.899L62.8241 62.2896C63.4017 63.0294 63.8101 63.8875 64.0202 64.8033L62.34 64.6509C62.1825 64.064 61.9291 63.5074 61.59 63.0037C61.2448 62.4405 60.7434 61.9905 60.1471 61.7088L60.28 60.2044L69.9438 61.0518ZM64.8271 58.1477C71.2538 58.1477 76.4749 60.2044 76.4749 62.7371C76.4749 65.2698 71.2538 67.3169 64.8271 67.3169C58.4004 67.3169 53.1603 65.2603 53.1603 62.7371C53.1603 60.2139 58.3814 58.1477 64.8081 58.1477H64.8271ZM64.8271 56.6243C72.6493 56.6243 79 59.9663 79 64.0796C79 68.1929 72.6493 71.5349 64.8271 71.5349C57.0049 71.5349 50.6542 68.1929 50.6542 64.0796C50.6542 58.4143 60.5648 56.6243 64.8271 56.6243ZM78.402 71.0779C78.7867 71.7264 78.9931 72.4656 79 73.2202C79 77.324 72.6493 80.666 64.8271 80.666C57.0049 80.666 50.6542 77.324 50.6542 73.2202C50.6626 72.4646 50.8724 71.7249 51.2617 71.0779C53.0084 74.1438 58.4194 76.3909 64.8366 76.3909C69.0799 76.3909 76.1142 75.1055 78.4115 71.0779H78.402ZM32.9024 103.394C33.9276 103.394 34.9297 103.699 35.782 104.27C36.6344 104.841 37.2987 105.653 37.691 106.603C38.0833 107.553 38.186 108.598 37.986 109.607C37.786 110.615 37.2923 111.542 36.5675 112.269C35.8426 112.996 34.919 113.491 33.9136 113.691C32.9082 113.892 31.866 113.789 30.9189 113.396C29.9719 113.002 29.1624 112.336 28.5928 111.481C28.0233 110.626 27.7193 109.621 27.7193 108.593C27.7181 107.91 27.8513 107.233 28.1113 106.602C28.3713 105.97 28.7531 105.397 29.2346 104.914C29.7162 104.431 30.2881 104.048 30.9175 103.787C31.5469 103.526 32.2214 103.393 32.9024 103.394Z" fill="#1B9E76"/>
</g>
<defs>
<clipPath id="clip0_5252_3061">
<rect width="79" height="117" fill="white"/>
</clipPath>
</defs>
</svg>
