<svg width="452" height="374" viewBox="0 0 452 374" fill="none" xmlns="http://www.w3.org/2000/svg">
<path d="M263.372 108.811L38.5381 110.932L38.2506 80.6364L263.084 78.5156L263.372 108.811Z" fill="#FFE065"/>
<g opacity="0.4">
<path d="M263.372 108.811L38.5381 110.932L38.2506 80.6364L263.084 78.5156L263.372 108.811Z" fill="black"/>
</g>
<path d="M272.457 75.8605C269.995 69.3364 264.034 64.6855 257.037 63.9749L206.498 58.5489L187.967 45.6298C175.073 36.651 159.717 31.871 143.972 32.0648L45.4208 32.9691L24.2333 33.1629C23.5853 33.1629 22.9374 33.4859 22.5487 34.0026C21.7711 35.1007 22.2247 36.5864 23.4557 37.1032L32.1381 40.7205C31.8141 41.2373 31.555 41.8187 31.2958 42.4L26.5011 53.7042C25.3348 56.4819 24.7516 59.4532 24.7516 62.4246C22.0303 62.4246 19.8273 64.6855 19.8921 67.3985L20.0865 87.0355L14.9678 89.361C12.5056 90.4591 10.9506 92.9137 11.0154 95.6267L11.0802 100.73C11.145 104.67 13.9311 108.094 17.8835 108.804L45.032 113.972V111.517C44.9025 97.1124 56.5005 85.3561 70.9495 85.2269C85.3985 85.0977 97.1908 96.6603 97.3204 111.065V113.52L206.109 112.486V110.032C205.979 95.6267 217.577 83.8704 232.026 83.7412C246.475 83.612 258.268 95.1746 258.397 109.579V112.034L271.745 111.905C275.373 111.84 278.224 108.933 278.224 105.316L278.095 90.4591L272.457 75.8605Z" fill="#FFE065"/>
<path d="M31.231 42.4002L26.4363 53.7044C25.27 56.482 24.6869 59.4534 24.6869 62.4248L31.4902 62.3602L37.9048 43.1107L32.1381 40.7207C31.7494 41.2375 31.4902 41.8188 31.231 42.4002Z" fill="#455A64"/>
<path d="M272.457 75.8605C272.069 74.7624 271.485 73.7288 270.902 72.6953L263.775 72.7599L270.384 87.6815L277.965 91.9448V90.2653L272.457 75.8605Z" fill="#FFE065"/>
<g opacity="0.2">
<path d="M272.457 75.8605C272.069 74.7624 271.485 73.7288 270.902 72.6953L263.775 72.7599L270.384 87.6815L277.965 91.9448V90.2653L272.457 75.8605Z" fill="black"/>
</g>
<path d="M20.4753 80.3824L24.1685 80.3178C26.3067 80.3178 28.3801 79.6073 30.0647 78.4446L36.2201 74.1167C37.3216 73.3415 37.9695 72.1142 37.9047 70.8223C37.9047 68.6261 36.0905 66.8174 33.8227 66.8174L20.3457 66.9466C20.0217 66.9466 19.7625 67.205 19.7625 67.5279L19.8921 79.8011C19.8921 80.1241 20.1513 80.3824 20.4753 80.3824Z" fill="#EBEBEB"/>
<path d="M278.354 91.2991L276.216 90.0717H277.511C277.965 90.0717 278.289 89.6842 278.289 89.2966C278.289 88.8444 277.9 88.5215 277.511 88.5215L273.494 88.5861L272.134 87.8109L276.734 87.7463C277.187 87.7463 277.511 87.3587 277.511 86.9712C277.511 86.519 277.123 86.196 276.734 86.196L270.578 86.2606L270.255 85.4855L275.762 85.4209C276.216 85.4209 276.54 85.0333 276.54 84.6457C276.54 84.1936 276.151 83.8706 275.762 83.8706L269.607 83.9352L269.283 83.16L275.049 83.0954C275.503 83.0954 275.827 82.7079 275.827 82.3203C275.827 81.8681 275.438 81.5451 275.049 81.5451L268.635 81.6097L268.311 80.8346L274.142 80.77C274.596 80.77 274.92 80.3824 274.92 79.9949C274.92 79.5427 274.531 79.2197 274.142 79.2197L267.598 79.2843L267.274 78.5092L273.235 78.4446C273.689 78.4446 274.013 78.057 274.013 77.6694C274.013 77.2172 273.624 76.8943 273.235 76.8943L266.561 76.9589L266.237 76.1837L272.393 76.1191C272.846 76.1191 273.17 75.7315 273.17 75.344C273.17 74.8918 272.781 74.5688 272.393 74.5688L265.589 74.6334L265.136 73.5353L271.097 73.4707C271.55 73.4707 271.874 73.0831 271.874 72.6956C271.874 72.2434 271.486 71.9204 271.097 71.9204L263.97 71.985C263.71 71.985 263.451 72.1142 263.322 72.3726C263.192 72.5664 263.127 72.8893 263.257 73.0831L265.46 77.9924L266.497 80.3178L267.533 82.6433L268.57 84.9687L269.607 87.2941L269.931 88.0047C269.995 88.1339 270.125 88.2631 270.255 88.3923L277.835 92.6556C277.965 92.7202 278.095 92.7848 278.224 92.7848C278.483 92.7848 278.742 92.6556 278.872 92.3972C278.872 92.0096 278.742 91.4928 278.354 91.2991Z" fill="#FFE065"/>
<g opacity="0.2">
<path d="M278.354 91.2991L276.216 90.0717H277.511C277.965 90.0717 278.289 89.6842 278.289 89.2966C278.289 88.8444 277.9 88.5215 277.511 88.5215L273.494 88.5861L272.134 87.8109L276.734 87.7463C277.187 87.7463 277.511 87.3587 277.511 86.9712C277.511 86.519 277.123 86.196 276.734 86.196L270.578 86.2606L270.255 85.4855L275.762 85.4209C276.216 85.4209 276.54 85.0333 276.54 84.6457C276.54 84.1936 276.151 83.8706 275.762 83.8706L269.607 83.9352L269.283 83.16L275.049 83.0954C275.503 83.0954 275.827 82.7079 275.827 82.3203C275.827 81.8681 275.438 81.5451 275.049 81.5451L268.635 81.6097L268.311 80.8346L274.142 80.77C274.596 80.77 274.92 80.3824 274.92 79.9949C274.92 79.5427 274.531 79.2197 274.142 79.2197L267.598 79.2843L267.274 78.5092L273.235 78.4446C273.689 78.4446 274.013 78.057 274.013 77.6694C274.013 77.2172 273.624 76.8943 273.235 76.8943L266.561 76.9589L266.237 76.1837L272.393 76.1191C272.846 76.1191 273.17 75.7315 273.17 75.344C273.17 74.8918 272.781 74.5688 272.393 74.5688L265.589 74.6334L265.136 73.5353L271.097 73.4707C271.55 73.4707 271.874 73.0831 271.874 72.6956C271.874 72.2434 271.486 71.9204 271.097 71.9204L263.97 71.985C263.71 71.985 263.451 72.1142 263.322 72.3726C263.192 72.5664 263.127 72.8893 263.257 73.0831L265.46 77.9924L266.497 80.3178L267.533 82.6433L268.57 84.9687L269.607 87.2941L269.931 88.0047C269.995 88.1339 270.125 88.2631 270.255 88.3923L277.835 92.6556C277.965 92.7202 278.095 92.7848 278.224 92.7848C278.483 92.7848 278.742 92.6556 278.872 92.3972C278.872 92.0096 278.742 91.4928 278.354 91.2991Z" fill="white"/>
</g>
<path d="M69.9619 134.961C57.4023 134.014 47.9911 123.096 48.9414 110.574C49.8917 98.0531 60.8437 88.6706 73.4033 89.618C85.9629 90.5655 95.3741 101.484 94.4238 114.005C93.4735 126.526 82.5215 135.909 69.9619 134.961Z" fill="#263238"/>
<path d="M48.8549 112.163C48.7901 124.759 58.9627 134.965 71.5327 135.03C84.1026 135.094 94.34 124.953 94.4048 112.421V112.357L48.8549 112.163Z" fill="#263238"/>
<path d="M55.658 112.227C55.5932 121.012 62.7205 128.183 71.5973 128.247C80.4092 128.312 87.6013 121.206 87.6661 112.357C87.7309 103.572 80.6035 96.4015 71.7268 96.3369C62.9149 96.3369 55.658 103.442 55.658 112.227Z" fill="#FAFAFA"/>
<path d="M71.7268 96.3369C62.9148 96.2723 55.7228 103.378 55.658 112.227L87.666 112.357C87.666 103.572 80.5387 96.4015 71.7268 96.3369Z" fill="#E0E0E0"/>
<path d="M61.8785 112.292C61.8785 117.654 66.2197 122.046 71.5975 122.046C76.9754 122.046 81.3813 117.718 81.3813 112.357C81.3813 106.996 77.0402 102.603 71.6623 102.603C66.2844 102.603 61.9433 106.931 61.8785 112.292Z" fill="#263238"/>
<path d="M209.413 110.678C209.348 123.209 219.521 133.415 232.091 133.48C244.661 133.544 254.898 123.403 254.963 110.871C255.028 98.3398 244.855 88.1338 232.285 88.0692C219.78 88.0046 209.478 98.1461 209.413 110.678Z" fill="#263238"/>
<path d="M209.413 110.613C209.413 110.677 209.413 110.677 209.413 110.613C209.349 123.209 219.521 133.415 232.091 133.48C244.661 133.544 254.899 123.403 254.963 110.871V110.807L209.413 110.613Z" fill="#263238"/>
<path d="M216.217 110.742C216.152 119.527 223.279 126.697 232.156 126.762C240.968 126.826 248.16 119.721 248.225 110.871C248.289 102.086 241.162 94.9161 232.285 94.8515C223.474 94.7869 216.281 101.892 216.217 110.742Z" fill="#FAFAFA"/>
<path d="M232.285 94.8515C223.474 94.7869 216.281 101.892 216.217 110.742L248.225 110.871C248.289 102.086 241.162 94.9161 232.285 94.8515Z" fill="#E0E0E0"/>
<path d="M222.502 110.742C222.502 116.103 226.843 120.496 232.221 120.496C237.598 120.496 242.004 116.168 242.004 110.807C242.004 105.445 237.663 101.053 232.285 101.053C226.907 101.053 222.502 105.381 222.502 110.742Z" fill="#263238"/>
<path d="M206.498 58.5488L187.967 45.6297C182.589 41.8831 176.822 38.9117 170.731 36.6509L164.641 36.7155L201.703 60.8096L206.498 58.5488Z" fill="#455A64"/>
<path d="M260.989 71.4033L269.931 71.3387C268.57 69.5947 267.015 68.109 265.266 66.8816C263.257 66.2357 260.795 68.8195 260.989 71.4033Z" fill="#FAFAFA"/>
<path d="M78.4008 62.6185L196.908 61.5204L162.827 38.589C160.3 36.7803 157.319 35.876 154.274 35.876L80.8629 36.5219C80.8629 36.5219 54.4919 36.1344 48.7253 44.1442L78.4008 62.6185Z" fill="#263238"/>
<path d="M79.4372 62.6831L83.6488 38.0076L69.8478 38.1368C64.8587 38.2014 59.0273 39.3641 54.3621 41.2373L50.2154 43.1106C49.0491 43.5628 48.2067 44.5963 47.8828 45.8236C47.5588 47.0509 47.8828 48.3428 48.6603 49.3118L53.5846 55.2546C57.3426 59.7763 62.7853 62.4893 68.6167 62.8122C69.0703 62.8122 69.459 62.8768 69.9126 62.8122L79.4372 62.6831ZM134.123 62.1663L133.864 37.4908L93.2383 37.8784L89.0915 62.5539L134.123 62.1663ZM192.113 61.5849L161.466 39.1703C159.716 37.8784 157.643 37.2324 155.44 37.2324L141.38 37.3616L146.369 61.9725L192.113 61.5849Z" fill="#455A64"/>
<path d="M142.028 106.931C142.028 106.931 142.028 106.866 142.028 106.802C142.028 106.737 142.028 106.608 142.028 106.479C142.028 106.156 142.028 105.704 142.028 105.187C142.028 104.024 142.028 102.409 142.028 100.342C142.028 96.2081 142.028 90.5883 142.093 84.3872C142.093 81.2866 142.093 78.3152 142.158 75.6022C142.158 74.2457 142.158 72.9537 142.158 71.791C142.158 70.5637 142.158 69.4656 142.028 68.4321C141.769 66.4296 141.251 64.8147 140.862 63.7166C140.667 63.1998 140.538 62.7477 140.408 62.4893C140.343 62.3601 140.279 62.2309 140.279 62.1663C140.279 62.1017 140.214 62.0371 140.214 62.0371C140.214 62.0371 140.214 62.0371 140.279 62.1663C140.343 62.2309 140.343 62.3601 140.408 62.4893C140.538 62.7477 140.732 63.1998 140.927 63.7166C141.315 64.8147 141.834 66.365 142.158 68.4321C142.287 69.4656 142.352 70.5637 142.352 71.791C142.352 73.0183 142.352 74.3103 142.352 75.6022C142.352 78.3152 142.352 81.2866 142.352 84.3872C142.287 90.5883 142.287 96.2727 142.222 100.342C142.222 102.345 142.158 104.024 142.158 105.187C142.158 105.768 142.158 106.156 142.158 106.479C142.158 106.608 142.158 106.737 142.158 106.802C142.028 106.866 142.028 106.931 142.028 106.931Z" fill="#263238"/>
<path d="M193.021 63.3291C193.021 63.3291 193.085 63.3291 193.085 63.3937C193.15 63.4583 193.215 63.5229 193.345 63.5875C193.409 63.6521 193.474 63.7167 193.539 63.7167C193.604 63.7813 193.668 63.8459 193.733 63.9105C193.863 64.0397 194.057 64.2334 194.187 64.4918C194.9 65.3962 195.612 66.8173 196.26 68.6905C196.584 69.6595 196.908 70.693 197.167 71.7911C197.297 72.3725 197.427 72.9538 197.556 73.5352C197.686 74.1166 197.75 74.8271 197.75 75.4731C197.75 78.1215 197.75 80.9637 197.686 83.9997C197.556 90.0716 197.427 95.5623 197.362 99.5026C197.297 101.505 197.232 103.055 197.232 104.218C197.232 104.735 197.167 105.187 197.167 105.51C197.167 105.187 197.167 104.799 197.167 104.218C197.167 103.12 197.232 101.505 197.232 99.5026C197.297 95.4977 197.427 90.007 197.491 83.9997C197.556 80.9637 197.621 78.0569 197.556 75.4731C197.556 74.8271 197.556 74.1811 197.427 73.5998C197.297 73.0184 197.167 72.3725 197.038 71.8557C196.779 70.693 196.455 69.6595 196.131 68.7551C195.483 66.8819 194.77 65.4608 194.122 64.5564C193.539 63.6521 193.021 63.3291 193.021 63.3291Z" fill="#263238"/>
<path d="M196.908 62.4892C196.908 61.0035 196.066 59.647 194.77 59.001L189.392 56.0942C187.837 55.2545 186.152 54.8023 184.403 54.8669C183.301 54.8669 182.265 55.0607 181.228 55.3837C178.96 56.1588 177.47 58.3551 177.405 60.7451C177.34 64.0395 179.997 66.8171 183.366 66.7525L192.891 66.6879C195.159 66.5587 196.973 64.6854 196.908 62.4892Z" fill="#FFE065"/>
<path d="M196.908 62.4894C196.908 62.4894 196.908 62.6832 196.843 63.0062C196.779 63.3291 196.714 63.8459 196.39 64.4273C196.066 65.0086 195.548 65.59 194.77 66.0422C194.381 66.2359 193.928 66.4297 193.409 66.4943C192.891 66.5589 192.373 66.5589 191.79 66.5589C189.457 66.5589 186.736 66.5589 183.626 66.6235C182.848 66.6235 182.07 66.5589 181.358 66.3005C180.645 66.0421 179.932 65.59 179.349 65.0732C178.766 64.4919 178.248 63.8459 177.989 63.0062C177.665 62.231 177.535 61.3913 177.6 60.4869C177.729 58.7429 178.636 57.128 179.932 56.2236C180.58 55.7715 181.358 55.4485 182.135 55.2547C182.913 55.0609 183.69 54.9963 184.468 54.9317C185.958 54.9317 187.448 55.2547 188.679 55.7715C189.327 56.0298 189.846 56.3528 190.429 56.6758C191.012 56.9988 191.53 57.2572 192.049 57.5155C193.085 58.0969 193.993 58.5491 194.77 59.0012C195.548 59.4534 196.131 60.0348 196.39 60.6161C196.714 61.1975 196.843 61.6497 196.908 61.9726C196.843 61.6497 196.779 61.1329 196.455 60.5515C196.131 59.9702 195.612 59.3242 194.77 58.872C193.993 58.4199 193.021 57.9031 192.049 57.3864C191.53 57.128 191.012 56.805 190.429 56.482C189.846 56.159 189.327 55.8361 188.679 55.5777C187.448 54.9963 185.958 54.6733 184.403 54.6733C183.626 54.6733 182.848 54.8025 182.07 54.9963C181.293 55.1901 180.451 55.4485 179.803 55.9653C178.377 56.9342 177.47 58.6137 177.341 60.4223C177.276 61.3267 177.405 62.231 177.729 63.0062C178.053 63.8459 178.572 64.5565 179.155 65.1378C179.738 65.7192 180.515 66.1713 181.293 66.4297C182.071 66.6881 182.848 66.8173 183.626 66.7527C186.671 66.6881 189.457 66.6881 191.79 66.6235C192.373 66.6235 192.891 66.6235 193.474 66.5589C193.993 66.4943 194.511 66.3005 194.9 66.1067C195.742 65.6546 196.26 65.0086 196.519 64.4273C196.843 63.8459 196.908 63.3291 196.908 63.0062C196.973 62.6832 196.908 62.4894 196.908 62.4894Z" fill="#263238"/>
<path d="M182.135 56.9986C182.135 56.9986 182.265 56.8048 182.589 56.5464C182.913 56.288 183.431 55.9651 184.144 55.9005C184.857 55.7713 185.764 55.9005 186.671 56.1589C187.643 56.4172 188.615 56.7402 189.651 57.1278C191.725 57.9675 193.409 59.1302 194.576 60.0992C195.742 61.0681 196.325 61.7141 196.325 61.7141C196.325 61.7141 196.196 61.5203 195.936 61.1973C195.677 60.8743 195.224 60.4868 194.705 59.97C193.604 59.0011 191.919 57.7737 189.781 56.8694C188.744 56.4172 187.708 56.0943 186.736 55.9005C185.764 55.6421 184.857 55.5775 184.144 55.7067C183.366 55.8359 182.848 56.1589 182.524 56.4818C182.395 56.611 182.265 56.7402 182.2 56.8694C182.135 56.9986 182.135 56.9986 182.135 56.9986Z" fill="white"/>
<path d="M104.836 112.68C104.836 112.68 104.836 112.615 104.836 112.421C104.836 112.228 104.836 111.969 104.901 111.582C104.901 111.194 104.966 110.806 104.966 110.225C104.966 109.708 104.966 109.062 104.901 108.416C104.836 107.706 104.772 106.995 104.707 106.156C104.642 105.768 104.577 105.316 104.512 104.864C104.448 104.412 104.383 103.959 104.253 103.507C103.8 101.634 103.152 99.5023 102.18 97.2414C101.143 94.9806 99.7825 92.6552 98.0331 90.3943C96.2836 88.1335 94.0806 85.9372 91.4241 84.0639C88.7676 82.1907 85.7223 80.5758 82.353 79.6069C78.9837 78.5733 75.2905 78.0566 71.5973 78.0566C67.8393 78.1212 64.2108 78.7671 60.8415 79.8652C57.4723 80.9634 54.427 82.5783 51.7704 84.3869C49.1139 86.2602 46.8461 88.3918 44.9671 90.5881C43.0881 92.7843 41.5978 95.0452 40.3668 97.1768C39.2005 99.3085 38.3582 101.376 37.6454 103.184C37.451 103.636 37.3215 104.089 37.1919 104.541C37.0623 104.993 36.9327 105.38 36.8031 105.768C36.6087 106.608 36.4144 107.318 36.2848 107.964C36.1552 108.61 36.0256 109.256 35.9608 109.773C35.896 110.29 35.8312 110.742 35.7664 111.065C35.7016 111.388 35.7016 111.711 35.6368 111.905C35.6368 112.098 35.572 112.163 35.572 112.163C35.572 112.163 35.572 112.098 35.572 111.905C35.572 111.711 35.6368 111.452 35.6368 111.065C35.7016 110.677 35.7016 110.29 35.8312 109.708C35.896 109.192 36.0256 108.61 36.1552 107.9C36.2848 107.254 36.4791 106.479 36.6735 105.703C36.7383 105.316 36.9327 104.864 37.0623 104.476C37.1919 104.024 37.3215 103.572 37.5158 103.12C38.1638 101.246 39.0061 99.2439 40.1724 97.0476C41.3387 94.916 42.8937 92.6552 44.7727 90.4589C46.6517 88.2627 48.9195 86.131 51.5761 84.2577C54.2326 82.3845 57.2779 80.7696 60.7119 79.6715C64.0812 78.5733 67.7744 77.9274 71.5325 77.8628C75.2905 77.7982 78.9837 78.3795 82.353 79.4131C85.7871 80.4466 88.8323 81.9969 91.4889 83.9348C94.1454 85.808 96.3484 88.0689 98.1627 90.3297C99.9769 92.5906 101.338 94.9806 102.309 97.1768C103.281 99.4377 103.994 101.569 104.383 103.443C104.512 103.895 104.577 104.412 104.642 104.864C104.707 105.316 104.836 105.768 104.836 106.156C104.901 106.995 105.031 107.771 105.031 108.416C105.031 109.127 105.031 109.708 105.031 110.225C105.031 110.742 104.966 111.194 104.966 111.582C104.966 111.969 104.901 112.228 104.901 112.421C104.836 112.615 104.836 112.68 104.836 112.68Z" fill="#263238"/>
<path d="M81.1868 79.2194C81.1868 79.2194 81.122 79.1549 81.0572 79.0903C80.9924 78.9611 80.8629 78.8319 80.7333 78.6381C80.4741 78.2505 80.0854 77.6692 79.6966 76.894C79.243 76.1189 78.7895 75.2791 78.3359 74.181C78.2063 73.9226 78.1415 73.6642 78.0768 73.3413C78.012 73.2121 78.0768 73.0183 78.0768 72.8891C78.1415 72.7599 78.1415 72.5661 78.2063 72.4369C78.4007 71.8556 78.5951 71.2742 78.8542 70.6282C79.8261 68.1736 80.7981 66.042 81.446 64.4271C81.77 63.6519 82.094 63.006 82.2883 62.5538C82.3531 62.36 82.4827 62.1662 82.5475 62.037C82.4827 62.1662 82.4179 62.36 82.3531 62.5538C82.1587 63.006 81.8996 63.6519 81.5756 64.4271C80.9276 65.9774 79.9558 68.1736 79.0487 70.6282C78.7895 71.2096 78.5951 71.8556 78.4007 72.4369C78.3359 72.7599 78.2063 73.0183 78.2711 73.2767C78.3359 73.535 78.4655 73.7934 78.5303 74.0518C78.9838 75.0853 79.4374 75.9897 79.891 76.7648C80.2797 77.4754 80.6037 78.1213 80.8629 78.5089C80.9925 78.7027 81.0572 78.8319 81.122 78.9611C81.1868 79.1549 81.1868 79.2194 81.1868 79.2194Z" fill="#263238"/>
<path d="M48.3364 87.1002C48.3364 87.1648 41.9867 87.2294 34.0818 87.294C26.2418 87.3586 19.8272 87.294 19.8272 87.2294C19.8272 87.1648 26.177 87.1002 34.0818 87.0356C41.9219 87.0356 48.3364 87.0356 48.3364 87.1002Z" fill="#263238"/>
<path d="M197.167 106.091C197.167 106.156 176.498 106.414 150.97 106.608C125.441 106.866 104.772 106.996 104.772 106.931C104.772 106.866 125.441 106.608 150.97 106.414C176.498 106.156 197.167 106.027 197.167 106.091Z" fill="#263238"/>
<path d="M278.095 105.574C278.095 105.639 274.92 105.703 271.032 105.768C267.145 105.833 263.97 105.768 263.97 105.703C263.97 105.639 267.145 105.574 271.032 105.51C274.92 105.445 278.095 105.51 278.095 105.574Z" fill="#263238"/>
<path d="M260.211 68.4966C260.211 68.4966 260.147 68.4966 260.082 68.4966C259.952 68.4966 259.823 68.4966 259.628 68.4966C259.24 68.4966 258.656 68.432 257.944 68.3674C256.453 68.2383 254.315 68.1091 251.659 67.8507C246.346 67.3985 239.089 66.6234 231.054 65.5898C223.02 64.5563 215.763 63.3936 210.515 62.4893C207.923 62.0371 205.785 61.6495 204.295 61.3911C203.582 61.2619 202.999 61.1328 202.61 61.0682C202.416 61.0036 202.286 61.0036 202.156 61.0036C202.027 61.0036 202.027 60.939 202.027 60.939C202.027 60.939 202.092 60.939 202.156 60.939C202.286 60.939 202.416 61.0036 202.61 61.0036C202.999 61.0682 203.582 61.1328 204.295 61.2619C205.785 61.5203 207.858 61.8433 210.515 62.2955C215.763 63.1352 223.02 64.2333 231.054 65.3315C239.089 66.365 246.41 67.1401 251.659 67.6569C254.315 67.9153 256.453 68.1091 257.944 68.2383C258.656 68.3029 259.24 68.3674 259.628 68.3674C259.823 68.3674 259.952 68.432 260.082 68.432C260.211 68.4966 260.211 68.4966 260.211 68.4966Z" fill="#263238"/>
<path d="M157.319 71.9199C157.319 71.9199 157.449 71.9199 157.643 71.8553C157.837 71.7907 158.161 71.7261 158.485 71.5323C158.809 71.3386 159.133 70.951 159.328 70.4342C159.393 70.1758 159.457 69.8529 159.457 69.5299C159.457 69.2069 159.393 68.8839 159.198 68.561C158.874 67.9796 158.161 67.4628 157.319 67.4628C156.477 67.4628 155.57 67.4628 154.598 67.5274C152.654 67.5274 150.581 67.592 148.378 67.592C147.859 67.592 147.341 67.7858 146.952 68.1734C146.563 68.4964 146.369 69.0131 146.304 69.4653C146.239 69.9821 146.304 70.4342 146.563 70.8864C146.823 71.274 147.211 71.5969 147.6 71.7907C148.054 71.9845 148.507 71.9199 148.961 71.9199C149.414 71.9199 149.868 71.9199 150.257 71.9199C151.099 71.9199 151.876 71.9199 152.589 71.9199C154.015 71.9199 155.181 71.9199 156.023 71.9199C156.412 71.9199 156.736 71.9199 156.93 71.9199C157.19 71.9199 157.319 71.9199 157.319 71.9199C157.319 71.9199 157.19 71.9199 156.995 71.9199C156.736 71.9199 156.477 71.9199 156.088 71.9199C155.246 71.9199 154.079 71.9845 152.654 71.9845C151.941 71.9845 151.164 71.9845 150.321 72.0491C149.868 72.0491 149.479 72.0491 149.026 72.0491C148.766 72.0491 148.572 72.0491 148.313 72.0491C148.054 72.0491 147.794 71.9845 147.6 71.9199C147.147 71.7261 146.693 71.4032 146.434 70.951C146.175 70.4988 146.11 69.9175 146.11 69.4007C146.175 68.8839 146.434 68.3026 146.823 67.9796C147.211 67.592 147.794 67.3336 148.378 67.3336C150.581 67.3336 152.654 67.269 154.598 67.269C155.57 67.269 156.477 67.269 157.319 67.269C158.226 67.269 159.004 67.8504 159.328 68.4964C159.522 68.8193 159.587 69.2069 159.587 69.5299C159.587 69.8529 159.587 70.1758 159.457 70.4342C159.263 71.0156 158.874 71.4032 158.55 71.5969C158.226 71.7907 157.902 71.9199 157.643 71.9199C157.384 71.9845 157.319 71.9199 157.319 71.9199Z" fill="#263238"/>
<path d="M156.477 66.8169C156.477 66.8815 154.922 66.9461 152.978 66.9461C151.034 66.9461 149.479 66.9461 149.479 66.8815C149.479 66.8169 151.034 66.7523 152.978 66.7523C154.922 66.6877 156.477 66.7523 156.477 66.8169Z" fill="white"/>
<path d="M98.7459 72.8242C98.7459 72.8242 98.8755 72.8242 99.0699 72.7596C99.2642 72.695 99.5882 72.6304 99.9122 72.4366C100.236 72.2429 100.56 71.8553 100.755 71.3385C100.819 71.0801 100.884 70.7572 100.884 70.4342C100.884 70.1112 100.819 69.7882 100.625 69.4652C100.301 68.8839 99.5882 68.3671 98.7459 68.3671C97.9036 68.3671 96.9965 68.3671 96.0246 68.4317C94.0808 68.4317 92.0074 68.4963 89.8044 68.4963C89.286 68.4963 88.7677 68.6901 88.3789 69.0777C87.9902 69.4007 87.7958 69.9174 87.731 70.3696C87.6662 70.8864 87.731 71.3385 87.9902 71.7907C88.2494 72.1783 88.6381 72.5012 89.0269 72.695C89.4804 72.8888 89.934 72.8242 90.3876 72.8242C90.8411 72.8242 91.2947 72.8242 91.6834 72.8242C92.5257 72.8242 93.3032 72.8242 94.016 72.8242C95.4414 72.8242 96.6077 72.8242 97.45 72.8242C97.8388 72.8242 98.1628 72.8242 98.3572 72.8242C98.6163 72.8242 98.7459 72.8242 98.7459 72.8242C98.7459 72.8242 98.6163 72.8242 98.4219 72.8242C98.1628 72.8242 97.9036 72.8242 97.5148 72.8242C96.6725 72.8242 95.5062 72.8888 94.0808 72.8888C93.368 72.8888 92.5905 72.8888 91.7482 72.9534C91.2946 72.9534 90.9059 72.9534 90.4523 72.9534C90.1932 72.9534 89.9988 72.9534 89.7396 72.9534C89.4804 72.9534 89.2212 72.8888 89.0269 72.8242C88.5733 72.6304 88.1198 72.3075 87.8606 71.8553C87.6014 71.4031 87.5366 70.8218 87.5366 70.305C87.6014 69.7882 87.8606 69.2069 88.2493 68.8839C88.6381 68.4963 89.2213 68.2379 89.8044 68.2379C92.0074 68.2379 94.0808 68.1733 96.0246 68.1733C96.9965 68.1733 97.9036 68.1733 98.7459 68.1733C99.653 68.1733 100.431 68.7547 100.755 69.4007C100.949 69.7236 101.014 70.1112 101.014 70.4342C101.014 70.7572 101.014 71.0801 100.884 71.3385C100.69 71.9199 100.301 72.3075 99.977 72.5012C99.653 72.695 99.329 72.8242 99.0699 72.8242C98.8107 72.8888 98.7459 72.8242 98.7459 72.8242Z" fill="#263238"/>
<path d="M97.9038 67.7212C97.9038 67.7858 96.3487 67.8504 94.4049 67.8504C92.4611 67.8504 90.9061 67.8504 90.9061 67.7858C90.9061 67.7212 92.4611 67.6566 94.4049 67.6566C96.3487 67.592 97.9038 67.6566 97.9038 67.7212Z" fill="white"/>
<path d="M264.359 111.905C264.359 111.905 264.359 111.84 264.359 111.646C264.359 111.453 264.359 111.194 264.359 110.807C264.359 110.419 264.359 110.031 264.359 109.45C264.294 108.933 264.294 108.287 264.229 107.641C264.164 106.931 264.035 106.22 263.905 105.381C263.84 104.993 263.711 104.541 263.646 104.089C263.516 103.636 263.451 103.184 263.322 102.732C262.803 100.859 262.091 98.7272 261.054 96.531C260.017 94.3347 258.592 92.0093 256.778 89.7485C254.963 87.4876 252.76 85.2914 250.169 83.4181C247.512 81.5448 244.467 79.9299 241.098 78.8964C237.728 77.8629 234.1 77.2815 230.342 77.2815C226.584 77.3461 222.955 77.9921 219.586 79.0902C216.217 80.1883 213.236 81.8678 210.645 83.8057C208.053 85.7435 205.915 87.9398 204.165 90.2652C202.416 92.5261 201.055 94.9161 200.018 97.1124C199.047 99.3732 198.334 101.44 197.88 103.378C197.751 103.83 197.686 104.282 197.621 104.735C197.556 105.187 197.427 105.574 197.362 106.027C197.232 106.866 197.168 107.577 197.103 108.287C197.038 108.998 197.038 109.579 196.973 110.096C196.973 109.579 197.038 108.933 197.038 108.287C197.103 107.577 197.232 106.866 197.297 106.027C197.362 105.639 197.427 105.187 197.556 104.735C197.621 104.282 197.686 103.83 197.816 103.378C198.269 101.505 198.982 99.3732 199.954 97.1124C200.99 94.8515 202.286 92.5261 204.1 90.2006C205.85 87.8752 208.053 85.679 210.645 83.6765C213.236 81.7386 216.282 80.0591 219.651 78.961C223.02 77.8629 226.649 77.2169 230.471 77.1523C234.229 77.1523 237.923 77.7337 241.292 78.7672C244.661 79.8008 247.771 81.4156 250.363 83.3535C253.02 85.2268 255.223 87.4876 257.037 89.7485C258.851 92.0093 260.212 94.3347 261.313 96.531C262.35 98.7918 263.063 100.859 263.581 102.732C263.711 103.184 263.775 103.636 263.905 104.089C263.97 104.541 264.099 104.928 264.164 105.381C264.294 106.22 264.423 106.931 264.488 107.641C264.553 108.352 264.553 108.933 264.618 109.45C264.618 109.967 264.618 110.419 264.618 110.807C264.618 111.194 264.618 111.453 264.618 111.646C264.359 111.84 264.359 111.905 264.359 111.905Z" fill="#263238"/>
<path d="M90.517 36.4572C90.3874 36.4572 90.1931 36.4572 89.9987 36.4572C89.5451 36.4572 88.8324 36.4572 87.9901 36.4572C86.2407 36.4572 83.7137 36.5217 80.6036 36.5217C74.3834 36.5863 65.7659 36.5863 56.2412 36.6509C51.5113 36.6509 46.9757 36.7155 42.829 36.7155C38.6822 36.7155 34.9889 36.7801 31.8788 36.6509C28.7687 36.5217 26.2418 36.1988 24.5572 35.8758C23.7148 35.7466 23.0669 35.5528 22.6133 35.4882C22.419 35.4236 22.2246 35.4236 22.095 35.359C21.9654 35.359 21.9006 35.2944 21.9006 35.2944C21.9006 35.2944 21.9654 35.2944 22.095 35.2944C22.2246 35.2944 22.419 35.359 22.6133 35.4236C23.0669 35.5528 23.7148 35.682 24.5572 35.8112C26.2418 36.0696 28.7687 36.3926 31.8788 36.5217C34.9889 36.6509 38.6822 36.5863 42.829 36.5863C46.9757 36.5863 51.5113 36.5217 56.2412 36.5217C65.7659 36.4572 74.3834 36.4572 80.6036 36.4572C83.7137 36.4572 86.2407 36.4572 87.9901 36.4572C88.8324 36.4572 89.5451 36.4572 89.9987 36.4572C90.1931 36.4572 90.3874 36.4572 90.517 36.4572Z" fill="#263238"/>
<path d="M118.897 46.6635C118.897 46.7281 114.621 49.0535 109.307 51.8957C103.994 54.7379 99.6532 56.9987 99.5885 56.9341C99.5885 56.8695 103.865 54.5441 109.178 51.7019C114.556 48.8597 118.832 46.5989 118.897 46.6635Z" fill="#FAFAFA"/>
<path d="M127.708 44.8548C127.579 44.9194 127.32 45.0486 127.125 45.1778C126.542 45.5007 125.829 45.8883 124.858 46.4051C122.979 47.4386 120.322 48.8597 117.406 50.4746C114.491 52.0895 111.899 53.5752 110.02 54.6733C109.113 55.1901 108.335 55.6422 107.817 55.9652C107.558 56.0944 107.363 56.2236 107.234 56.2882C107.363 56.159 107.558 56.0944 107.817 55.9006C108.335 55.5776 109.048 55.1255 110.02 54.5441C111.899 53.446 114.491 51.8957 117.341 50.3454C120.257 48.7305 122.849 47.374 124.793 46.3405C125.765 45.8237 126.542 45.4361 127.061 45.1778C127.32 45.0486 127.514 44.984 127.708 44.8548Z" fill="#FAFAFA"/>
<path d="M167.103 47.6323C167.103 47.6323 167.038 47.6969 166.909 47.6969C166.779 47.7615 166.585 47.8261 166.39 47.9553C165.937 48.1491 165.289 48.4721 164.576 48.795C163.021 49.5056 160.883 50.4745 158.55 51.6372C156.218 52.8 154.144 53.8981 152.654 54.6732C151.941 55.0608 151.293 55.3838 150.905 55.6422C150.71 55.7714 150.581 55.836 150.386 55.9005C150.257 55.9651 150.192 55.9651 150.192 55.9651C150.192 55.9651 150.257 55.9005 150.321 55.836C150.451 55.7714 150.581 55.6422 150.775 55.5776C151.164 55.3192 151.812 54.9962 152.524 54.544C154.015 53.7043 156.088 52.6062 158.421 51.4435C160.753 50.2807 162.891 49.3118 164.447 48.6659C165.224 48.3429 165.872 48.0845 166.326 47.8907C166.52 47.8261 166.714 47.7615 166.844 47.6969C167.038 47.6969 167.103 47.6323 167.103 47.6323Z" fill="#FAFAFA"/>
<path d="M161.466 47.1799C161.466 47.1799 161.013 47.4382 160.365 47.7612C159.652 48.0842 158.68 48.601 157.643 49.1823C156.607 49.7637 155.7 50.345 155.052 50.7972C154.404 51.2494 154.015 51.5078 153.95 51.4432C153.95 51.4432 154.339 51.1202 154.922 50.668C155.57 50.2158 156.477 49.6345 157.514 49.0531C158.551 48.4718 159.523 47.955 160.235 47.632C161.013 47.309 161.466 47.1153 161.466 47.1799Z" fill="#FAFAFA"/>
<path d="M73.0229 47.7615C73.0229 47.8261 70.172 48.9888 66.6732 50.3453C63.1095 51.7664 60.2586 52.7999 60.2586 52.7999C60.2586 52.7354 63.1096 51.5726 66.6084 50.2161C70.1073 48.795 72.9582 47.6969 73.0229 47.7615Z" fill="#FAFAFA"/>
<path d="M69.3296 46.599C69.3296 46.6636 66.8674 47.6325 63.8221 48.7952C60.7768 49.9579 58.3147 50.7977 58.2499 50.7977C58.2499 50.7331 60.712 49.7641 63.7573 48.6014C66.8026 47.4387 69.2648 46.5344 69.3296 46.599Z" fill="#FAFAFA"/>
<path d="M236.691 76.1189C236.691 76.1189 236.562 76.1189 236.367 76.1189C236.108 76.1189 235.849 76.0543 235.46 76.0543C235.266 76.0543 235.007 75.9897 234.812 75.9897C234.553 75.9897 234.294 75.9897 234.035 75.9251C233.452 75.9251 232.804 75.8605 232.091 75.8605C231.702 75.8605 231.378 75.8605 230.99 75.8605C230.601 75.8605 230.212 75.9251 229.758 75.9251C228.916 75.9251 228.009 76.0543 227.037 76.1835C225.158 76.4419 223.085 76.8294 220.947 77.4108C218.808 77.9921 216.865 78.7673 215.115 79.5424C214.273 79.93 213.431 80.3176 212.718 80.7698C212.329 80.9635 212.005 81.1573 211.616 81.3511C211.292 81.5449 210.968 81.7387 210.644 81.9325C209.996 82.32 209.478 82.7076 209.025 83.0306C208.765 83.2244 208.571 83.3536 208.377 83.4828C208.182 83.612 207.988 83.7411 207.858 83.8703C207.534 84.1287 207.275 84.2579 207.146 84.4517C207.34 84.3225 207.534 84.1287 207.858 83.8703C207.988 83.7411 208.182 83.612 208.377 83.4182C208.571 83.289 208.765 83.0952 209.025 82.966C209.478 82.643 209.996 82.2554 210.644 81.8679C210.968 81.6741 211.292 81.4803 211.616 81.2865C211.94 81.0927 212.329 80.8989 212.653 80.7052C213.366 80.253 214.208 79.8654 215.05 79.4778C216.8 78.7027 218.744 77.9275 220.882 77.2816C223.02 76.7002 225.093 76.3127 226.972 76.0543C227.944 75.9897 228.851 75.8605 229.694 75.8605C230.147 75.8605 230.536 75.7959 230.925 75.7959C231.314 75.7959 231.702 75.7959 232.091 75.7959C232.804 75.7959 233.452 75.8605 234.035 75.8605C234.294 75.8605 234.618 75.9251 234.812 75.9251C235.072 75.9251 235.266 75.9897 235.46 75.9897C235.849 76.0543 236.173 76.0543 236.367 76.1189C236.627 76.1189 236.691 76.1189 236.691 76.1189Z" fill="#FAFAFA"/>
<path d="M72.375 76.6357C72.375 76.6357 72.3102 76.6357 72.1158 76.6357C71.9215 76.6357 71.6623 76.6357 71.4031 76.6357C71.0791 76.6357 70.6904 76.6357 70.2368 76.7003C69.7833 76.7003 69.2649 76.7649 68.6818 76.8295C68.4226 76.8295 68.0986 76.8941 67.7747 76.8941C67.4507 76.9587 67.1267 76.9587 66.8028 77.0233C66.1548 77.0879 65.4421 77.2817 64.7294 77.4109C63.2391 77.7339 61.6841 78.1214 59.9994 78.7028C58.3796 79.2842 56.8246 79.8655 55.4639 80.5115C54.1032 81.1574 52.8721 81.7388 51.9002 82.3201C51.3819 82.5785 50.9931 82.8369 50.6044 83.0953C50.2156 83.3537 49.8916 83.5475 49.6325 83.6767C49.3733 83.8058 49.1789 83.935 48.9845 84.0642C49.1141 83.935 49.3085 83.8058 49.5677 83.6767C49.8269 83.4829 50.1508 83.2891 50.5396 83.0307C50.9284 82.7723 51.3819 82.5139 51.8355 82.2556C52.8074 81.6742 54.0384 81.0282 55.3991 80.3823C56.7598 79.7363 58.3148 79.0904 59.9347 78.5736C61.6193 78.0568 63.1743 77.6047 64.6646 77.2817C65.3773 77.1525 66.09 77.0233 66.8028 76.9587C67.1267 76.8941 67.4507 76.8941 67.7747 76.8295C68.0986 76.8295 68.3578 76.7649 68.6818 76.7649C69.2649 76.7003 69.7833 76.7003 70.2368 76.7003C70.6904 76.7003 71.0791 76.7003 71.4031 76.7003C71.7271 76.7003 71.9215 76.7003 72.1158 76.7003C72.3102 76.6357 72.375 76.6357 72.375 76.6357Z" fill="#FAFAFA"/>
<path d="M1.68454 153.375L310.296 156.023V144.138H1.68454V153.375Z" fill="#263238"/>
<path d="M324.097 136.58H398.675V167.909H324.097V136.58Z" fill="#263238"/>
<path d="M404.33 185.641L22.5015 185.641L22.5015 163.679L404.33 163.679V185.641Z" fill="#263238"/>
<path d="M325.523 170.751H311.592V70.8218C311.592 65.202 316.193 60.6157 321.83 60.6157H325.523V170.751Z" fill="#263238"/>
<path d="M448.436 114.811C448.436 110.29 446.687 107.318 443.447 102.732L401.979 50.6035C400.878 49.5053 399.323 48.8594 397.703 48.8594H331.613C328.244 48.8594 325.523 51.5724 325.523 54.9314V135.353C325.523 142.523 331.419 148.272 338.611 148.143C395.305 140.004 405.348 183.606 405.348 183.606L447.918 182.895L448.501 119.204L448.436 114.811Z" fill="#E0E0E0"/>
<path d="M447.14 108.61L442.281 108.481L400.813 54.673L404.7 53.9624C404.7 53.9624 432.367 88.3272 444.03 103.507C445.585 105.574 446.363 107.318 447.14 108.61Z" fill="#455A64"/>
<path d="M341.009 60.9387L390.316 60.6157C391.807 60.6157 393.167 61.2617 394.204 62.3598L424.592 102.409C426.795 105.122 424.851 109.256 421.353 109.256L341.009 109.127C338.028 109.127 335.631 106.543 335.631 103.313V66.7523C335.631 63.5225 338.028 60.9387 341.009 60.9387Z" fill="#455A64"/>
<path d="M322.369 168.462L3.77881 168.462L3.77881 151.344L322.369 151.344V168.462Z" fill="#263238"/>
<path d="M42.0506 178.567H34.5346C32.9147 178.567 31.6188 177.275 31.6188 175.66C31.6188 174.045 32.9147 172.753 34.5346 172.753H42.0506C43.6704 172.753 44.9663 174.045 44.9663 175.66C44.9663 177.275 43.6704 178.567 42.0506 178.567Z" fill="#FFE065"/>
<path d="M431.784 198.334H315.48C311.981 198.334 309.13 195.491 309.13 192.003C309.13 188.515 311.981 185.673 315.48 185.673H431.784C435.283 185.673 438.134 188.515 438.134 192.003C438.134 195.491 435.283 198.334 431.784 198.334Z" fill="#263238"/>
<path d="M315.742 195.902L144.751 195.902V190.088L315.742 190.088V195.902Z" fill="#263238"/>
<path d="M274.271 200.594H220.363C210.903 200.594 203.322 192.972 203.322 183.606C203.322 174.175 210.967 166.617 220.363 166.617H274.271C283.731 166.617 291.312 174.239 291.312 183.606C291.312 192.972 283.666 200.594 274.271 200.594Z" fill="#455A64"/>
<path d="M274.984 124.113L291.765 79.4775L302.975 80.0589L303.623 145.688L-0.00012207 147.884L0.0646667 126.826L274.984 124.113Z" fill="#455A64"/>
<path d="M-0.00012207 140.197L303.623 140.778V132.058L-0.00012207 132.51V140.197Z" fill="white"/>
<path d="M101.661 132.381L112.87 140.326H102.05L91.0347 132.381H101.661Z" fill="#FFE065"/>
<path d="M125.375 132.381L136.649 140.391L125.829 140.326L114.814 132.445L125.375 132.381Z" fill="#FFE065"/>
<path d="M149.09 132.316L160.429 140.455L149.608 140.391L138.269 132.316H149.09Z" fill="#FFE065"/>
<path d="M172.74 132.252L184.208 140.52L173.387 140.456L162.178 132.252H172.74Z" fill="#FFE065"/>
<path d="M196.324 132.252L207.987 140.585L197.167 140.52L185.634 132.252H196.324Z" fill="#FFE065"/>
<path d="M220.169 132.188L231.767 140.65L221.011 140.585L209.478 132.188H220.169Z" fill="#FFE065"/>
<path d="M243.753 132.123L255.546 140.649H244.79L233.063 132.187L243.753 132.123Z" fill="#FFE065"/>
<path d="M267.338 132.123L279.325 140.714H268.569L256.907 132.123H267.338Z" fill="#FFE065"/>
<path d="M291.117 132.058L302.91 140.778H292.089L280.621 132.058H291.117Z" fill="#FFE065"/>
<path d="M79.7606 132.316L91.0347 140.326H80.2141L69.0696 132.446L79.7606 132.316Z" fill="#FFE065"/>
<path d="M57.9903 132.446L69.1348 140.326H58.5086L47.3641 132.446H57.9903Z" fill="#FFE065"/>
<path d="M35.4419 132.446L47.2344 140.326L36.4787 140.262L25.3342 132.446H35.4419Z" fill="#FFE065"/>
<path d="M14.5137 132.51L25.6582 140.326L14.8377 140.262L3.95235 132.575L14.5137 132.51Z" fill="#FFE065"/>
<path d="M330.447 145.429C330.447 145.429 330.447 145.171 330.447 144.719C330.447 144.202 330.447 143.492 330.447 142.587C330.447 140.714 330.447 137.936 330.447 134.384C330.447 127.278 330.447 116.943 330.512 104.218C330.512 97.8226 330.512 90.9108 330.512 83.4178C330.512 79.6712 330.512 75.7955 330.512 71.7906C330.512 69.7881 330.512 67.7857 330.512 65.7186C330.512 64.6851 330.512 63.6516 330.512 62.618C330.512 61.5845 330.447 60.551 330.641 59.5174C331.095 57.515 332.65 55.7709 334.658 55.1249C335.63 54.7374 336.732 54.802 337.833 54.802C338.935 54.802 340.036 54.802 341.138 54.802C345.544 54.802 350.079 54.802 354.68 54.802C363.88 54.802 373.405 54.802 383.124 54.802C385.586 54.802 387.984 54.802 390.381 54.802H392.195C392.778 54.802 393.361 54.802 393.945 54.8666C395.111 54.9958 396.212 55.5125 397.055 56.2877C397.508 56.6752 397.832 57.1274 398.221 57.5796L399.258 59.0007C399.97 59.9696 400.683 60.8739 401.396 61.7783C402.821 63.6516 404.182 65.4602 405.543 67.3335C411.18 74.6974 416.493 81.8029 421.547 88.5208C424.074 91.8798 426.536 95.1741 428.933 98.3393C430.164 99.9542 431.331 101.505 432.497 103.055C433.663 104.605 434.894 106.091 435.736 107.706C436.579 109.321 437.227 111.065 437.486 112.873C437.615 113.778 437.745 114.617 437.745 115.522C437.745 116.426 437.745 117.266 437.745 118.17C437.745 121.658 437.745 124.953 437.745 128.182C437.745 140.908 437.81 151.178 437.81 158.349C437.81 161.901 437.81 164.679 437.875 166.552C437.875 164.679 437.875 161.901 437.875 158.349C437.875 151.243 437.875 140.908 437.939 128.182C437.939 125.017 437.939 121.658 437.939 118.17C437.939 117.33 437.939 116.426 437.939 115.522C437.939 114.617 437.81 113.713 437.68 112.809C437.356 111 436.773 109.256 435.866 107.576C435.024 105.897 433.728 104.411 432.626 102.861C431.46 101.311 430.294 99.7604 429.063 98.1455C426.665 94.9804 424.203 91.686 421.676 88.327C416.622 81.6091 411.309 74.5036 405.802 67.2043C404.441 65.3956 403.016 63.5224 401.655 61.6491C400.942 60.7448 400.23 59.7758 399.517 58.8715L398.48 57.4504C398.156 56.9982 397.767 56.4815 397.314 56.0939C396.407 55.3187 395.24 54.7374 394.009 54.6082C393.426 54.5436 392.778 54.5436 392.195 54.5436H390.381C387.984 54.5436 385.521 54.5436 383.124 54.5436C373.405 54.5436 363.88 54.5436 354.68 54.5436C350.079 54.5436 345.544 54.5436 341.138 54.5436C340.036 54.5436 338.935 54.5436 337.833 54.5436C336.732 54.5436 335.63 54.479 334.529 54.8666C332.391 55.5771 330.771 57.3858 330.317 59.5174C330.253 59.7758 330.253 60.0342 330.188 60.2926C330.188 60.551 330.123 60.8094 330.188 61.0677C330.188 61.5845 330.188 62.1013 330.188 62.618C330.188 63.6516 330.188 64.6851 330.188 65.7186C330.188 67.7857 330.188 69.7881 330.188 71.7906C330.188 75.7955 330.188 79.6712 330.188 83.4178C330.188 90.9108 330.188 97.8872 330.188 104.218C330.188 116.943 330.253 127.214 330.253 134.384C330.253 137.936 330.253 140.714 330.253 142.587C330.253 143.492 330.253 144.202 330.253 144.719C330.447 145.171 330.447 145.429 330.447 145.429Z" fill="#263238"/>
<path d="M400.23 110.871C403.146 110.871 405.543 108.481 405.543 105.574V86.583C405.543 83.6762 403.146 81.2861 400.23 81.2861C397.314 81.2861 394.917 83.6762 394.917 86.583V105.509C394.917 108.481 397.314 110.871 400.23 110.871Z" fill="#263238"/>
<path d="M412.087 117.46H414.031V96.9831C414.031 94.593 412.605 92.3322 410.467 91.2987C405.478 88.844 404.765 88.7794 404.441 88.7148L404.182 90.6527C404.312 90.6527 405.154 90.9111 409.625 93.0427C411.115 93.7533 412.087 95.3682 412.087 96.9831V117.46Z" fill="#263238"/>
<path d="M401.785 102.732H412.929V104.67H401.785V102.732Z" fill="#263238"/>
<path d="M412.865 122.95C414.938 122.95 416.623 121.271 416.623 119.204V114.618C416.623 112.551 414.938 110.871 412.865 110.871C410.791 110.871 409.107 112.551 409.107 114.618V119.204C409.107 121.271 410.791 122.95 412.865 122.95Z" fill="#263238"/>
<path d="M351.311 48.8595H378.395C378.395 46.8571 376.775 45.2422 374.766 45.2422H354.874C352.931 45.2422 351.311 46.8571 351.311 48.8595Z" fill="#E0E0E0"/>
<path d="M355.393 45.242H372.952C372.952 40.9787 369.518 37.5552 365.241 37.5552H363.038C358.827 37.5552 355.393 40.9787 355.393 45.242Z" fill="#FFE065"/>
<path d="M350.922 70.628C350.857 70.6926 357.661 76.1832 366.148 82.9012C374.636 89.6191 381.505 94.9805 381.569 94.9159C381.634 94.8513 374.831 89.3607 366.343 82.6428C357.855 75.9249 350.987 70.5634 350.922 70.628Z" fill="white"/>
<path d="M355.133 80.0592C355.069 80.1238 361.872 85.6144 370.36 92.3323C378.848 99.0502 385.716 104.412 385.781 104.347C385.846 104.282 379.042 98.7919 370.554 92.0739C362.131 85.4206 355.198 79.9946 355.133 80.0592Z" fill="white"/>
<path d="M324.421 191.938C324.421 209.96 339.064 224.624 357.207 224.624C375.284 224.624 389.992 210.025 389.992 191.938C389.992 173.916 375.349 159.253 357.207 159.253C339.129 159.318 324.421 173.916 324.421 191.938Z" fill="#455A64"/>
<path d="M324.421 191.874V191.938C324.421 209.96 339.064 224.623 357.207 224.623C375.284 224.623 389.992 210.025 389.992 191.938V191.874H324.421Z" fill="#455A64"/>
<path d="M334.205 191.938C334.205 204.599 344.507 214.87 357.207 214.87C369.906 214.87 380.208 204.599 380.208 191.938C380.208 179.278 369.906 169.007 357.207 169.007C344.507 169.007 334.205 179.278 334.205 191.938Z" fill="#FAFAFA"/>
<path d="M357.207 169.007C344.507 169.007 334.205 179.278 334.205 191.938H380.208C380.208 179.278 369.906 169.007 357.207 169.007Z" fill="#E0E0E0"/>
<path d="M343.211 191.938C343.211 199.625 349.496 205.891 357.207 205.891C364.917 205.891 371.202 199.625 371.202 191.938C371.202 184.252 364.917 177.986 357.207 177.986C349.432 177.986 343.211 184.252 343.211 191.938Z" fill="#263238"/>
<path d="M90.5814 195.338C88.6421 177.389 101.665 161.272 119.669 159.339C137.672 157.405 153.839 170.388 155.779 188.337C157.718 206.286 144.695 222.403 126.691 224.337C108.688 226.27 92.5206 213.287 90.5814 195.338Z" fill="#455A64"/>
<path d="M90.4513 191.81V191.874C90.4513 209.896 105.095 224.56 123.237 224.56C141.314 224.56 156.022 209.961 156.022 191.874V191.81H90.4513Z" fill="#455A64"/>
<path d="M100.17 191.874C100.17 204.535 110.473 214.805 123.172 214.805C135.872 214.805 146.174 204.535 146.174 191.874C146.174 179.213 135.872 168.942 123.172 168.942C110.473 168.942 100.17 179.213 100.17 191.874Z" fill="#FAFAFA"/>
<path d="M123.172 168.942C110.473 168.942 100.171 179.213 100.171 191.874H146.174C146.239 179.213 135.937 168.942 123.172 168.942Z" fill="#E0E0E0"/>
<path d="M109.177 191.874C109.177 199.561 115.462 205.827 123.173 205.827C130.883 205.827 137.168 199.561 137.168 191.874C137.168 184.187 130.883 177.921 123.173 177.921C115.462 177.921 109.177 184.187 109.177 191.874Z" fill="#263238"/>
<path d="M26.5651 167.392C26.5651 167.392 26.8242 167.392 27.4074 167.392C27.9905 167.392 28.8329 167.392 29.8695 167.392C32.0725 167.392 35.3122 167.392 39.3942 167.457C47.6878 167.457 59.6746 167.521 74.5123 167.586C104.188 167.65 145.202 167.78 190.493 167.844C246.474 167.909 295.847 167.973 325.328 168.038H325.393V167.973C325.393 158.801 325.328 151.502 325.328 146.528C325.328 144.073 325.328 142.135 325.328 140.843C325.328 140.197 325.328 139.745 325.328 139.358C325.328 139.681 325.328 140.197 325.328 140.843C325.328 142.135 325.328 144.073 325.328 146.528C325.328 151.502 325.328 158.801 325.263 167.973L325.328 167.909C295.847 167.844 246.474 167.715 190.493 167.586C145.202 167.521 104.188 167.457 74.5123 167.392C59.6746 167.392 47.6878 167.392 39.3942 167.392C35.2474 167.392 32.0077 167.392 29.8695 167.392C28.768 167.392 27.9258 167.392 27.4074 167.392C26.889 167.392 26.5651 167.392 26.5651 167.392Z" fill="#455A64"/>
<path d="M446.363 187.03H404.182C401.137 187.03 398.675 184.575 398.675 181.539V174.886C398.675 171.85 401.137 169.395 404.182 169.395H446.363C449.408 169.395 451.87 171.85 451.87 174.886V181.539C451.87 184.575 449.408 187.03 446.363 187.03Z" fill="#263238"/>
<path d="M446.363 187.029C446.363 187.029 446.492 187.029 446.687 187.029C446.881 187.029 447.27 186.965 447.659 186.9C448.501 186.706 449.797 186.19 450.834 184.769C451.352 184.123 451.741 183.218 451.87 182.185C452 181.733 452 181.151 452 180.634C452 180.053 452 179.536 452 178.89C452 177.728 452 176.436 452 175.079C452.065 173.723 451.611 172.237 450.574 171.074C449.538 169.912 447.983 169.136 446.298 169.201C444.678 169.201 442.993 169.201 441.179 169.201C437.68 169.201 433.922 169.201 429.905 169.201C422 169.201 413.253 169.201 404.117 169.201C402.951 169.201 401.785 169.589 400.813 170.235C399.841 170.881 399.128 171.849 398.739 172.948C398.545 173.464 398.416 174.046 398.416 174.627C398.416 175.208 398.416 175.725 398.416 176.307C398.416 177.405 398.416 178.503 398.416 179.536C398.416 180.053 398.416 180.634 398.416 181.151C398.416 181.668 398.416 182.249 398.545 182.766C398.675 183.283 398.869 183.8 399.128 184.252C399.387 184.704 399.711 185.156 400.1 185.544C400.878 186.319 401.785 186.836 402.821 187.029C403.34 187.159 403.858 187.159 404.377 187.159C404.895 187.159 405.348 187.159 405.867 187.159C413.772 187.159 420.899 187.159 426.925 187.094C432.886 187.094 437.745 187.029 441.114 187.029C442.799 187.029 444.095 187.029 445.002 187.029C445.456 187.029 445.78 187.029 445.974 187.029C446.233 187.094 446.363 187.029 446.363 187.029C446.363 187.029 446.233 187.029 446.039 187.029C445.78 187.029 445.456 187.029 445.067 187.029C444.16 187.029 442.864 187.029 441.179 187.029C437.81 187.029 432.95 187.029 426.989 186.965C420.964 186.965 413.836 186.965 405.932 186.9C405.413 186.9 404.96 186.9 404.441 186.9C403.923 186.9 403.469 186.9 402.951 186.771C401.979 186.577 401.072 186.06 400.359 185.35C400.035 184.962 399.711 184.575 399.452 184.123C399.193 183.67 398.999 183.218 398.934 182.701C398.804 182.185 398.804 181.668 398.804 181.151C398.804 180.634 398.804 180.053 398.804 179.536C398.804 178.438 398.804 177.405 398.804 176.307C398.804 175.208 398.739 174.11 399.128 173.077C399.452 172.043 400.165 171.139 401.072 170.558C401.979 169.912 403.081 169.589 404.182 169.589C413.318 169.589 422 169.589 429.97 169.589C433.922 169.589 437.68 169.589 441.244 169.589C442.993 169.589 444.678 169.589 446.363 169.589C447.983 169.524 449.473 170.299 450.445 171.333C451.417 172.431 451.87 173.852 451.87 175.144C451.87 176.5 451.87 177.728 451.87 178.955C451.87 179.536 451.87 180.118 451.87 180.699C451.87 181.28 451.87 181.797 451.805 182.249C451.676 183.218 451.287 184.123 450.834 184.769C449.862 186.125 448.566 186.642 447.723 186.9C446.816 187.029 446.363 187.029 446.363 187.029Z" fill="#455A64"/>
<path d="M416.558 181.862H409.625C408.07 181.862 406.774 180.57 406.774 179.019C406.774 177.469 408.07 176.177 409.625 176.177H416.558C418.113 176.177 419.409 177.469 419.409 179.019C419.409 180.57 418.113 181.862 416.558 181.862Z" fill="#FFE065"/>
<path d="M447.14 165.907V143.815C443.123 143.815 439.818 147.045 439.818 151.114V158.672C439.883 162.677 443.123 165.907 447.14 165.907Z" fill="#F5F5F5"/>
<path d="M396.213 102.538C396.213 102.538 396.277 102.215 396.277 101.699C396.277 101.117 396.342 100.342 396.342 99.3731C396.407 97.4352 396.407 94.7222 396.472 91.7508C396.472 90.2651 396.472 88.844 396.472 87.5521C396.472 86.2602 396.666 85.1621 397.12 84.3223C397.573 83.4826 398.221 83.0304 398.74 82.7721C399.258 82.5783 399.517 82.5783 399.517 82.5137C399.517 82.5137 399.452 82.5137 399.323 82.5137C399.193 82.5137 398.934 82.5783 398.675 82.6429C398.156 82.8367 397.444 83.2888 396.925 84.1932C396.407 85.0329 396.213 86.2602 396.148 87.5521C396.148 88.844 396.148 90.2651 396.083 91.7508C396.083 94.7222 396.083 97.3706 396.083 99.3731C396.083 100.277 396.083 101.053 396.148 101.699C396.148 102.215 396.213 102.538 396.213 102.538Z" fill="white"/>
<path d="M339.518 48.5366C339.518 48.6012 349.82 48.7303 362.455 48.7303C375.155 48.7303 385.392 48.6658 385.392 48.5366C385.392 48.472 375.155 48.3428 362.455 48.3428C349.756 48.4074 339.518 48.472 339.518 48.5366Z" fill="#263238"/>
<path d="M362.974 39.3638C362.974 39.4284 363.557 39.2346 364.529 39.2346C365.436 39.2346 366.796 39.3638 368.092 40.0098C369.388 40.6557 370.295 41.6247 370.814 42.3998C371.332 43.175 371.526 43.7563 371.591 43.6917C371.656 43.6917 371.526 43.1104 371.008 42.2706C370.49 41.4309 369.582 40.3974 368.222 39.6868C366.861 38.9763 365.5 38.8471 364.529 38.9117C363.492 39.1055 362.909 39.2992 362.974 39.3638Z" fill="white"/>
<path d="M341.721 121.981C341.721 121.981 341.591 121.981 341.332 121.917C341.073 121.852 340.749 121.723 340.36 121.465C339.972 121.142 339.648 120.69 339.583 119.979C339.518 119.333 339.777 118.493 340.425 118.041C340.749 117.783 341.203 117.654 341.656 117.654C342.11 117.654 342.628 117.654 343.147 117.654C344.183 117.654 345.285 117.654 346.451 117.654C348.784 117.654 351.31 117.654 353.967 117.654C354.615 117.654 355.198 117.912 355.587 118.429C355.976 118.881 356.17 119.527 356.04 120.108C355.976 120.69 355.652 121.206 355.133 121.529C354.874 121.723 354.615 121.788 354.356 121.852C354.097 121.917 353.837 121.917 353.513 121.917C351.181 121.917 349.108 121.917 347.358 121.981C345.609 121.981 344.248 122.046 343.211 122.046C342.758 122.046 342.369 122.046 342.11 122.046C342.434 122.046 342.758 122.046 343.211 122.046C344.248 122.046 345.673 122.046 347.358 122.111C349.108 122.111 351.181 122.111 353.513 122.175C353.773 122.175 354.097 122.175 354.421 122.111C354.745 122.046 355.004 121.917 355.328 121.723C355.846 121.335 356.235 120.754 356.364 120.108C356.494 119.462 356.3 118.687 355.846 118.17C355.393 117.654 354.68 117.331 353.967 117.331C351.31 117.331 348.719 117.331 346.451 117.331C345.285 117.331 344.183 117.331 343.147 117.331C342.628 117.331 342.11 117.331 341.656 117.331C341.138 117.331 340.684 117.524 340.296 117.847C339.518 118.429 339.259 119.333 339.388 120.044C339.453 120.754 339.907 121.271 340.296 121.594C340.684 121.917 341.073 121.981 341.332 122.046C341.591 122.046 341.721 121.981 341.721 121.981Z" fill="#263238"/>
<path d="M362.001 139.939H401.072C403.729 139.939 405.867 137.808 405.867 135.159V129.733C405.867 127.085 403.729 124.953 401.072 124.953H362.001C359.345 124.953 357.207 127.085 357.207 129.733V135.159C357.207 137.808 359.345 139.939 362.001 139.939Z" fill="#FFE065"/>
<path d="M364.982 130.767C364.982 130.831 372.692 130.96 382.217 130.96C391.742 130.96 399.452 130.896 399.452 130.767C399.452 130.637 391.742 130.573 382.217 130.573C372.757 130.573 364.982 130.702 364.982 130.767Z" fill="white"/>
<path d="M368.286 134.125C368.286 134.19 373.988 134.319 380.986 134.319C387.984 134.319 393.686 134.255 393.686 134.125C393.686 133.996 387.984 133.932 380.986 133.932C373.988 133.932 368.286 134.061 368.286 134.125Z" fill="white"/>
<path d="M2.46188 153.375C2.98022 153.375 3.75775 153.375 4.79443 153.375C6.86783 153.375 9.91315 153.375 13.8655 153.375C21.7056 153.375 33.1092 153.375 47.1046 153.31C75.1603 153.246 113.972 152.923 156.8 152.471C199.629 152.019 238.44 151.696 266.496 151.566C280.556 151.502 291.895 151.437 299.735 151.437C303.687 151.437 306.733 151.437 308.806 151.373C306.733 151.373 303.687 151.373 299.735 151.373C291.895 151.373 280.491 151.373 266.496 151.437C238.44 151.502 199.629 151.825 156.8 152.277C113.972 152.729 75.1603 153.052 47.1046 153.181C33.0444 153.246 21.7056 153.31 13.8655 153.31C9.91315 153.31 6.86783 153.31 4.79443 153.375C3.75775 153.375 2.98022 153.375 2.46188 153.375Z" fill="#455A64"/>
<path d="M282.362 325.436L282.516 344.502C282.516 344.502 263.124 350.96 262.817 354.496L299.906 355.726L300.983 325.897L282.362 325.436Z" fill="#263238"/>
<path d="M294.055 343.259C294.824 343.413 295.286 344.335 294.978 344.95C294.824 345.719 293.901 346.18 293.285 345.873C292.516 345.719 291.9 344.643 292.208 344.028C292.516 343.413 293.439 342.951 294.055 343.259Z" fill="#E0E0E0"/>
<path d="M299.763 355.724V352.648H264.212C264.212 352.648 262.519 353.263 262.673 354.494L299.763 355.724Z" fill="#455A64"/>
<path d="M281.871 344.357C281.871 344.51 282.795 344.664 283.718 345.279C284.641 345.894 285.103 346.663 285.257 346.663C285.411 346.663 285.257 345.587 284.18 344.818C282.949 344.049 281.871 344.203 281.871 344.357Z" fill="white"/>
<path d="M277.912 345.733C277.912 345.887 278.681 346.194 279.297 346.963C279.912 347.732 280.066 348.5 280.22 348.5C280.374 348.5 280.528 347.424 279.758 346.502C278.989 345.733 277.912 345.579 277.912 345.733Z" fill="white"/>
<path d="M275.61 350.344C275.764 350.344 276.071 349.422 275.61 348.499C275.148 347.423 274.378 347.115 274.225 347.269C274.071 347.423 274.686 348.038 274.994 348.807C275.456 349.575 275.456 350.344 275.61 350.344Z" fill="white"/>
<path d="M282.345 339.889C282.345 340.043 283.269 339.889 284.346 339.889C285.423 340.043 286.193 340.351 286.193 340.197C286.347 340.043 285.577 339.428 284.346 339.274C283.115 339.274 282.192 339.889 282.345 339.889Z" fill="white"/>
<path d="M327.002 329.125L328.08 352.189L323.617 370.64C323.309 372.024 324.232 373.254 325.463 373.561C326.233 373.715 327.002 373.408 327.464 372.946C330.85 369.564 343.162 356.494 343.316 355.264C343.469 353.265 343.931 330.508 343.931 330.508L327.002 329.125Z" fill="#263238"/>
<path d="M325.441 373.708L343.447 353.565V354.488C343.447 355.411 343.139 356.179 342.677 356.794C341.292 358.486 337.137 363.252 327.595 372.939C326.98 373.554 326.21 373.862 325.441 373.708Z" fill="#455A64"/>
<g opacity="0.6">
<path d="M338.538 346.197C337.922 346.658 337.768 347.427 338.23 348.042C338.692 348.657 339.461 348.81 340.077 348.349C340.692 347.888 340.846 346.965 340.384 346.35C339.923 345.889 338.845 345.735 338.538 346.197Z" fill="white"/>
</g>
<path d="M330.517 363.413C330.363 363.413 329.901 362.336 328.516 361.721C327.131 361.106 325.9 361.414 325.9 361.26C325.9 361.26 326.208 360.952 326.67 360.952C327.131 360.799 328.055 360.952 328.824 361.26C329.594 361.567 330.209 362.183 330.363 362.644C330.517 363.105 330.517 363.413 330.517 363.413Z" fill="white"/>
<path d="M328.827 366.49C328.673 366.643 327.903 365.875 326.826 365.567C325.595 365.26 324.671 365.413 324.517 365.26C324.517 365.106 325.595 364.645 326.98 364.952C328.365 365.413 328.98 366.49 328.827 366.49Z" fill="white"/>
<path d="M333.452 359.414C333.298 359.568 332.221 358.338 330.374 357.723C328.527 357.108 326.988 357.108 326.988 356.954C326.988 356.8 328.681 356.493 330.682 357.261C332.528 357.876 333.606 359.26 333.452 359.414Z" fill="white"/>
<path d="M333.775 352.349C333.775 352.503 332.39 352.042 330.697 351.888C329.004 351.888 327.773 352.349 327.619 352.196C327.619 352.042 328.85 351.427 330.697 351.427C332.544 351.427 333.775 352.196 333.775 352.349Z" fill="white"/>
<path d="M333.597 345.577C333.597 345.731 332.212 344.962 330.519 345.116C328.826 345.269 327.595 346.038 327.441 345.884C327.441 345.884 327.595 345.577 328.21 345.269C328.672 344.962 329.595 344.654 330.519 344.654C331.442 344.654 332.365 344.808 332.827 345.116C333.289 345.269 333.597 345.577 333.597 345.577Z" fill="white"/>
<path d="M330.543 343.729C330.543 343.729 330.389 343.422 330.543 342.807C330.543 342.192 330.697 341.423 331.159 340.5C331.466 340.039 331.62 339.578 332.236 339.117C332.544 338.963 333.005 338.963 333.313 339.27C333.621 339.578 333.621 339.885 333.775 340.347C333.775 341.884 332.544 343.268 330.851 343.576C329.158 343.729 327.619 342.807 327.003 341.577C326.849 341.269 326.696 340.808 326.849 340.5C327.003 340.039 327.465 339.885 327.773 340.039C328.388 340.193 328.85 340.5 329.312 340.808C330.081 341.423 330.697 342.038 331.005 342.499C331.313 342.961 331.466 343.268 331.313 343.268C331.159 343.268 330.697 342.192 329.158 340.962C328.696 340.654 328.235 340.347 327.773 340.347C327.465 340.347 327.311 340.5 327.311 340.654C327.157 340.808 327.311 341.116 327.465 341.423C328.081 342.499 329.466 343.268 330.851 343.114C332.236 342.961 333.313 341.577 333.313 340.5C333.313 340.193 333.159 339.885 333.005 339.732C332.852 339.578 332.698 339.578 332.39 339.578C331.928 339.732 331.62 340.193 331.466 340.654C330.543 342.499 330.543 343.729 330.543 343.729Z" fill="white"/>
<path d="M318.228 24.2196L312.842 67.2725C312.38 74.1917 308.84 79.4196 301.761 79.4196C294.066 79.4196 287.91 72.9616 288.372 65.2736C288.68 61.2758 288.833 57.8931 288.833 57.8931C288.833 57.8931 278.522 56.3555 278.368 45.8998C278.368 39.9031 279.292 26.3722 280.215 15.9165C280.831 8.84353 286.679 3.46191 293.758 3.46191H300.068C310.995 4.07696 319.151 13.4563 318.228 24.2196Z" fill="#FFBE9D"/>
<path d="M288.992 57.7365C288.992 57.7365 295.455 58.0441 302.535 53.7388C302.535 53.7388 299.149 61.273 288.838 60.3505L288.992 57.7365Z" fill="#EB996E"/>
<path d="M282.373 25.7505C282.526 25.9043 283.604 25.1355 285.297 25.1355C286.836 25.1355 288.067 25.9043 288.221 25.7505C288.375 25.5967 288.067 25.2892 287.605 24.9817C287.143 24.6742 286.22 24.2129 285.297 24.2129C284.373 24.2129 283.45 24.5204 282.988 24.9817C282.373 25.2892 282.219 25.5967 282.373 25.7505Z" fill="#263238"/>
<path d="M296.534 30.0626C296.534 30.8314 297.15 31.4464 297.919 31.6002C298.689 31.6002 299.458 30.9851 299.458 30.2163C299.458 29.4475 298.842 28.8325 298.073 28.6787C297.15 28.6787 296.534 29.2938 296.534 30.0626Z" fill="#263238"/>
<path d="M282.207 30.0626C282.207 30.8314 282.823 31.4464 283.592 31.6002C284.362 31.6002 285.131 30.9851 285.131 30.2163C285.131 29.4475 284.516 28.8325 283.746 28.6787C282.977 28.6787 282.361 29.2938 282.207 30.0626Z" fill="#263238"/>
<path d="M297.751 25.9077C297.905 26.0615 298.983 25.2927 300.676 25.2927C302.215 25.2927 303.446 26.0615 303.6 25.9077C303.754 25.754 303.446 25.4464 302.984 25.1389C302.522 24.8314 301.599 24.3701 300.676 24.3701C299.752 24.3701 298.829 24.6776 298.367 25.1389C297.751 25.4464 297.598 25.9077 297.751 25.9077Z" fill="#263238"/>
<path d="M292.062 38.3557C292.062 38.2019 291.138 38.0481 289.445 37.8944C288.984 37.8944 288.676 37.7406 288.522 37.4331C288.368 37.1256 288.522 36.6643 288.83 36.203C289.138 35.2805 289.599 34.2041 290.061 33.1278C291.754 28.6688 292.985 25.1323 292.831 24.9785C292.677 24.9785 291.138 28.3612 289.445 32.8203C288.984 33.8966 288.676 34.9729 288.368 35.8955C288.214 36.3568 287.906 36.8181 288.214 37.4331C288.368 37.7406 288.676 37.8944 288.83 38.0482C289.138 38.2019 289.292 38.2019 289.445 38.2019C290.984 38.3557 292.062 38.3557 292.062 38.3557Z" fill="#263238"/>
<path d="M296.657 39.4351C296.349 39.4351 296.349 41.1264 294.964 42.3565C293.425 43.5866 291.578 43.4328 291.578 43.5866C291.578 43.7404 292.04 43.8941 292.81 43.8941C293.579 43.8941 294.656 43.7404 295.58 42.9716C296.503 42.2028 296.811 41.2802 296.965 40.5114C296.965 39.7426 296.811 39.4351 296.657 39.4351Z" fill="#263238"/>
<path d="M297.762 21.9013C297.916 22.3625 299.455 22.055 301.302 22.3625C303.149 22.5163 304.688 23.1313 304.995 22.6701C305.149 22.5163 304.842 22.055 304.226 21.5937C303.61 21.1324 302.687 20.8249 301.61 20.6712C300.532 20.5174 299.455 20.6712 298.84 20.9787C298.07 21.2862 297.762 21.5937 297.762 21.9013Z" fill="#263238"/>
<path d="M282.53 21.7612C282.838 22.0687 283.915 21.7612 285.3 21.7612C286.685 21.7612 287.763 22.0687 288.07 21.6074C288.224 21.4537 288.07 20.9924 287.455 20.6849C286.993 20.3773 286.224 20.0698 285.3 20.0698C284.377 20.0698 283.607 20.3773 283.146 20.8386C282.53 21.2999 282.376 21.6074 282.53 21.7612Z" fill="#263238"/>
<path d="M314.7 31.8951C314.854 31.8951 321.78 29.7425 321.626 36.8154C321.472 43.8884 314.393 42.1971 314.393 42.0433C314.239 41.8895 314.7 31.8951 314.7 31.8951Z" fill="#FFBE9D"/>
<path d="M316.528 39.4332C316.528 39.4332 316.682 39.587 316.836 39.587C316.989 39.7408 317.451 39.7408 317.759 39.587C318.528 39.2795 319.144 38.2031 319.298 36.8193C319.298 36.2043 319.298 35.5892 318.99 34.9742C318.836 34.5129 318.528 34.0516 318.067 34.0516C317.759 33.8978 317.451 34.2054 317.297 34.3591C317.143 34.5129 317.297 34.6667 317.143 34.6667C317.143 34.6667 316.989 34.5129 316.989 34.2054C316.989 34.0516 317.143 33.8979 317.297 33.7441C317.451 33.5903 317.759 33.5903 317.913 33.5903C318.528 33.5903 318.99 34.2054 319.144 34.6667C319.452 35.2817 319.606 35.8967 319.452 36.6655C319.298 38.0494 318.528 39.4332 317.605 39.7408C317.143 39.8945 316.682 39.7408 316.528 39.587V39.4332Z" fill="#EB996E"/>
<path d="M318.532 31.746C317.455 31.4385 315.608 32.5148 315.146 33.4374C314.685 34.5137 314.531 35.59 314.069 36.6663C313.607 37.7426 312.53 38.6652 311.453 38.3577C310.683 38.2039 310.221 37.4351 309.914 36.6663C309.76 35.8975 309.76 35.1287 309.914 34.3599C310.375 30.9772 310.991 27.7482 311.145 24.5192C311.299 21.1365 310.837 17.7538 308.99 14.8323C307.297 12.0646 304.066 9.912 300.68 10.2195C298.525 10.3733 296.525 11.6034 294.216 11.9109C291.6 12.2184 288.83 11.2958 286.983 9.45071C286.675 9.14319 285.598 8.52815 285.598 8.52815C285.598 8.37439 285.752 6.83679 286.367 6.3755C290.676 2.37773 298.525 1.30142 304.219 2.68526C309.914 4.06911 315.3 8.22064 317.763 13.6023C320.687 18.8301 319.917 26.2106 318.532 31.746Z" fill="#263238"/>
<path d="M288.358 9.45592C292.205 9.60968 299.746 11.1473 302.824 13.4537C303.132 13.7612 303.593 14.2225 303.286 14.6838C303.132 14.9913 302.67 14.9913 302.362 14.9913C300.054 14.9913 293.898 15.9139 291.743 16.5289C289.435 17.144 287.126 17.759 284.818 17.6052C282.509 17.2977 280.047 16.0676 279.124 13.915L278.2 14.2225C280.355 10.9935 284.51 9.30216 288.358 9.45592Z" fill="#263238"/>
<path d="M280.21 14.2253C280.21 14.2253 283.288 11.1501 287.905 10.6888C296.831 9.92001 311.605 12.6877 319.3 28.0638C319.3 28.0638 320.839 22.9897 320.839 19.9144C320.839 17.7618 319.608 5.3072 306.681 1.30943C306.835 1.30943 287.289 -6.07107 280.21 14.2253Z" fill="#209874"/>
<g opacity="0.2">
<path d="M280.048 14.2243C280.048 14.2243 283.126 10.5341 288.666 10.2266C296.669 9.91903 311.905 13.6093 319.138 28.0628C319.138 28.0628 320.677 22.9887 320.677 19.9135C320.677 17.7608 319.446 5.30623 306.519 1.30845C306.519 1.30845 286.973 -6.07204 280.048 14.2243Z" fill="black"/>
</g>
<path d="M318.071 25.907C314.224 19.4491 308.375 14.99 302.22 10.9923C295.91 7.14826 285.598 3.30425 278.519 1.30537C276.365 0.690324 274.21 0.22904 271.902 0.690321C269.747 0.997842 267.592 2.53544 266.977 4.68809C266.361 7.30202 271.132 11.4536 273.287 13.1449C275.595 14.8363 280.058 17.1427 280.058 17.1427C280.058 17.1427 280.058 12.2224 287.907 11.146C298.988 9.76219 318.533 26.2146 318.071 25.907Z" fill="#209874"/>
<path d="M303.598 6.53196C303.444 6.68572 300.52 4.68683 296.365 3.61051C292.21 2.53419 288.67 2.99547 288.67 2.84171C288.67 2.84171 289.593 2.53418 290.978 2.53418C292.364 2.53418 294.364 2.53418 296.519 3.14922C298.673 3.61051 300.52 4.53307 301.751 5.14811C302.983 5.91692 303.752 6.53196 303.598 6.53196Z" fill="white"/>
<path d="M314.216 60.5059C314.216 60.5059 338.224 69.424 339.763 70.3465C341.302 71.1153 332.53 127.392 332.53 127.392L334.838 173.52C334.838 173.52 294.209 177.671 283.59 175.365C273.125 173.059 267.585 169.983 267.585 169.983L271.74 104.635L275.741 71.7304L288.361 63.5811C296.518 69.1164 303.443 67.2713 314.216 60.5059Z" fill="#E0E0E0"/>
<path d="M265.894 102.79L263.431 126.315H270.972L271.28 104.481L265.894 102.79Z" fill="#FFBE9D"/>
<path d="M276.509 71.269C276.509 71.269 269.583 74.498 267.429 82.0323C265.274 89.5665 264.351 104.635 264.351 104.635H272.046L276.509 71.269Z" fill="#E0E0E0"/>
<path d="M272.663 84.1816C272.663 84.1816 272.509 84.6429 272.509 85.4117C272.355 86.1805 272.355 87.4106 272.201 88.9482C272.047 91.8696 271.74 95.8674 271.586 100.48C271.432 104.939 271.278 109.091 271.278 112.012C271.278 113.55 271.278 114.626 271.278 115.549C271.278 116.318 271.278 116.779 271.432 116.779C271.432 116.779 271.432 116.318 271.586 115.549C271.586 114.626 271.586 113.396 271.74 112.012C271.893 108.937 272.047 104.939 272.201 100.48C272.355 96.0212 272.509 92.0234 272.663 88.9482C272.663 87.5644 272.817 86.3343 272.817 85.4117C272.817 84.6429 272.817 84.1816 272.663 84.1816Z" fill="#455A64"/>
<path d="M267.885 163.369C267.885 163.369 267.116 178.898 267.578 192.276C267.732 197.35 279.12 340.039 279.12 340.039L302.513 340.962L301.589 207.344L303.436 207.805C303.436 207.805 313.747 265.158 314.363 274.384C314.978 282.687 323.135 343.268 323.135 343.268L344.527 344.345L341.141 264.543L337.14 187.509L335.293 164.291L322.365 164.137L267.885 163.369Z" fill="#209874"/>
<path d="M336.218 186.74C336.218 186.74 335.91 186.74 335.448 186.893C334.987 186.893 334.217 186.893 333.294 186.893C331.447 186.74 328.831 186.125 326.368 184.894C323.752 183.664 321.751 182.127 320.52 180.743C319.905 180.128 319.443 179.513 319.135 179.052C318.827 178.59 318.673 178.437 318.673 178.437C318.673 178.437 319.443 179.205 320.828 180.435C322.213 181.665 324.214 183.203 326.676 184.433C329.138 185.663 331.601 186.278 333.448 186.432C334.987 186.74 336.218 186.586 336.218 186.74Z" fill="#263238"/>
<path d="M279.733 175.21C279.733 175.21 279.271 176.132 278.348 177.516C277.424 178.9 276.039 180.745 274.039 182.436C272.192 184.128 270.191 185.358 268.806 186.127C267.267 186.895 266.344 187.203 266.344 187.203C266.344 187.203 267.267 186.742 268.652 185.819C270.037 185.05 271.884 183.666 273.731 182.129C275.578 180.437 277.117 178.746 278.04 177.516C279.117 175.978 279.579 175.056 279.733 175.21Z" fill="#263238"/>
<path d="M332.37 272.844C332.216 272.844 330.216 270.537 327.753 267.616C325.291 264.541 323.444 262.081 323.598 262.081C323.752 262.081 325.752 264.387 328.215 267.308C330.523 270.23 332.524 272.69 332.37 272.844Z" fill="#263238"/>
<path d="M285.744 263.775C285.898 263.775 284.821 265.466 283.436 267.311C282.051 269.156 280.973 270.694 280.819 270.694C280.665 270.694 281.743 269.003 283.128 267.157C284.513 265.159 285.59 263.621 285.744 263.775Z" fill="#263238"/>
<path d="M315.91 93.563L325.144 164.6L267.893 163.37L275.28 93.563H315.91Z" fill="#209874"/>
<path d="M332.682 67.4241C332.682 67.4241 322.678 68.5004 319.6 76.3422C317.292 82.1851 314.522 91.7183 314.06 95.8698C313.906 97.2537 312.829 98.1762 311.444 98.1762C309.905 98.1762 308.673 96.7924 308.827 95.2548C309.289 89.1044 312.059 76.496 316.522 71.1144C321.139 65.579 327.141 65.2715 327.141 65.2715L332.682 67.4241Z" fill="#209874"/>
<path d="M281.585 67.8857L280.508 96.3314H276.506L277.276 70.1921L281.585 67.8857Z" fill="#209874"/>
<path d="M325.602 86.9487C325.602 86.9487 332.835 118.931 330.527 109.552C329.142 103.709 332.528 125.081 332.528 125.081L300.363 123.544L296.208 135.691C296.208 135.691 334.221 146.3 339.915 146.454C348.071 146.608 356.228 139.074 354.843 129.694C353.458 120.315 346.686 87.1025 346.686 87.1025H325.602V86.9487Z" fill="#FFBE9D"/>
<path d="M270.663 124.468C270.663 124.468 266.199 121.701 265.584 121.547C265.122 121.393 264.199 121.239 263.429 121.085C262.66 120.932 261.736 121.085 260.967 121.547C260.659 121.854 260.351 122.162 260.351 122.623C260.351 123.546 261.736 124.161 261.736 124.161L264.045 125.083L258.197 128.158C258.197 128.158 250.194 133.233 250.04 134.77C249.886 136.308 250.194 137.538 250.656 137.999C251.271 138.614 253.426 138.922 253.426 138.922C253.426 138.922 254.349 141.074 255.273 141.228C256.196 141.382 259.736 140.613 259.736 140.613L265.122 138.614L271.278 131.08L271.586 125.545L270.663 124.468Z" fill="#E0E0E0"/>
<path d="M252.963 134.461C252.963 134.461 253.578 127.849 253.886 127.234C254.194 126.619 273.585 125.697 273.585 125.697L287.128 127.696C287.128 127.696 288.052 132.462 287.128 135.076C286.205 137.69 278.048 139.997 278.048 139.997L252.963 134.461Z" fill="#209874"/>
<path d="M276.199 138.613C276.199 138.613 276.353 137.537 276.506 135.999C276.506 135.231 276.506 134.154 276.66 133.078C276.814 132.002 277.738 131.386 278.815 130.925C279.892 130.464 281.123 130.156 282.047 129.695C282.97 129.388 283.894 128.926 284.663 128.619C286.202 128.004 287.125 127.542 287.125 127.542C287.125 127.542 286.048 127.696 284.509 128.311C283.74 128.619 282.816 128.926 281.739 129.234C280.662 129.541 279.584 129.849 278.353 130.31C277.738 130.618 277.122 130.925 276.66 131.386C276.199 131.848 275.891 132.463 275.891 133.078C275.737 134.154 275.891 135.077 275.891 135.999C276.045 137.691 276.045 138.613 276.199 138.613Z" fill="#263238"/>
<path d="M254.195 127.694C254.195 127.694 255.426 128.001 257.427 128.309C259.582 128.616 262.352 129.231 265.276 129.693C268.354 130.308 270.97 130.769 273.125 131.23C275.125 131.538 276.356 131.845 276.356 131.692C276.356 131.692 275.125 131.23 273.125 130.769C271.124 130.308 268.354 129.693 265.276 129.078C262.198 128.463 259.428 128.155 257.273 127.848C255.426 127.848 254.195 127.694 254.195 127.694Z" fill="#263238"/>
<path d="M278.206 124.468V125.698L272.665 125.545V124.314L278.206 124.468Z" fill="#209874"/>
<path d="M276.051 125.699V128.62L274.666 128.313V125.545L276.051 125.699Z" fill="#E0E0E0"/>
<path d="M273.588 128.158C273.588 128.312 274.357 128.62 275.434 128.773C276.512 128.927 277.281 128.927 277.281 128.773C277.281 128.62 276.512 128.312 275.434 128.158C274.511 128.005 273.588 128.005 273.588 128.158Z" fill="#263238"/>
<path d="M269.89 123.854V125.084L265.119 124.93V123.854H269.89Z" fill="#209874"/>
<path d="M267.889 125.084V127.544L266.812 127.237V124.93L267.889 125.084Z" fill="#E0E0E0"/>
<path d="M265.885 127.237C265.885 127.391 266.501 127.545 267.424 127.699C268.348 127.852 269.117 127.852 269.117 127.699C269.117 127.545 268.502 127.391 267.578 127.237C266.655 127.084 265.885 127.084 265.885 127.237Z" fill="#263238"/>
<path d="M276.975 122.007L281.13 120.008L291.288 120.93L300.521 123.391L298.521 134.769L291.903 141.381L280.976 141.996L278.36 140.15C278.36 140.15 273.281 140.15 273.281 139.535C273.281 138.92 272.512 137.844 272.974 137.536C273.435 137.229 277.283 137.229 277.283 137.229L282.208 133.077C282.208 133.077 286.671 128.772 286.363 127.081C286.055 125.389 286.055 125.236 284.978 124.621C283.9 124.006 281.438 123.391 281.438 123.391C281.438 123.391 278.052 124.621 276.821 124.159C275.59 123.544 276.052 121.853 276.052 121.853L276.975 122.007Z" fill="#E0E0E0"/>
<path d="M286.668 135.229C286.668 135.229 286.206 135.537 285.591 136.152C284.975 136.767 284.052 137.535 282.974 138.304C281.897 139.073 280.82 139.534 280.05 139.842C279.281 140.149 278.665 140.149 278.665 140.149C278.665 140.149 279.281 140.303 280.05 140.149C280.974 139.996 282.205 139.534 283.282 138.765C284.359 137.997 285.283 137.074 285.898 136.459C286.36 135.69 286.668 135.229 286.668 135.229Z" fill="#455A64"/>
<path d="M291.284 137.076C291.13 136.922 289.283 138.306 286.821 139.536C284.358 140.766 282.204 141.689 282.358 141.842C282.358 141.996 284.666 141.381 287.128 140.151C289.591 138.767 291.284 137.229 291.284 137.076Z" fill="#455A64"/>
<path d="M270.507 124.774C270.661 124.774 269.276 123.082 266.813 122.006C264.351 120.93 262.196 121.083 262.196 121.237C262.196 121.391 264.197 121.545 266.506 122.467C268.814 123.39 270.353 124.774 270.507 124.774Z" fill="#455A64"/>
<path d="M257.737 136C257.737 136 257.429 136.307 256.814 136.768C256.198 137.23 255.275 137.845 254.043 137.845L254.197 138.306C255.275 137.998 256.506 137.691 257.737 137.537C259.892 137.076 261.892 136.922 263.277 137.076C263.893 137.23 264.355 137.537 264.662 137.845C264.97 138.152 264.97 138.306 264.97 138.306C264.97 138.306 264.97 137.998 264.816 137.691C264.509 137.383 264.047 136.922 263.277 136.768C261.738 136.461 259.738 136.615 257.583 137.076C256.352 137.383 255.121 137.691 254.043 137.998L254.197 138.46C255.582 138.306 256.506 137.691 257.121 137.076C257.583 136.461 257.891 136 257.737 136Z" fill="#455A64"/>
<path d="M339.915 70.1899C339.915 70.1899 345.455 74.649 348.379 84.1822C351.303 93.7153 354.073 104.94 354.073 104.94L327.295 110.168C327.295 110.168 326.525 105.401 325.294 96.7905C321.908 75.7253 335.144 70.4975 339.915 70.1899Z" fill="#E0E0E0"/>
<path d="M341.45 131.079C341.604 130.925 339.45 129.695 337.141 127.85C334.679 126.159 332.832 124.621 332.678 124.775C332.524 124.929 334.371 126.466 336.833 128.311C339.296 130.156 341.45 131.233 341.45 131.079Z" fill="#EB996E"/>
<path d="M354.076 104.785C354.076 104.785 353.461 104.786 352.383 104.939C351.152 105.093 349.613 105.401 347.766 105.708C343.919 106.477 338.379 107.399 332.53 108.63C330.684 108.937 328.991 109.398 327.298 109.706L327.606 109.86C326.99 105.247 326.374 101.095 326.067 98.02C325.913 96.6362 325.759 95.4061 325.605 94.6373C325.451 93.8685 325.451 93.4072 325.297 93.4072C325.297 93.4072 325.297 93.8685 325.297 94.6373C325.451 95.5599 325.451 96.6362 325.605 98.02C325.913 101.095 326.374 105.093 326.99 109.86V110.167H327.298C328.991 109.86 330.684 109.552 332.53 109.091C338.532 107.861 343.919 106.784 347.766 106.016C349.613 105.554 351.152 105.247 352.383 105.093C353.461 104.939 354.076 104.785 354.076 104.785Z" fill="#455A64"/>
<path d="M322.526 84.1811C322.68 84.1811 322.68 82.951 323.296 80.9521C323.911 79.107 325.142 76.4931 327.297 74.3404C329.451 72.1878 332.222 71.1115 334.068 70.6502C336.069 70.1889 337.3 70.1889 337.3 70.0352C337.3 70.0352 336.993 70.0352 336.377 70.0352C335.761 70.0352 334.992 70.0352 333.915 70.3427C331.914 70.804 329.144 71.8803 326.835 74.0329C324.527 76.1856 323.296 78.9533 322.834 80.7984C322.526 81.721 322.526 82.6435 322.372 83.2586C322.372 83.8736 322.372 84.1811 322.526 84.1811Z" fill="#455A64"/>
<path d="M308.829 122.93L305.289 138.614L297.44 136L300.518 123.391L308.829 122.93Z" fill="#E0E0E0"/>
<path d="M338.682 219.34L340.99 226.259H322.061V220.724L338.682 219.34Z" fill="#209874"/>
<path d="M338.684 219.338C338.684 219.338 338.376 219.338 337.606 219.184C336.683 219.184 335.606 219.184 334.221 219.031C331.297 219.031 327.141 218.877 322.371 218.877H322.063V219.184C321.909 221.337 321.755 223.644 321.755 226.104V226.565H322.217C322.678 226.565 323.14 226.565 323.756 226.565C330.527 226.565 336.837 226.565 341.3 226.411H341.762L341.608 226.104C340.838 223.951 340.223 222.106 339.761 221.03C338.992 219.953 338.838 219.338 338.684 219.338C338.684 219.338 338.838 220.107 339.145 221.337C339.453 222.567 340.069 224.259 340.684 226.411L340.992 226.104C336.529 226.104 330.373 225.95 323.448 225.95C322.986 225.95 322.37 225.95 321.909 225.95L322.371 226.411C322.524 223.951 322.524 221.645 322.678 219.492L322.371 219.8C327.141 219.8 331.143 219.646 334.067 219.646C335.452 219.646 336.529 219.646 337.453 219.492C338.222 219.338 338.684 219.338 338.684 219.338Z" fill="#263238"/>
</svg>
