<svg width="130" height="130" viewBox="0 0 130 130" fill="none" xmlns="http://www.w3.org/2000/svg">
<g id="reservation-smartphone_svgrepo.com" clip-path="url(#clip0_1624_760)">
<path id="Vector" d="M70.8753 77.2504C71.5207 76.4738 72.1121 75.6539 72.6452 74.7964C73.2525 73.936 73.6767 72.9601 73.8914 71.9291C73.9987 71.0587 73.8778 70.1753 73.5407 69.3656C73.2035 68.5559 72.6617 67.8478 71.9683 67.3107C71.168 66.6819 70.205 66.2943 69.1922 66.1934C68.1794 66.0924 67.1588 66.2823 66.2501 66.7408C64.8775 67.4224 63.7791 68.5468 62.798 69.7236C61.9032 70.7454 61.1572 71.8885 60.582 73.1189C60.0065 74.3563 59.802 75.7341 59.9933 77.0853C60.0624 77.6718 60.249 78.2383 60.5418 78.7511C60.8346 79.264 61.2277 79.7126 61.6977 80.0702C62.1676 80.4278 62.7047 80.6871 63.2771 80.8327C63.8494 80.9782 64.4451 81.007 65.0288 80.9174C66.015 80.7841 66.9624 80.446 67.8101 79.9248C68.9751 79.2122 70.0114 78.3081 70.8753 77.2504Z" fill="white"/>
<path id="Vector_2" d="M71.4884 77.8633C72.6499 76.5458 73.6099 75.0636 74.3372 73.4649C74.6389 72.7533 74.7918 71.9874 74.7864 71.2145C74.7811 70.4416 74.6177 69.6779 74.3062 68.9705C73.6532 67.5311 72.4772 66.3939 71.0167 65.7895C69.5561 65.1852 67.9205 65.1589 66.4413 65.716C64.9791 66.3504 63.6868 67.3203 62.6692 68.5471C61.5527 69.7326 60.6184 71.0772 59.8966 72.537C59.1097 74.1177 58.8733 75.9159 59.2248 77.6463C59.3893 78.3751 59.7011 79.0626 60.141 79.6665C60.5809 80.2704 61.1396 80.7781 61.7828 81.1583C65.2905 83.103 69.2283 80.5175 71.4884 77.8633C71.6456 77.698 71.7333 77.4785 71.7333 77.2504C71.7333 77.0222 71.6456 76.8028 71.4884 76.6374C71.3249 76.4766 71.1048 76.3865 70.8754 76.3865C70.6461 76.3865 70.426 76.4766 70.2625 76.6374C68.7057 78.4658 66.235 80.5746 63.6289 80.0089C63.0742 79.8903 62.5568 79.638 62.1217 79.2741C61.6865 78.9101 61.3468 78.4455 61.1319 77.9204C60.6654 76.693 60.6632 75.3375 61.1258 74.1086C61.5911 72.84 62.2809 71.6654 63.1623 70.641C63.9378 69.6026 64.8677 68.689 65.9197 67.932C66.9229 67.2129 68.1663 66.9119 69.3873 67.0926C70.5639 67.2883 71.615 67.9423 72.3105 68.9112C72.6843 69.442 72.9257 70.0545 73.0145 70.6975C73.1034 71.3406 73.0371 71.9956 72.8213 72.6078C72.5439 73.3006 72.188 73.9593 71.7604 74.571C71.3044 75.2902 70.8043 75.9804 70.2625 76.6374C70.1055 76.8029 70.0177 77.0223 70.0177 77.2504C70.0177 77.4785 70.1052 77.6979 70.2621 77.8633C70.4256 78.0243 70.6458 78.1145 70.8753 78.1145C71.1047 78.1145 71.3249 78.0243 71.4884 77.8633Z" fill="#1B9E76"/>
<path id="Vector_3" d="M70.8753 50.8954C71.5207 50.1189 72.1121 49.2989 72.6452 48.4414C73.2526 47.581 73.6767 46.6051 73.8914 45.5741C73.9989 44.7037 73.8781 43.8202 73.541 43.0105C73.2038 42.2008 72.6619 41.4927 71.9683 40.9558C71.168 40.327 70.205 39.9394 69.1922 39.8384C68.1794 39.7375 67.1588 39.9273 66.2501 40.3858C64.8775 41.0674 63.7791 42.1918 62.7981 43.3686C61.9034 44.3899 61.1573 45.5323 60.5821 46.7621C60.0065 47.9996 59.802 49.3773 59.9933 50.7285C60.0625 51.315 60.2492 51.8815 60.542 52.3942C60.8349 52.907 61.228 53.3555 61.6979 53.7131C62.1678 54.0707 62.7049 54.3301 63.2772 54.4757C63.8494 54.6212 64.4452 54.6501 65.0289 54.5606C66.015 54.4273 66.9624 54.0892 67.8101 53.568C68.9749 52.8559 70.0112 51.9523 70.8753 50.8954Z" fill="white"/>
<path id="Vector_4" d="M70.8753 65.3448C71.5207 64.5683 72.1121 63.7485 72.6452 62.8911C73.2526 62.0306 73.6767 61.0546 73.8914 60.0235C73.9987 59.153 73.8778 58.2696 73.5407 57.46C73.2035 56.6503 72.6617 55.9422 71.9683 55.4051C71.1679 54.7765 70.2049 54.389 69.1921 54.2881C68.1793 54.1872 67.1588 54.3771 66.2501 54.8355C64.8775 55.5171 63.7791 56.6415 62.798 57.8183C61.9031 58.8401 61.1571 59.9832 60.5821 61.2137C60.0065 62.4509 59.802 63.8286 59.9933 65.1797C60.0624 65.7662 60.249 66.3327 60.5418 66.8455C60.8346 67.3583 61.2278 67.8069 61.6977 68.1646C62.1676 68.5222 62.7048 68.7815 63.2771 68.927C63.8494 69.0726 64.4452 69.1014 65.0289 69.0117C66.015 68.8785 66.9624 68.5404 67.8101 68.0191C68.9752 67.3067 70.0115 66.4025 70.8753 65.3448Z" fill="white"/>
<path id="Vector_5" d="M63.1968 23.6451C62.551 24.4214 61.9597 25.2414 61.4269 26.0991C60.8195 26.9595 60.3954 27.9354 60.1807 28.9664C60.0732 29.8368 60.194 30.7203 60.5311 31.53C60.8683 32.3397 61.4102 33.0478 62.1038 33.5847C62.9043 34.2138 63.8676 34.6015 64.8807 34.7024C65.8937 34.8033 66.9146 34.6132 67.8234 34.1544C69.196 33.4728 71.9744 30.8952 72.9555 29.7188C73.9375 28.4682 74.8103 27.1355 75.5641 25.7354C76.1833 24.4458 76.3773 22.9931 76.1182 21.5862C76.0211 20.9414 75.7792 20.3269 75.4106 19.7889C75.0421 19.2509 74.5565 18.8034 73.9903 18.4799C73.1149 17.9974 72.1082 17.8076 71.1173 17.938C70.1311 18.0712 69.1837 18.4093 68.336 18.9306C67.1592 19.6249 64.0803 22.5976 63.1968 23.6451Z" fill="white"/>
<path id="Vector_6" d="M6.94164 101.253C4.29725 95.8006 5.7381 89.1165 5.4607 82.8962C5.05903 73.9061 4.41681 65.7187 2.77044 52.1536C2.44138 49.4417 2.22285 46.7272 3.49285 44.3093C4.76285 41.8914 7.59759 40.9678 10.2351 41.6786C12.6191 42.3209 14.048 43.8051 14.9546 46.1012L58.8982 92.6675C53.0112 98.46 46.4571 103.533 39.3736 107.779L6.94164 101.253Z" fill="white"/>
<path id="Vector_7" d="M39.8114 108.528C45.3835 105.189 50.6303 101.336 55.483 97.0179C56.8539 95.8023 58.1966 94.5566 59.5112 93.2808C60.3149 92.5035 59.0882 91.2783 58.2853 92.0545C53.7612 96.477 48.857 100.493 43.6294 104.056C42.0933 105.092 40.5289 106.083 38.9362 107.031C37.979 107.602 38.8499 109.102 39.8114 108.528Z" fill="#1B9E76"/>
<path id="Vector_8" d="M15.7918 45.8709C14.9354 43.7398 13.5585 42.0305 11.3894 41.1524C9.28904 40.3022 6.74796 40.3625 4.81731 41.622C2.56737 43.0917 1.73479 45.7878 1.65713 48.3592C1.64976 49.7484 1.74696 51.1363 1.9479 52.5109C2.12272 53.9593 2.29333 55.4082 2.45973 56.8576C3.01309 61.6942 3.50939 66.538 3.89263 71.3911C4.22096 75.5504 4.55183 79.7378 4.62443 83.9109C4.71582 89.1761 3.73261 94.7015 5.4292 99.8126C5.64425 100.454 5.89941 101.081 6.19315 101.691C6.3105 101.888 6.50058 102.031 6.72241 102.089C6.94423 102.147 7.18004 102.116 7.37898 102.002C7.57382 101.882 7.71498 101.692 7.77294 101.471C7.83091 101.25 7.80118 101.016 7.68998 100.816C5.51191 96.2579 6.24696 90.9128 6.34991 86.0373C6.4366 81.9195 6.09165 77.7693 5.79726 73.6627C5.48735 69.3359 5.08208 65.0169 4.62046 60.7034C4.33366 58.0305 4.02784 55.3589 3.703 52.6886C3.40139 50.1873 2.98492 47.41 4.09743 45.0383C4.57051 44.0568 5.35974 43.2628 6.33835 42.7838C7.31696 42.3048 8.42816 42.1686 9.49348 42.3972C10.5337 42.57 11.5098 43.0148 12.3228 43.6863C13.1224 44.4138 13.7383 45.3204 14.1202 46.3318C14.1872 46.5496 14.3349 46.7337 14.5331 46.8463C14.7313 46.9589 14.965 46.9915 15.1864 46.9375C15.4073 46.875 15.5947 46.728 15.708 46.5284C15.8213 46.3288 15.8514 46.0925 15.7918 45.8709Z" fill="#1B9E76"/>
<path id="Vector_9" d="M71.4882 51.5081C72.6496 50.1905 73.6096 48.7083 74.337 47.1097C74.6387 46.398 74.7916 45.6322 74.7862 44.8592C74.7809 44.0863 74.6175 43.3226 74.306 42.6152C73.653 41.1758 72.477 40.0386 71.0165 39.4342C69.556 38.8298 67.9203 38.8034 66.4411 39.3604C64.9788 39.9949 63.6866 40.9649 62.669 42.1919C61.5526 43.3774 60.6182 44.722 59.8964 46.1818C59.1095 47.7625 58.873 49.5609 59.2246 51.2914C59.3892 52.0201 59.701 52.7075 60.1409 53.3114C60.5808 53.9153 61.1395 54.4229 61.7826 54.803C65.2903 56.7481 69.2282 54.1622 71.4882 51.5081C71.646 51.3426 71.734 51.1231 71.734 50.8944C71.734 50.6657 71.646 50.4459 71.4882 50.2804C71.3247 50.1196 71.1046 50.0296 70.8753 50.0296C70.646 50.0296 70.4258 50.1196 70.2623 50.2804C68.7055 52.1091 66.2348 54.2175 63.6288 53.6522C63.074 53.5335 62.5567 53.2812 62.1215 52.9173C61.6864 52.5533 61.3467 52.0887 61.1317 51.5637C60.6652 50.3363 60.6631 48.9808 61.1256 47.7519C61.5908 46.4832 62.2807 45.3086 63.1621 44.2843C63.9375 43.2458 64.8675 42.3322 65.9195 41.5753C66.9227 40.8563 68.1661 40.5552 69.3871 40.7355C70.5636 40.9316 71.6147 41.5856 72.3103 42.5545C72.6841 43.0853 72.9255 43.6978 73.0143 44.3408C73.1032 44.9839 73.0369 45.6389 72.8211 46.2511C72.5437 46.9439 72.1878 47.6026 71.7602 48.2143C71.3043 48.9335 70.8042 49.6235 70.2623 50.2804C70.1048 50.446 70.0166 50.6658 70.0166 50.8944C70.0166 51.123 70.1044 51.3428 70.2619 51.5084C70.4255 51.6692 70.6458 51.7593 70.8751 51.7592C71.1045 51.7592 71.3247 51.669 71.4882 51.5081Z" fill="#1B9E76"/>
<path id="Vector_10" d="M71.4884 65.9562C72.65 64.6387 73.61 63.1565 74.3373 61.5578C74.6389 60.8462 74.7918 60.0804 74.7865 59.3075C74.7811 58.5346 74.6177 57.771 74.3062 57.0636C73.6533 55.6241 72.4773 54.4868 71.0168 53.8824C69.5563 53.2779 67.9205 53.2516 66.4413 53.8088C64.9792 54.4434 63.687 55.4133 62.6692 56.64C61.5528 57.8255 60.6185 59.1701 59.8966 60.6298C59.1097 62.2106 58.8733 64.0089 59.2248 65.7394C59.3894 66.4682 59.7012 67.1556 60.1411 67.7595C60.581 68.3634 61.1397 68.8709 61.7828 69.2511C65.2905 71.1958 69.2284 68.6107 71.4884 65.9562C71.6456 65.7908 71.7333 65.5714 71.7333 65.3432C71.7333 65.115 71.6456 64.8956 71.4884 64.7302C71.3249 64.5695 71.1048 64.4794 70.8755 64.4794C70.6462 64.4794 70.426 64.5695 70.2625 64.7302C68.7057 66.5587 66.2351 68.6656 63.629 68.1021C63.0742 67.9833 62.5568 67.731 62.1217 67.367C61.6865 67.003 61.3468 66.5383 61.1319 66.0132C60.6654 64.786 60.6633 63.4306 61.1258 62.2018C61.5915 60.9322 62.2819 59.7569 63.1641 58.7321C63.9397 57.6943 64.8696 56.7814 65.9215 56.0252C66.9247 55.3062 68.1681 55.005 69.3891 55.1854C70.5656 55.3813 71.6167 56.0352 72.3123 57.004C72.6861 57.5348 72.9274 58.1473 73.0163 58.7904C73.1051 59.4334 73.0389 60.0884 72.8231 60.7006C72.5458 61.3935 72.1899 62.0522 71.7622 62.6638C71.3062 63.383 70.8058 64.0732 70.2639 64.7302C70.107 64.8957 70.0195 65.1151 70.0195 65.3432C70.0195 65.5713 70.107 65.7907 70.2639 65.9562C70.4273 66.1166 70.6472 66.2065 70.8762 66.2065C71.1052 66.2065 71.325 66.1166 71.4884 65.9562Z" fill="#1B9E76"/>
<path id="Vector_11" d="M62.5839 23.0317C61.8581 23.9052 61.1942 24.8284 60.5973 25.7945C59.9918 26.6834 59.5671 27.6827 59.3475 28.7355C59.2054 29.6881 59.2988 30.6609 59.6194 31.5691C59.9401 32.4773 60.4784 33.293 61.1871 33.9451C61.9517 34.6362 62.873 35.1307 63.8715 35.386C64.87 35.6412 65.9156 35.6495 66.918 35.4102C68.5135 35.0129 69.7994 33.9195 71.0087 32.8597C72.1858 31.8669 73.2534 30.7512 74.1934 29.5316C74.768 28.7461 75.3013 27.9312 75.791 27.0902C76.3191 26.2809 76.703 25.3864 76.9259 24.4462C77.2908 22.5758 77.0892 20.4967 75.8723 18.9674C74.5666 17.3261 72.4282 16.776 70.4232 17.1737C68.5901 17.537 67.1683 18.6257 65.8127 19.8375C64.6656 20.8281 63.5868 21.8953 62.5839 23.0317C62.4266 23.197 62.3389 23.4165 62.3389 23.6447C62.3389 23.8728 62.4266 24.0923 62.5839 24.2576C62.7474 24.4184 62.9676 24.5086 63.1969 24.5086C63.4262 24.5086 63.6464 24.4184 63.8099 24.2576C64.5689 23.3964 65.3758 22.5785 66.2267 21.8079C66.7064 21.3582 67.1933 20.9157 67.6953 20.491C68.021 20.193 68.3734 19.9258 68.7483 19.6927C70.1548 18.8345 72.0352 18.3562 73.5523 19.2271C74.8772 19.9856 75.3583 21.385 75.3536 22.8464C75.3723 23.6262 75.2203 24.4006 74.9083 25.1155C74.5256 25.8741 74.0948 26.6074 73.6184 27.3109C72.8883 28.4568 72.0277 29.5142 71.0538 30.4617C70.0992 31.4342 69.0538 32.3133 67.9319 33.0869C67.3179 33.4986 66.6123 33.7536 65.8769 33.8296C65.1415 33.9056 64.3987 33.8003 63.7134 33.5229C62.93 33.2104 62.2556 32.6747 61.774 31.9823C61.2924 31.2899 61.0248 30.4712 61.0044 29.628C61.0018 28.6474 61.4378 27.7631 61.9316 26.9396C62.4879 25.9978 63.1173 25.101 63.8138 24.2576C63.9707 24.0921 64.0581 23.8727 64.0581 23.6447C64.0581 23.4166 63.9707 23.1972 63.8138 23.0317C63.6502 22.8696 63.4292 22.7786 63.1989 22.7786C62.9686 22.7786 62.7475 22.8696 62.5839 23.0317Z" fill="#1B9E76"/>
<path id="Vector_12" d="M60.6815 0.869141H20.8907C16.8034 0.869141 13.49 4.18256 13.49 8.26988V90.0016C13.49 94.089 16.8034 97.4024 20.8907 97.4024H60.6815C64.7688 97.4024 68.0822 94.089 68.0822 90.0016V8.26988C68.0822 4.18256 64.7688 0.869141 60.6815 0.869141Z" fill="#1B9E76"/>
<path id="Vector_13" d="M37.2095 6.99277C39.5935 6.99277 41.9775 6.99157 44.3614 6.98916C45.4768 6.98916 45.4786 5.25537 44.3614 5.25537C41.9775 5.25537 39.5935 5.25658 37.2095 5.25898C36.0941 5.25898 36.0923 6.99277 37.2095 6.99277Z" fill="#1B9E76"/>
<path id="Vector_14" d="M66.5413 10.7212L13.6486 10.7248H13.4915C13.4915 22.6189 13.4915 74.202 13.4915 87.0797C13.5948 87.0797 13.65 87.0797 13.65 87.0797L68.0302 87.0757H68.083C68.083 74.1922 68.083 22.6085 68.083 10.7226H66.5413V10.7212Z" fill="white"/>
<path id="Vector_15" d="M60.6817 96.535H24.5872C23.3807 96.535 22.1739 96.5387 20.9675 96.535C19.2268 96.5369 17.5557 95.8517 16.3175 94.6281C15.0793 93.4046 14.3741 91.7418 14.3553 90.0012C14.3517 89.5125 14.3553 89.0238 14.3553 88.5351V8.88891C14.3553 8.69313 14.3553 8.497 14.3553 8.30123C14.3493 7.43979 14.514 6.58569 14.84 5.78831C15.1661 4.99092 15.6469 4.26605 16.2547 3.65558C16.8625 3.04511 17.5853 2.56115 18.3812 2.23166C19.1772 1.90217 20.0306 1.73369 20.892 1.73596C21.1564 1.73379 21.4212 1.73596 21.6867 1.73596H59.4756C59.856 1.73596 60.2367 1.73596 60.617 1.73596C62.1105 1.72617 63.5634 2.22188 64.7395 3.14249C66.4668 4.51868 67.2155 6.52482 67.2155 8.67724V88.1623C67.2155 88.767 67.2191 89.3716 67.2155 89.9759C67.204 91.7076 66.5127 93.3654 65.2905 94.5922C64.0684 95.8191 62.4133 96.5168 60.6817 96.535C59.5666 96.5452 59.5638 98.2789 60.6817 98.2688C62.8672 98.2436 64.9561 97.3639 66.5013 95.818C68.0464 94.2721 68.9251 92.1828 68.9493 89.9972C68.9533 89.4471 68.9493 88.8966 68.9493 88.3465V8.57646C68.9802 7.27175 68.709 5.97756 68.1569 4.795C67.6048 3.61244 66.7868 2.57353 65.7667 1.75943C64.3012 0.622227 62.4995 0.00410172 60.6445 0.002169C60.2901 1.76239e-06 59.9354 0.002169 59.5811 0.002169H21.5993C21.2742 0.002169 20.9455 -0.00505511 20.6193 0.00686467C19.4849 0.0465274 18.3707 0.318463 17.3456 0.805858C16.3205 1.29325 15.4063 1.98575 14.6594 2.84052C13.2063 4.53421 12.6237 6.58189 12.6237 8.77296V88.7121C12.5984 89.4548 12.6182 90.1985 12.6829 90.9389C12.9333 92.9553 13.9094 94.8115 15.4289 96.1605C16.9483 97.5096 18.9071 98.259 20.939 98.2688C22.1165 98.2753 23.2944 98.2688 24.4719 98.2688H60.6817C61.7971 98.2688 61.7993 96.535 60.6817 96.535Z" fill="#1B9E76"/>
<path id="Vector_16" d="M13.6485 87.9452H19.3584H32.1758H47.5592H60.9657C63.2604 87.9452 65.5584 87.9813 67.8532 87.9452C67.9117 87.9452 67.9702 87.9452 68.0287 87.9452C69.1445 87.9452 69.1463 86.2114 68.0287 86.2114H62.2686H49.4252H34.0404H20.657C18.3778 86.2114 16.0957 86.1752 13.8168 86.2114C13.7608 86.2114 13.7049 86.2114 13.6485 86.2114C12.5331 86.2114 12.5313 87.9452 13.6485 87.9452Z" fill="#1B9E76"/>
<path id="Vector_17" d="M13.6485 11.5916H19.3584H32.1758H47.5592H60.9657C63.2604 11.5916 65.5584 11.6278 67.8532 11.5916C67.9117 11.5916 67.9702 11.5916 68.0287 11.5916C69.1445 11.5916 69.1463 9.85785 68.0287 9.85785H62.2686H49.4252H34.0404H20.657C18.3778 9.85785 16.0957 9.82173 13.8168 9.85785C13.7608 9.85785 13.7049 9.85785 13.6485 9.85785C12.5331 9.85785 12.5313 11.5916 13.6485 11.5916Z" fill="#1B9E76"/>
<path id="Vector_18" d="M40.834 31.4449C36.9892 31.4133 33.237 32.6241 30.1358 34.897C27.2269 37.0944 25.0806 40.149 23.9993 43.6306C21.8682 50.4812 23.9271 58.7091 29.6785 63.1794C35.3946 67.6222 44.0838 68.0611 50.3174 64.4176C56.6143 60.7365 59.3089 53.1321 58.2441 46.1182C57.6933 42.5279 56.0341 39.1995 53.4986 36.5986C50.8898 33.9639 47.5013 32.24 43.8356 31.6826C42.8423 31.5294 41.839 31.45 40.834 31.4449C39.7182 31.441 39.7168 33.1748 40.834 33.1787C44.3242 33.1551 47.7298 34.2517 50.5504 36.3075C53.1346 38.2584 55.0394 40.9731 55.9949 44.0669C57.9093 50.2153 56.2221 57.6298 51.1587 61.7454C48.7188 63.7288 45.5528 64.7994 42.4103 65.0323C39.0684 65.2809 35.6474 64.7336 32.6939 63.1035C29.9607 61.5855 27.7815 59.237 26.4717 56.3981C25.0617 53.2936 24.5897 49.8447 25.1136 46.4754C25.6103 43.2267 27.1016 40.2118 29.3823 37.8455C31.7684 35.4372 34.8697 33.8657 38.2228 33.3658C39.0872 33.2374 39.9601 33.1749 40.834 33.1787C41.9494 33.1748 41.9516 31.441 40.834 31.4449Z" fill="#1B9E76"/>
<path id="Vector_19" d="M102.363 129.131C96.2002 128.601 88.5311 126.972 83.1105 123.336C80.8411 121.814 75.7419 116.168 70.0887 110.678C68.3603 109 67.4295 107.048 68.1021 104.734C68.2957 104.079 68.6529 103.484 69.1399 103.004C69.627 102.525 70.2279 102.178 70.8862 101.994C71.9208 101.69 72.9878 101.509 74.0648 101.455L74.2776 101.437C69.6787 95.3844 62.7125 86.2051 58.0136 80.1C56.3159 77.8927 54.9885 73.3209 58.04 70.972C61.0018 68.6928 64.0157 70.4208 66.214 72.8596C69.7069 76.7343 77.3392 86.0335 80.9487 89.9891C80.7558 87.7724 81.9276 85.6283 84.6966 84.6476C86.8598 83.8815 89.2207 84.5454 90.2071 86.4644C89.5949 84.4749 90.6976 82.0166 93.066 80.9145C95.4345 79.8125 98.3371 80.0697 99.5728 82.1065C99.3467 80.1871 101.086 78.679 102.792 78.0697C104.629 77.4141 107.391 77.9913 109.407 80.3955C113.326 85.0709 116.503 89.997 119.26 94.2546C123.288 100.473 126.025 105.165 127.485 107.808L102.363 129.131Z" fill="white"/>
<path id="Vector_20" d="M32.7653 51.0952C34.3608 52.6924 35.9241 54.3218 37.5188 55.9202C37.9372 56.3255 38.4968 56.5522 39.0794 56.5522C39.6619 56.5522 40.2216 56.3255 40.64 55.9202C43.9298 52.6917 47.1886 49.4317 50.4163 46.1402C50.8302 45.7263 51.0628 45.1649 51.0628 44.5796C51.0628 43.9942 50.8302 43.4329 50.4163 43.019C50.0024 42.6051 49.4411 42.3726 48.8558 42.3726C48.2704 42.3726 47.7091 42.6051 47.2952 43.019C44.0739 46.3158 40.815 49.5757 37.5184 52.7986H40.6396C39.0449 51.2006 37.4816 49.5712 35.8861 47.9736C35.4722 47.5597 34.9108 47.3272 34.3254 47.3273C33.74 47.3273 33.1787 47.5599 32.7648 47.9738C32.3509 48.3878 32.1184 48.9492 32.1184 49.5345C32.1184 50.1199 32.3514 50.6813 32.7653 51.0952Z" fill="#1B9E76"/>
<path id="Vector_21" d="M79.2073 106.492C76.9573 103.564 74.7327 100.616 72.499 97.676C69.1778 93.3045 65.8521 88.936 62.5217 84.5704C61.7408 83.5487 60.9589 82.5273 60.1761 81.5063C59.4605 80.654 58.8 79.757 58.1985 78.8208C57.1448 77.0072 56.5163 74.4469 57.7134 72.5719C58.0815 72.0131 58.5842 71.5557 59.1752 71.2418C59.7662 70.9279 60.4266 70.7675 61.0957 70.7753C62.5181 70.8244 63.8047 71.7209 64.806 72.6611C65.5961 73.4423 66.3462 74.263 67.0534 75.1199C67.8298 76.0125 68.6004 76.9096 69.3651 77.8112C72.7034 81.7288 75.9806 85.7017 79.3933 89.5547C79.7039 89.9056 80.017 90.2547 80.3324 90.6022C81.0852 91.429 82.3086 90.2002 81.5584 89.3763C78.0926 85.5721 74.8316 81.5789 71.5017 77.657C69.9929 75.8802 68.4881 74.098 66.9295 72.3646C64.7703 69.9626 61.54 67.9835 58.3516 69.73C57.05 70.4251 56.07 71.5995 55.6191 73.0046C55.2656 74.2681 55.2516 75.6025 55.5787 76.8731C55.8494 78.0597 56.3365 79.1862 57.0155 80.1962C57.6924 81.1899 58.4791 82.1207 59.2102 83.075C62.6438 87.5562 66.066 92.0459 69.4768 96.5444C72.0589 99.9421 74.6419 103.339 77.2257 106.736C77.3873 106.947 77.5487 107.158 77.7101 107.368C77.8312 107.561 78.0212 107.701 78.2416 107.759C78.462 107.816 78.6961 107.788 78.8963 107.679C79.0936 107.562 79.2369 107.372 79.2951 107.15C79.3533 106.928 79.3217 106.692 79.2073 106.493V106.492Z" fill="#1B9E76"/>
<path id="Vector_22" d="M102.363 128.264C98.9691 127.983 95.61 127.38 92.3309 126.462C89.1664 125.559 85.9683 124.331 83.2784 122.398C83.2267 122.366 83.1783 122.329 83.1339 122.287C83.0392 122.211 82.9442 122.135 82.8507 122.057C82.6412 121.882 82.4353 121.703 82.2316 121.521C81.744 121.086 81.2686 120.636 80.7987 120.182C79.6024 119.026 78.436 117.839 77.2701 116.653C75.8776 115.238 74.4888 113.819 73.0841 112.415C72.3376 111.669 71.5859 110.927 70.8291 110.189C70.2119 109.621 69.6865 108.961 69.2715 108.233C68.5238 106.838 68.513 104.886 69.6689 103.698C70.7525 102.584 72.5332 102.446 74.0629 102.322C74.2911 102.317 74.5084 102.223 74.6697 102.062C74.8311 101.901 74.9242 101.683 74.9298 101.455C74.9281 101.226 74.8362 101.006 74.674 100.844C74.5118 100.682 74.2923 100.59 74.0629 100.588C72.4718 100.717 70.6279 100.877 69.265 101.797C68.5284 102.309 67.9351 103.001 67.5417 103.808C67.1483 104.614 66.9678 105.507 67.0176 106.403C67.0899 108.27 68.0763 109.892 69.368 111.186C70.9327 112.753 72.5191 114.298 74.0738 115.876C76.4577 118.296 78.7788 120.835 81.3575 123.056C83.866 125.218 87.0519 126.582 90.1676 127.611C94.1269 128.876 98.2195 129.676 102.363 129.998C102.593 129.996 102.812 129.904 102.974 129.742C103.137 129.58 103.228 129.36 103.23 129.131C103.226 128.902 103.133 128.685 102.971 128.523C102.81 128.361 102.592 128.269 102.363 128.264H102.363Z" fill="#1B9E76"/>
<path id="Vector_23" d="M81.8131 89.9888C81.665 88.0582 82.6912 86.4906 84.4618 85.6695C86.2089 84.8594 88.4748 85.067 89.4558 86.9016C89.9196 87.7685 91.3149 87.1758 91.0404 86.2337C90.4853 84.3291 91.7885 82.4205 93.5616 81.6352C95.2355 80.894 97.726 80.8045 98.8215 82.5444C99.2448 83.2162 100.523 83.014 100.437 82.1066C100.313 80.8019 101.229 79.8361 102.305 79.2368C103.204 78.7132 104.269 78.5518 105.282 78.7853C106.617 79.1005 107.813 79.8396 108.691 80.8919C109.86 82.2283 110.937 83.6565 111.991 85.084C113.986 87.784 115.842 90.5812 117.669 93.3957C119.471 96.1712 121.249 98.9608 122.967 101.789C124.261 103.92 125.528 106.065 126.734 108.246C127.276 109.221 128.772 108.349 128.231 107.37C125.436 102.316 122.349 97.4264 119.207 92.5834C117.244 89.5586 115.247 86.5538 113.085 83.6667C112.512 82.9009 111.928 82.1433 111.332 81.3939C110.766 80.6367 110.157 79.913 109.507 79.2267C108.437 78.1369 107.068 77.3892 105.573 77.0783C104.07 76.7799 102.51 77.0626 101.207 77.8693C99.7419 78.7665 98.5318 80.3035 98.7034 82.1055L100.319 81.6681C98.7103 79.1133 95.3453 78.9735 92.8078 80.0835C90.3155 81.1729 88.5752 83.9715 89.3684 86.6936L90.953 86.0257C89.5631 83.4268 86.3657 82.9695 83.8467 84.056C81.4645 85.0833 79.8774 87.3528 80.0793 89.9877C80.0847 90.216 80.1778 90.4333 80.3392 90.5947C80.5006 90.7562 80.718 90.8492 80.9462 90.8546C81.1755 90.8528 81.395 90.7609 81.5572 90.5987C81.7194 90.4366 81.8113 90.2171 81.8131 89.9877V89.9888Z" fill="#1B9E76"/>
</g>
<defs>
<clipPath id="clip0_1624_760">
<rect width="130" height="130" fill="white"/>
</clipPath>
</defs>
</svg>
