<svg width="97" height="92" viewBox="0 0 97 92" fill="none" xmlns="http://www.w3.org/2000/svg">
<g id="property-icon 1" clip-path="url(#clip0_1624_385)">
<path id="Vector" fill-rule="evenodd" clip-rule="evenodd" d="M94.0951 88.3009V2.88916H45.674V32.3649L42.7927 30.0757V2.11556C42.8371 1.57568 43.0722 1.0692 43.4558 0.686768C43.6703 0.469185 43.9259 0.296421 44.2078 0.178521C44.4897 0.0606203 44.7922 -6.28367e-05 45.0977 4.88259e-08H94.6713C94.975 -5.27028e-05 95.2756 0.0598943 95.5561 0.176397C95.8365 0.2929 96.0911 0.463662 96.3053 0.678874L96.408 0.789388C96.785 1.21027 96.9931 1.75573 96.9921 2.3208V24.5894V88.3009H82.0964V68.7557C82.0964 68.4061 81.9575 68.0708 81.7102 67.8235C81.463 67.5763 81.1277 67.4374 80.7781 67.4374H71.3923V91.1901H97V88.3009H94.0951ZM6.10986 91.1822V62.9458C5.04085 63.3977 3.84574 63.4537 2.73917 63.1037C2.00939 62.8591 1.36541 62.4097 0.884111 61.8091C0.397178 61.2066 0.0906652 60.4786 -3.93577e-06 59.7093C-0.0640497 58.9998 0.0154768 58.2846 0.233831 57.6065C0.452185 56.9284 0.804892 56.3012 1.27091 55.7624C1.32538 55.6961 1.38619 55.6353 1.45247 55.5808L31.7492 31.8992C31.9406 31.7192 32.1907 31.6145 32.4532 31.6043C32.7158 31.5942 32.9732 31.6793 33.178 31.8439L63.5457 55.4466L63.6799 55.565C64.2846 56.1523 64.7312 56.8827 64.9782 57.6887C65.2252 58.4946 65.2647 59.3498 65.0929 60.175C64.9302 60.8606 64.5998 61.495 64.1314 62.0213C63.6629 62.5477 63.0711 62.9494 62.409 63.1905C61.8223 63.3935 61.2009 63.4771 60.5814 63.4364C59.9618 63.3957 59.3567 63.2316 58.8015 62.9537V91.048H55.865V61.7144C55.865 61.1776 35.033 44.7109 32.7359 42.919C30.2967 44.7741 9.05428 61.0749 9.05428 61.7933V91.1901L6.10986 91.1822ZM32.6254 62.5195C35.6943 62.5361 38.6325 63.7637 40.8011 65.9353C42.9697 68.1068 44.1933 71.0467 44.2057 74.1156V86.4696H21.0293V74.1156C21.0376 71.0427 22.262 68.098 24.4349 65.9252C26.6078 63.7523 29.5525 62.5279 32.6254 62.5195ZM33.6279 64.5877V74.1472H42.2007C42.2028 71.7769 41.3285 69.4895 39.746 67.7248C38.1635 65.9602 35.9845 64.8429 33.6279 64.5877ZM33.6279 76.1602V84.4645H42.2007V76.1602H33.6279ZM31.615 84.4645V76.1602H23.0501V84.4645H31.615ZM31.615 74.1551V64.5877C29.266 64.8458 27.0942 65.9599 25.5144 67.7173C23.9346 69.4748 23.0573 71.7525 23.0501 74.1156L31.615 74.1551ZM18.8979 88.6641H46.345V90.677H18.8979V88.6641ZM52.6364 10.1594H60.4119C60.4699 10.1614 60.5249 10.1853 60.566 10.2263C60.607 10.2674 60.6309 10.3225 60.6329 10.3805V19.3795C60.6308 19.4367 60.6067 19.4909 60.5654 19.5307C60.5242 19.5704 60.4691 19.5926 60.4119 19.5926H52.6364C52.6077 19.5937 52.5792 19.5889 52.5524 19.5787C52.5256 19.5685 52.5012 19.5529 52.4806 19.533C52.4599 19.5131 52.4435 19.4893 52.4323 19.4629C52.4211 19.4365 52.4153 19.4081 52.4154 19.3795V10.3805C52.4154 10.3218 52.4387 10.2656 52.4801 10.2242C52.5216 10.1827 52.5778 10.1594 52.6364 10.1594ZM79.3651 10.1594H87.1405C87.1985 10.1614 87.2536 10.1853 87.2947 10.2263C87.3357 10.2674 87.3596 10.3225 87.3616 10.3805V19.3795C87.3595 19.4367 87.3353 19.4909 87.2941 19.5307C87.2529 19.5704 87.1978 19.5926 87.1405 19.5926H79.3651C79.3078 19.5926 79.2527 19.5704 79.2115 19.5307C79.1703 19.4909 79.1461 19.4367 79.144 19.3795V10.3805C79.146 10.3225 79.1699 10.2674 79.211 10.2263C79.252 10.1853 79.3071 10.1614 79.3651 10.1594ZM66.0007 10.1594H73.7762C73.8342 10.1614 73.8893 10.1853 73.9303 10.2263C73.9714 10.2674 73.9953 10.3225 73.9972 10.3805V19.3795C73.9952 19.4367 73.971 19.4909 73.9298 19.5307C73.8885 19.5704 73.8335 19.5926 73.7762 19.5926H66.0007C65.9721 19.5937 65.9435 19.5889 65.9167 19.5787C65.89 19.5685 65.8655 19.5529 65.8449 19.533C65.8243 19.5131 65.8078 19.4893 65.7966 19.4629C65.7854 19.4365 65.7797 19.4081 65.7797 19.3795V10.3805C65.7797 10.3218 65.803 10.2656 65.8444 10.2242C65.8859 10.1827 65.9421 10.1594 66.0007 10.1594ZM52.6364 28.2285H60.4119C60.4691 28.2285 60.5242 28.2507 60.5654 28.2904C60.6067 28.3302 60.6308 28.3844 60.6329 28.4416V37.4407C60.6309 37.4987 60.607 37.5538 60.566 37.5948C60.5249 37.6358 60.4699 37.6597 60.4119 37.6617H52.6364C52.5778 37.6617 52.5216 37.6384 52.4801 37.597C52.4387 37.5555 52.4154 37.4993 52.4154 37.4407V28.418C52.4153 28.3893 52.4211 28.3609 52.4323 28.3345C52.4435 28.3082 52.4599 28.2843 52.4806 28.2644C52.5012 28.2445 52.5256 28.229 52.5524 28.2187C52.5792 28.2085 52.6077 28.2038 52.6364 28.2048V28.2285ZM79.3651 28.2285H87.1405C87.1978 28.2285 87.2529 28.2507 87.2941 28.2904C87.3353 28.3302 87.3595 28.3844 87.3616 28.4416V37.4407C87.3596 37.4987 87.3357 37.5538 87.2947 37.5948C87.2536 37.6358 87.1985 37.6597 87.1405 37.6617H79.3651C79.3071 37.6597 79.252 37.6358 79.211 37.5948C79.1699 37.5538 79.146 37.4987 79.144 37.4407V28.418C79.1461 28.3607 79.1703 28.3065 79.2115 28.2668C79.2527 28.227 79.3078 28.2048 79.3651 28.2048V28.2285ZM66.0007 28.2285H73.7762C73.8335 28.2285 73.8885 28.2507 73.9298 28.2904C73.971 28.3302 73.9952 28.3844 73.9972 28.4416V37.4407C73.9953 37.4987 73.9714 37.5538 73.9303 37.5948C73.8893 37.6358 73.8342 37.6597 73.7762 37.6617H66.0007C65.9421 37.6617 65.8859 37.6384 65.8444 37.597C65.803 37.5555 65.7797 37.4993 65.7797 37.4407V28.418C65.7797 28.3893 65.7854 28.3609 65.7966 28.3345C65.8078 28.3082 65.8243 28.2843 65.8449 28.2644C65.8655 28.2445 65.89 28.229 65.9167 28.2187C65.9435 28.2085 65.9721 28.2038 66.0007 28.2048V28.2285ZM79.3651 46.2897H87.1405C87.1985 46.2917 87.2536 46.3156 87.2947 46.3566C87.3357 46.3977 87.3596 46.4527 87.3616 46.5107V55.5019C87.3596 55.5599 87.3357 55.6149 87.2947 55.656C87.2536 55.697 87.1985 55.7209 87.1405 55.7229H79.3651C79.3071 55.7209 79.252 55.697 79.211 55.656C79.1699 55.6149 79.146 55.5599 79.144 55.5019V46.5107C79.146 46.4527 79.1699 46.3977 79.211 46.3566C79.252 46.3156 79.3071 46.2917 79.3651 46.2897ZM66.0007 46.2897H73.7762C73.8342 46.2917 73.8893 46.3156 73.9303 46.3566C73.9714 46.3977 73.9953 46.4527 73.9972 46.5107V55.5019C73.9953 55.5599 73.9714 55.6149 73.9303 55.656C73.8893 55.697 73.8342 55.7209 73.7762 55.7229H71.408V52.7469L65.7955 48.2948V46.5107C65.7955 46.4521 65.8188 46.3959 65.8602 46.3545C65.9017 46.313 65.9579 46.2897 66.0165 46.2897H66.0007Z" fill="black"/>
</g>
<defs>
<clipPath id="clip0_1624_385">
<rect width="97" height="91.1901" fill="white"/>
</clipPath>
</defs>
</svg>
