<svg width="97" height="71" viewBox="0 0 97 71" fill="none" xmlns="http://www.w3.org/2000/svg">
<g id="dish-spoon-knife-icon 1" clip-path="url(#clip0_1624_382)">
<g id="Group">
<path id="Vector" fill-rule="evenodd" clip-rule="evenodd" d="M97 16.8692C97.0395 19.1506 96.5816 25.6788 95.6738 36.4934H94.2687V70.4134H89.5324V36.4934H88.7509V0C90.3455 0.24471 91.719 0.970947 92.8162 2.17082C95.5712 4.98104 96.9605 9.89103 97 16.8692ZM84.6777 35.1436C84.6777 44.6478 81.3307 52.7706 74.6366 59.4646C67.9268 66.1744 59.8198 69.5214 50.3156 69.5214C40.8429 69.5214 32.7438 66.1744 26.0182 59.4646C19.3084 52.7706 15.9377 44.6478 15.9377 35.1436C15.9377 25.6709 19.3005 17.5876 26.0182 10.862C32.7517 4.15218 40.8508 0.781494 50.3156 0.781494C59.8198 0.781494 67.9268 4.14429 74.6366 10.862C81.3307 17.5876 84.6777 25.6709 84.6777 35.1436ZM16.3324 18.3296C16.3324 20.6662 15.3615 22.5923 13.4196 24.0921C11.5014 25.592 10.5304 26.9102 10.5304 28.0075V70.4134H5.79411V28.0075C5.79411 26.9023 4.82316 25.592 2.90495 24.0921C0.970947 22.5923 0 20.6741 0 18.3296C0 11.9829 1.40511 5.85726 4.23901 0V15.7088H6.74927V0H9.52791V15.7088H12.0934V0C14.9115 5.85726 16.3324 11.9829 16.3324 18.3296ZM75.3787 35.1436C75.3787 28.2443 72.9473 22.3476 68.061 17.4613C63.1747 12.575 57.2622 10.1436 50.3156 10.1436C43.3927 10.1436 37.4959 12.575 32.6333 17.4613C27.747 22.3476 25.292 28.2443 25.292 35.1436C25.292 42.0586 27.747 47.9553 32.6333 52.8653C37.4959 57.7674 43.3927 60.2224 50.3156 60.2224C57.2543 60.2224 63.1668 57.7674 68.061 52.8653C72.9395 47.9553 75.3787 42.0586 75.3787 35.1436ZM72.8684 35.1436C72.8684 41.3797 70.6818 46.7002 66.2691 51.1129C61.8722 55.5019 56.5518 57.7122 50.3156 57.7122C44.1189 57.7122 38.8063 55.5019 34.4015 51.1129C30.0046 46.7002 27.8022 41.3797 27.8022 35.1436C27.8022 28.9469 30.0046 23.6343 34.4015 19.2453C38.8142 14.8563 44.1189 12.646 50.3156 12.646C56.5518 12.646 61.8801 14.8563 66.2691 19.2453C70.6818 23.6343 72.8684 28.9469 72.8684 35.1436Z" fill="#3C3C3C"/>
</g>
</g>
<defs>
<clipPath id="clip0_1624_382">
<rect width="97" height="70.4134" fill="white"/>
</clipPath>
</defs>
</svg>
