<svg width="97" height="85" viewBox="0 0 97 85" fill="none" xmlns="http://www.w3.org/2000/svg">
<g id="supermarket-icon 1" clip-path="url(#clip0_1624_387)">
<path id="Vector" fill-rule="evenodd" clip-rule="evenodd" d="M4.1585 31.6984H17.0015V22.7382H7.80736C6.21596 22.7382 4.91441 20.9739 4.91441 18.8167V3.92154C4.91441 1.76431 6.21596 0 7.80736 0H91.413C93.0044 0 94.306 1.76431 94.306 3.92154V18.8167C94.306 20.9739 93.0044 22.7382 91.413 22.7382H82.2189V31.6984H92.8415C95.1282 31.6984 97 34.2332 97 37.3329V85H0V37.3329C0 34.2332 1.8718 31.6984 4.1585 31.6984ZM10.7117 15.7426L11.0205 13.2875C11.693 13.5161 12.2993 13.6291 12.8373 13.6291C13.3754 13.6291 13.8073 13.5983 14.137 13.5392V12.797L13.1499 12.6763C12.2576 12.5684 11.6438 12.2782 11.3104 11.8057C10.9769 11.3357 10.8121 10.6372 10.8121 9.71524C10.8121 8.44658 11.0148 7.57342 11.4202 7.09575C11.8257 6.62064 12.5172 6.3818 13.4891 6.3818C14.4629 6.3818 15.3419 6.50507 16.1244 6.75418L15.8496 9.13484C15.1695 8.98589 14.6239 8.91141 14.2147 8.91141C13.8054 8.91141 13.4569 8.9371 13.1708 8.98589V9.71524L13.9627 9.82053C14.9194 9.94894 15.5825 10.2597 15.9482 10.7502C16.3157 11.2407 16.4976 11.9238 16.4976 12.797C16.4976 13.4211 16.4351 13.9501 16.3119 14.3815C16.1869 14.813 16.0391 15.1391 15.8667 15.3626C15.6943 15.586 15.4518 15.7581 15.1373 15.8762C14.8209 15.9943 14.5462 16.0662 14.3075 16.0919C14.0707 16.1176 13.7543 16.1304 13.3583 16.1304C12.4073 16.1304 11.5244 15.9995 10.7117 15.7426ZM19.5989 6.60523V13.5854H20.3776C20.6561 13.5854 20.8474 13.5366 20.9497 13.4442C21.052 13.3491 21.1032 13.1334 21.1032 12.797V6.60523H23.2989V11.8288C23.2989 12.6712 23.2573 13.3517 23.1777 13.8679C23.0981 14.3841 22.9466 14.8207 22.7268 15.1777C22.5089 15.5346 22.2077 15.7812 21.8269 15.9198C21.4461 16.0585 20.9535 16.1304 20.3454 16.1304C19.7372 16.1304 19.2465 16.0585 18.8695 15.9198C18.4925 15.7812 18.1932 15.5346 17.9734 15.1777C17.7555 14.8207 17.604 14.3841 17.5244 13.8679C17.4429 13.3517 17.4032 12.6712 17.4032 11.8288V6.60523H19.5989ZM28.1016 13.6573H26.675V15.907H24.4792V6.60523H27.9368C29.5092 6.60523 30.2973 7.75062 30.2973 10.044C30.2973 11.3023 30.0908 12.2346 29.6816 12.8407C29.5282 13.0692 29.316 13.2618 29.0451 13.4211C28.7741 13.5803 28.4596 13.6573 28.1016 13.6573ZM26.675 8.98589V11.2792H27.1789C27.4423 11.2792 27.6336 11.2407 27.7549 11.1662C27.8761 11.0918 27.9368 10.9223 27.9368 10.6526V9.61251C27.9368 9.34286 27.8761 9.17336 27.7549 9.09889C27.6336 9.02441 27.4423 8.98589 27.1789 8.98589H26.675ZM35.5926 12.3938H33.3987V13.5238H36.087V15.907H31.2029V6.60523H36.0321L35.7574 8.98589H33.3987V10.2366H35.5926V12.3938ZM43.2503 15.907H40.8347L39.9348 13.1386H39.4631V15.907H37.2673V6.60523H40.7248C42.2992 6.60523 43.0854 7.69155 43.0854 9.86419C43.0854 11.3537 42.7444 12.3347 42.0643 12.8098L43.2503 15.907ZM39.4631 8.98589V10.8452H39.967C40.2323 10.8452 40.4236 10.8093 40.5449 10.7348C40.6642 10.6603 40.7248 10.4882 40.7248 10.2212V9.61251C40.7248 9.34286 40.6642 9.17336 40.5449 9.09889C40.4236 9.02441 40.2323 8.98589 39.967 8.98589H39.4631ZM46.2853 15.907H43.991L44.4078 6.60523H47.2742L48.1306 11.3383H48.2063L49.0627 6.60523H51.9291L52.3459 15.907H50.0516L49.919 11.3974H49.8432L49.0077 15.907H47.3292L46.4823 11.3974H46.4179L46.2853 15.907ZM55.2976 15.907H52.9825L54.7595 6.60523H58.1526L59.9316 15.907H57.6146L57.3626 14.4329H55.5514L55.2976 15.907ZM56.3964 9.46356L55.9455 12.0676H56.9553L56.5177 9.46356H56.3964ZM66.8239 15.907H64.4103L63.5085 13.1386H63.0367V15.907H60.841V6.60523H64.3004C65.8728 6.60523 66.6591 7.69155 66.6591 9.86419C66.6591 11.3537 66.32 12.3347 65.6398 12.8098L66.8239 15.907ZM63.0367 8.98589V10.8452H63.5426C63.8059 10.8452 63.9973 10.8093 64.1185 10.7348C64.2398 10.6603 64.3004 10.4882 64.3004 10.2212V9.61251C64.3004 9.34286 64.2398 9.17336 64.1185 9.09889C63.9973 9.02441 63.8059 8.98589 63.5426 8.98589H63.0367ZM70.2833 11.8596V15.907H68.0876V6.60523H70.2833V10.4009H70.3269C70.3402 10.103 70.3781 9.86419 70.4368 9.68442L71.511 6.60523H73.8829L72.2366 11.1739L73.9379 15.907H71.5659L70.4368 12.5736C70.3781 12.3938 70.3402 12.155 70.3269 11.8596H70.2833ZM79.4813 12.3938H77.2855V13.5238H79.9757V15.907H75.0897V6.60523H79.9208L79.6461 8.98589H77.2855V10.2366H79.4813V12.3938ZM86.2864 8.98589H84.695V15.907H82.4993V8.98589H80.9079V6.60523H86.2864V8.98589ZM46.1243 63.6665C46.5392 63.6665 46.8764 64.1237 46.8764 64.6861C46.8764 65.2485 46.5392 65.7056 46.1243 65.7056C45.7094 65.7056 45.3721 65.2485 45.3721 64.6861C45.3721 64.1237 45.7094 63.6665 46.1243 63.6665ZM50.8757 63.6665C51.2906 63.6665 51.6279 64.1237 51.6279 64.6861C51.6279 65.2485 51.2906 65.7056 50.8757 65.7056C50.4608 65.7056 50.1236 65.2485 50.1236 64.6861C50.1236 64.1237 50.4608 63.6665 50.8757 63.6665ZM49.0399 47.6414H67.5893V80.4133H49.0399V47.6414ZM29.4107 47.6414H47.9601V80.4133H29.4107V47.6414ZM74.3945 43.648H81.0708V53.2938H74.3945V43.648ZM5.91473 43.648H12.5911V53.2938H5.91473V43.648ZM22.6055 70.7674H15.9292V80.4133H22.6055V70.7674ZM22.6055 57.2077H15.9292V66.8536H22.6055V57.2077ZM22.6055 43.648H15.9292V53.2938H22.6055V43.648ZM5.91473 70.7674H12.5911V80.4133H5.91473V70.7674ZM5.91473 57.2077H12.5911V66.8536H5.91473V57.2077ZM91.0853 70.7674H84.4089V80.4133H91.0853V70.7674ZM91.0853 57.2077H84.4089V66.8536H91.0853V57.2077ZM91.0853 43.648H84.4089V53.2938H91.0853V43.648ZM74.3945 70.7674H81.0708V80.4133H74.3945V70.7674ZM74.3945 57.2077H81.0708V66.8536H74.3945V57.2077ZM20.334 31.6984H78.8864V22.7382H20.334V31.6984Z" fill="black"/>
</g>
<defs>
<clipPath id="clip0_1624_387">
<rect width="97" height="85" fill="white"/>
</clipPath>
</defs>
</svg>
